<?xml version="1.0" encoding="UTF-8" standalone="no"?>
<svg width="319px" height="179px" viewBox="0 0 319 179" version="1.1" xmlns="http://www.w3.org/2000/svg" xmlns:xlink="http://www.w3.org/1999/xlink">
    <!-- Generator: Sketch 3.8.3 (29802) - http://www.bohemiancoding.com/sketch -->
    <title>22-people</title>
    <desc>Created with Sketch.</desc>
    <defs></defs>
    <g id="Page-1" stroke="none" stroke-width="1" fill="none" fill-rule="evenodd">
        <g id="22-people" transform="translate(0.357988, -0.912109)" fill="#82D7EB">
            <g id="Group-9" transform="translate(0.000000, 62.000000)">
                <path d="M18.5,14.8300781 C22.3659932,14.8300781 25.5,11.6960714 25.5,7.83007812 C25.5,3.96408488 22.3659932,0.830078125 18.5,0.830078125 C14.6340068,0.830078125 11.5,3.96408488 11.5,7.83007812 C11.5,11.6960714 14.6340068,14.8300781 18.5,14.8300781 Z" id="Oval-11"></path>
                <path d="M0,56 L0,34.6185924 C1.01008189,25.7247495 8.32989233,18.8242188 17.2072891,18.8242188 L20.3305757,18.8242188 C29.8995878,18.8242188 37.6568047,26.8365961 37.6568047,36.7273197 L37.6568047,56 L18.8284024,56 L0,56 Z" id="Combined-Shape"></path>
            </g>
            <g id="Group-9-Copy-8" transform="translate(0.000000, 0.236328)">
                <path d="M18.5,14.8300781 C22.3659932,14.8300781 25.5,11.6960714 25.5,7.83007812 C25.5,3.96408488 22.3659932,0.830078125 18.5,0.830078125 C14.6340068,0.830078125 11.5,3.96408488 11.5,7.83007812 C11.5,11.6960714 14.6340068,14.8300781 18.5,14.8300781 Z" id="Oval-11"></path>
                <path d="M0,56 L0,34.6185924 C1.01008189,25.7247495 8.32989233,18.8242188 17.2072891,18.8242188 L20.3305757,18.8242188 C29.8995878,18.8242188 37.6568047,26.8365961 37.6568047,36.7273197 L37.6568047,56 L18.8284024,56 L0,56 Z" id="Combined-Shape"></path>
            </g>
            <g id="Group-9-Copy-3" transform="translate(120.000000, 62.000000)">
                <path d="M18.5,14.8300781 C22.3659932,14.8300781 25.5,11.6960714 25.5,7.83007812 C25.5,3.96408488 22.3659932,0.830078125 18.5,0.830078125 C14.6340068,0.830078125 11.5,3.96408488 11.5,7.83007812 C11.5,11.6960714 14.6340068,14.8300781 18.5,14.8300781 Z" id="Oval-11"></path>
                <path d="M0,56 L0,34.6185924 C1.01008189,25.7247495 8.32989233,18.8242188 17.2072891,18.8242188 L20.3305757,18.8242188 C29.8995878,18.8242188 37.6568047,26.8365961 37.6568047,36.7273197 L37.6568047,56 L18.8284024,56 L0,56 Z" id="Combined-Shape"></path>
            </g>
            <g id="Group-9-Copy-16" transform="translate(120.000000, 123.763672)">
                <path d="M18.5,14.8300781 C22.3659932,14.8300781 25.5,11.6960714 25.5,7.83007812 C25.5,3.96408488 22.3659932,0.830078125 18.5,0.830078125 C14.6340068,0.830078125 11.5,3.96408488 11.5,7.83007812 C11.5,11.6960714 14.6340068,14.8300781 18.5,14.8300781 Z" id="Oval-11"></path>
                <path d="M0,56 L0,34.6185924 C1.01008189,25.7247495 8.32989233,18.8242188 17.2072891,18.8242188 L20.3305757,18.8242188 C29.8995878,18.8242188 37.6568047,26.8365961 37.6568047,36.7273197 L37.6568047,56 L18.8284024,56 L0,56 Z" id="Combined-Shape"></path>
            </g>
            <g id="Group-9-Copy-9" transform="translate(120.000000, 0.236328)">
                <path d="M18.5,14.8300781 C22.3659932,14.8300781 25.5,11.6960714 25.5,7.83007812 C25.5,3.96408488 22.3659932,0.830078125 18.5,0.830078125 C14.6340068,0.830078125 11.5,3.96408488 11.5,7.83007812 C11.5,11.6960714 14.6340068,14.8300781 18.5,14.8300781 Z" id="Oval-11"></path>
                <path d="M0,56 L0,34.6185924 C1.01008189,25.7247495 8.32989233,18.8242188 17.2072891,18.8242188 L20.3305757,18.8242188 C29.8995878,18.8242188 37.6568047,26.8365961 37.6568047,36.7273197 L37.6568047,56 L18.8284024,56 L0,56 Z" id="Combined-Shape"></path>
            </g>
            <g id="Group-9-Copy" transform="translate(40.000000, 62.000000)">
                <path d="M18.5,14.8300781 C22.3659932,14.8300781 25.5,11.6960714 25.5,7.83007812 C25.5,3.96408488 22.3659932,0.830078125 18.5,0.830078125 C14.6340068,0.830078125 11.5,3.96408488 11.5,7.83007812 C11.5,11.6960714 14.6340068,14.8300781 18.5,14.8300781 Z" id="Oval-11"></path>
                <path d="M0,56 L0,34.6185924 C1.01008189,25.7247495 8.32989233,18.8242188 17.2072891,18.8242188 L20.3305757,18.8242188 C29.8995878,18.8242188 37.6568047,26.8365961 37.6568047,36.7273197 L37.6568047,56 L18.8284024,56 L0,56 Z" id="Combined-Shape"></path>
            </g>
            <g id="Group-9-Copy-17" transform="translate(40.000000, 123.763672)">
                <path d="M18.5,14.8300781 C22.3659932,14.8300781 25.5,11.6960714 25.5,7.83007812 C25.5,3.96408488 22.3659932,0.830078125 18.5,0.830078125 C14.6340068,0.830078125 11.5,3.96408488 11.5,7.83007812 C11.5,11.6960714 14.6340068,14.8300781 18.5,14.8300781 Z" id="Oval-11"></path>
                <path d="M0,56 L0,34.6185924 C1.01008189,25.7247495 8.32989233,18.8242188 17.2072891,18.8242188 L20.3305757,18.8242188 C29.8995878,18.8242188 37.6568047,26.8365961 37.6568047,36.7273197 L37.6568047,56 L18.8284024,56 L0,56 Z" id="Combined-Shape"></path>
            </g>
            <g id="Group-9-Copy-10" transform="translate(40.000000, 0.236328)">
                <path d="M18.5,14.8300781 C22.3659932,14.8300781 25.5,11.6960714 25.5,7.83007812 C25.5,3.96408488 22.3659932,0.830078125 18.5,0.830078125 C14.6340068,0.830078125 11.5,3.96408488 11.5,7.83007812 C11.5,11.6960714 14.6340068,14.8300781 18.5,14.8300781 Z" id="Oval-11"></path>
                <path d="M0,56 L0,34.6185924 C1.01008189,25.7247495 8.32989233,18.8242188 17.2072891,18.8242188 L20.3305757,18.8242188 C29.8995878,18.8242188 37.6568047,26.8365961 37.6568047,36.7273197 L37.6568047,56 L18.8284024,56 L0,56 Z" id="Combined-Shape"></path>
            </g>
            <g id="Group-9-Copy-4" transform="translate(160.000000, 62.000000)">
                <path d="M18.5,14.8300781 C22.3659932,14.8300781 25.5,11.6960714 25.5,7.83007812 C25.5,3.96408488 22.3659932,0.830078125 18.5,0.830078125 C14.6340068,0.830078125 11.5,3.96408488 11.5,7.83007812 C11.5,11.6960714 14.6340068,14.8300781 18.5,14.8300781 Z" id="Oval-11"></path>
                <path d="M0,56 L0,34.6185924 C1.01008189,25.7247495 8.32989233,18.8242188 17.2072891,18.8242188 L20.3305757,18.8242188 C29.8995878,18.8242188 37.6568047,26.8365961 37.6568047,36.7273197 L37.6568047,56 L18.8284024,56 L0,56 Z" id="Combined-Shape"></path>
            </g>
            <g id="Group-9-Copy-18" transform="translate(160.000000, 123.763672)">
                <path d="M18.5,14.8300781 C22.3659932,14.8300781 25.5,11.6960714 25.5,7.83007812 C25.5,3.96408488 22.3659932,0.830078125 18.5,0.830078125 C14.6340068,0.830078125 11.5,3.96408488 11.5,7.83007812 C11.5,11.6960714 14.6340068,14.8300781 18.5,14.8300781 Z" id="Oval-11"></path>
                <path d="M0,56 L0,34.6185924 C1.01008189,25.7247495 8.32989233,18.8242188 17.2072891,18.8242188 L20.3305757,18.8242188 C29.8995878,18.8242188 37.6568047,26.8365961 37.6568047,36.7273197 L37.6568047,56 L18.8284024,56 L0,56 Z" id="Combined-Shape"></path>
            </g>
            <g id="Group-9-Copy-11" transform="translate(160.000000, 0.236328)">
                <path d="M18.5,14.8300781 C22.3659932,14.8300781 25.5,11.6960714 25.5,7.83007812 C25.5,3.96408488 22.3659932,0.830078125 18.5,0.830078125 C14.6340068,0.830078125 11.5,3.96408488 11.5,7.83007812 C11.5,11.6960714 14.6340068,14.8300781 18.5,14.8300781 Z" id="Oval-11"></path>
                <path d="M0,56 L0,34.6185924 C1.01008189,25.7247495 8.32989233,18.8242188 17.2072891,18.8242188 L20.3305757,18.8242188 C29.8995878,18.8242188 37.6568047,26.8365961 37.6568047,36.7273197 L37.6568047,56 L18.8284024,56 L0,56 Z" id="Combined-Shape"></path>
            </g>
            <g id="Group-9-Copy-6" transform="translate(240.000000, 62.000000)">
                <path d="M18.5,14.8300781 C22.3659932,14.8300781 25.5,11.6960714 25.5,7.83007812 C25.5,3.96408488 22.3659932,0.830078125 18.5,0.830078125 C14.6340068,0.830078125 11.5,3.96408488 11.5,7.83007812 C11.5,11.6960714 14.6340068,14.8300781 18.5,14.8300781 Z" id="Oval-11"></path>
                <path d="M0,56 L0,34.6185924 C1.01008189,25.7247495 8.32989233,18.8242188 17.2072891,18.8242188 L20.3305757,18.8242188 C29.8995878,18.8242188 37.6568047,26.8365961 37.6568047,36.7273197 L37.6568047,56 L18.8284024,56 L0,56 Z" id="Combined-Shape"></path>
            </g>
            <g id="Group-9-Copy-19" transform="translate(240.000000, 123.763672)">
                <path d="M18.5,14.8300781 C22.3659932,14.8300781 25.5,11.6960714 25.5,7.83007812 C25.5,3.96408488 22.3659932,0.830078125 18.5,0.830078125 C14.6340068,0.830078125 11.5,3.96408488 11.5,7.83007812 C11.5,11.6960714 14.6340068,14.8300781 18.5,14.8300781 Z" id="Oval-11"></path>
                <path d="M0,56 L0,34.6185924 C1.01008189,25.7247495 8.32989233,18.8242188 17.2072891,18.8242188 L20.3305757,18.8242188 C29.8995878,18.8242188 37.6568047,26.8365961 37.6568047,36.7273197 L37.6568047,56 L18.8284024,56 L0,56 Z" id="Combined-Shape"></path>
            </g>
            <g id="Group-9-Copy-12" transform="translate(240.000000, 0.236328)">
                <path d="M18.5,14.8300781 C22.3659932,14.8300781 25.5,11.6960714 25.5,7.83007812 C25.5,3.96408488 22.3659932,0.830078125 18.5,0.830078125 C14.6340068,0.830078125 11.5,3.96408488 11.5,7.83007812 C11.5,11.6960714 14.6340068,14.8300781 18.5,14.8300781 Z" id="Oval-11"></path>
                <path d="M0,56 L0,34.6185924 C1.01008189,25.7247495 8.32989233,18.8242188 17.2072891,18.8242188 L20.3305757,18.8242188 C29.8995878,18.8242188 37.6568047,26.8365961 37.6568047,36.7273197 L37.6568047,56 L18.8284024,56 L0,56 Z" id="Combined-Shape"></path>
            </g>
            <g id="Group-9-Copy-2" transform="translate(80.000000, 62.000000)">
                <path d="M18.5,14.8300781 C22.3659932,14.8300781 25.5,11.6960714 25.5,7.83007812 C25.5,3.96408488 22.3659932,0.830078125 18.5,0.830078125 C14.6340068,0.830078125 11.5,3.96408488 11.5,7.83007812 C11.5,11.6960714 14.6340068,14.8300781 18.5,14.8300781 Z" id="Oval-11"></path>
                <path d="M0,56 L0,34.6185924 C1.01008189,25.7247495 8.32989233,18.8242188 17.2072891,18.8242188 L20.3305757,18.8242188 C29.8995878,18.8242188 37.6568047,26.8365961 37.6568047,36.7273197 L37.6568047,56 L18.8284024,56 L0,56 Z" id="Combined-Shape"></path>
            </g>
            <g id="Group-9-Copy-20" transform="translate(80.000000, 123.763672)">
                <path d="M18.5,14.8300781 C22.3659932,14.8300781 25.5,11.6960714 25.5,7.83007812 C25.5,3.96408488 22.3659932,0.830078125 18.5,0.830078125 C14.6340068,0.830078125 11.5,3.96408488 11.5,7.83007812 C11.5,11.6960714 14.6340068,14.8300781 18.5,14.8300781 Z" id="Oval-11"></path>
                <path d="M0,56 L0,34.6185924 C1.01008189,25.7247495 8.32989233,18.8242188 17.2072891,18.8242188 L20.3305757,18.8242188 C29.8995878,18.8242188 37.6568047,26.8365961 37.6568047,36.7273197 L37.6568047,56 L18.8284024,56 L0,56 Z" id="Combined-Shape"></path>
            </g>
            <g id="Group-9-Copy-13" transform="translate(80.000000, 0.236328)">
                <path d="M18.5,14.8300781 C22.3659932,14.8300781 25.5,11.6960714 25.5,7.83007812 C25.5,3.96408488 22.3659932,0.830078125 18.5,0.830078125 C14.6340068,0.830078125 11.5,3.96408488 11.5,7.83007812 C11.5,11.6960714 14.6340068,14.8300781 18.5,14.8300781 Z" id="Oval-11"></path>
                <path d="M0,56 L0,34.6185924 C1.01008189,25.7247495 8.32989233,18.8242188 17.2072891,18.8242188 L20.3305757,18.8242188 C29.8995878,18.8242188 37.6568047,26.8365961 37.6568047,36.7273197 L37.6568047,56 L18.8284024,56 L0,56 Z" id="Combined-Shape"></path>
            </g>
            <g id="Group-9-Copy-5" transform="translate(200.000000, 62.000000)">
                <path d="M18.5,14.8300781 C22.3659932,14.8300781 25.5,11.6960714 25.5,7.83007812 C25.5,3.96408488 22.3659932,0.830078125 18.5,0.830078125 C14.6340068,0.830078125 11.5,3.96408488 11.5,7.83007812 C11.5,11.6960714 14.6340068,14.8300781 18.5,14.8300781 Z" id="Oval-11"></path>
                <path d="M0,56 L0,34.6185924 C1.01008189,25.7247495 8.32989233,18.8242188 17.2072891,18.8242188 L20.3305757,18.8242188 C29.8995878,18.8242188 37.6568047,26.8365961 37.6568047,36.7273197 L37.6568047,56 L18.8284024,56 L0,56 Z" id="Combined-Shape"></path>
            </g>
            <g id="Group-9-Copy-21" transform="translate(200.000000, 123.763672)">
                <path d="M18.5,14.8300781 C22.3659932,14.8300781 25.5,11.6960714 25.5,7.83007812 C25.5,3.96408488 22.3659932,0.830078125 18.5,0.830078125 C14.6340068,0.830078125 11.5,3.96408488 11.5,7.83007812 C11.5,11.6960714 14.6340068,14.8300781 18.5,14.8300781 Z" id="Oval-11"></path>
                <path d="M0,56 L0,34.6185924 C1.01008189,25.7247495 8.32989233,18.8242188 17.2072891,18.8242188 L20.3305757,18.8242188 C29.8995878,18.8242188 37.6568047,26.8365961 37.6568047,36.7273197 L37.6568047,56 L18.8284024,56 L0,56 Z" id="Combined-Shape"></path>
            </g>
            <g id="Group-9-Copy-14" transform="translate(200.000000, 0.236328)">
                <path d="M18.5,14.8300781 C22.3659932,14.8300781 25.5,11.6960714 25.5,7.83007812 C25.5,3.96408488 22.3659932,0.830078125 18.5,0.830078125 C14.6340068,0.830078125 11.5,3.96408488 11.5,7.83007812 C11.5,11.6960714 14.6340068,14.8300781 18.5,14.8300781 Z" id="Oval-11"></path>
                <path d="M0,56 L0,34.6185924 C1.01008189,25.7247495 8.32989233,18.8242188 17.2072891,18.8242188 L20.3305757,18.8242188 C29.8995878,18.8242188 37.6568047,26.8365961 37.6568047,36.7273197 L37.6568047,56 L18.8284024,56 L0,56 Z" id="Combined-Shape"></path>
            </g>
            <g id="Group-9-Copy-7" transform="translate(280.000000, 62.000000)">
                <path d="M18.5,14.8300781 C22.3659932,14.8300781 25.5,11.6960714 25.5,7.83007812 C25.5,3.96408488 22.3659932,0.830078125 18.5,0.830078125 C14.6340068,0.830078125 11.5,3.96408488 11.5,7.83007812 C11.5,11.6960714 14.6340068,14.8300781 18.5,14.8300781 Z" id="Oval-11"></path>
                <path d="M0,56 L0,34.6185924 C1.01008189,25.7247495 8.32989233,18.8242188 17.2072891,18.8242188 L20.3305757,18.8242188 C29.8995878,18.8242188 37.6568047,26.8365961 37.6568047,36.7273197 L37.6568047,56 L18.8284024,56 L0,56 Z" id="Combined-Shape"></path>
            </g>
            <g id="Group-9-Copy-15" transform="translate(280.000000, 0.236328)">
                <path d="M18.5,14.8300781 C22.3659932,14.8300781 25.5,11.6960714 25.5,7.83007812 C25.5,3.96408488 22.3659932,0.830078125 18.5,0.830078125 C14.6340068,0.830078125 11.5,3.96408488 11.5,7.83007812 C11.5,11.6960714 14.6340068,14.8300781 18.5,14.8300781 Z" id="Oval-11"></path>
                <path d="M0,56 L0,34.6185924 C1.01008189,25.7247495 8.32989233,18.8242188 17.2072891,18.8242188 L20.3305757,18.8242188 C29.8995878,18.8242188 37.6568047,26.8365961 37.6568047,36.7273197 L37.6568047,56 L18.8284024,56 L0,56 Z" id="Combined-Shape"></path>
            </g>
        </g>
    </g>
</svg>