<?xml version="1.0" encoding="UTF-8" standalone="no"?>
<svg width="175px" height="175px" viewBox="0 0 175 175" version="1.1" xmlns="http://www.w3.org/2000/svg" xmlns:xlink="http://www.w3.org/1999/xlink">
    <!-- Generator: Sketch 3.8.3 (29802) - http://www.bohemiancoding.com/sketch -->
    <title>50-lives</title>
    <desc>Created with Sketch.</desc>
    <defs></defs>
    <g id="Page-1" stroke="none" stroke-width="1" fill="none" fill-rule="evenodd">
        <g id="Home" transform="translate(-425.000000, -872.000000)">
            <g id="Group-12" transform="translate(335.000000, 782.000000)">
                <g id="Group-11" stroke-linecap="round" stroke="#82D7EA" stroke-width="2">
                    <g id="Group-10" transform="translate(14.764905, 14.764905)">
                        <g id="Group-9" transform="translate(38.067653, 39.067653)">
                            <g id="Group-8" transform="translate(36.798731, 36.798731)">
                                <g id="Group-6" transform="translate(86.017758, 0.000000)">
                                    <path d="M1.90338265,0.634460882 L1.90338265,22.2434201" id="Line"></path>
                                    <path d="M1,151.636151 L1,173.24511" id="Line-Copy-2"></path>
                                </g>
                                <g id="Group-6-Copy" transform="translate(87.842282, 87.017758) rotate(90.000000) translate(-87.842282, -87.017758) translate(85.842282, 0.017758)">
                                    <path d="M1.90338265,0.634460882 L1.90338265,22.2434201" id="Line"></path>
                                    <path d="M1.90338265,151.636151 L1.90338265,173.24511" id="Line-Copy-2"></path>
                                </g>
                            </g>
                            <g id="Group-8-Copy" transform="translate(124.366319, 123.477842) rotate(45.000000) translate(-124.366319, -123.477842) translate(36.866319, 36.477842)">
                                <g id="Group-6" transform="translate(86.017758, -0.000000)">
                                    <path d="M1.90338265,0.634460882 L1.90338265,22.2434201" id="Line"></path>
                                    <path d="M1.90338265,151.636151 L1.90338265,173.24511" id="Line-Copy-2"></path>
                                </g>
                                <g id="Group-6-Copy" transform="translate(87.842282, 87.017758) rotate(90.000000) translate(-87.842282, -87.017758) translate(85.842282, 0.017758)">
                                    <path d="M1.90338265,0.634460882 L1.90338265,22.2434201" id="Line"></path>
                                    <path d="M1.90338265,151.636151 L1.90338265,173.24511" id="Line-Copy-2"></path>
                                </g>
                            </g>
                        </g>
                        <g id="Group-9-Copy" transform="translate(162.202437, 162.313994) rotate(22.500000) translate(-162.202437, -162.313994) translate(38.202437, 38.813994)">
                            <g id="Group-8" transform="translate(36.800622, 36.792441)">
                                <g id="Group-6" transform="translate(86.017758, 0.000000)">
                                    <path d="M1.90338265,0.634460882 L1.90338265,22.2434201" id="Line"></path>
                                    <path d="M1.90338265,151.636151 L1.90338265,173.24511" id="Line-Copy-2"></path>
                                </g>
                                <g id="Group-6-Copy" transform="translate(87.842282, 87.017758) rotate(90.000000) translate(-87.842282, -87.017758) translate(85.842282, 0.017758)">
                                    <path d="M1.90338265,0.634460882 L1.90338265,22.2434201" id="Line"></path>
                                    <path d="M1.90338265,151.636151 L1.90338265,173.24511" id="Line-Copy-2"></path>
                                </g>
                            </g>
                            <g id="Group-8-Copy" transform="translate(124.368210, 123.471552) rotate(45.000000) translate(-124.368210, -123.471552) translate(36.868210, 36.471552)">
                                <g id="Group-6" transform="translate(86.017758, 0.000000)">
                                    <path d="M1.90338265,0.634460882 L1.90338265,22.2434201" id="Line"></path>
                                    <path d="M1.90338265,151.636151 L1.90338265,173.24511" id="Line-Copy-2"></path>
                                </g>
                                <g id="Group-6-Copy" transform="translate(87.842282, 87.017758) rotate(90.000000) translate(-87.842282, -87.017758) translate(85.842282, 0.017758)">
                                    <path d="M1.90338265,0.634460882 L1.90338265,22.2434201" id="Line"></path>
                                    <path d="M1.90338265,151.636151 L1.90338265,173.24511" id="Line-Copy-2"></path>
                                </g>
                            </g>
                        </g>
                    </g>
                    <g id="Group-10-Copy" transform="translate(176.911294, 177.234164) rotate(11.250000) translate(-176.911294, -177.234164) translate(26.911294, 26.734164)">
                        <g id="Group-9" transform="translate(35.364389, 36.360554)">
                            <g id="Group-8" transform="translate(33.924823, 34.193745)">
                                <g id="Group-6" transform="translate(79.646962, 0.000000)">
                                    <path d="M1.75473224,0.584910746 L1.75473224,20.5062531" id="Line"></path>
                                    <path d="M1.75473224,139.793668 L1.75473224,159.715011" id="Line-Copy-2"></path>
                                </g>
                                <g id="Group-6-Copy" transform="translate(81.034466, 80.378040) rotate(90.000000) translate(-81.034466, -80.378040) translate(79.034466, -0.121960)">
                                    <path d="M1.75473224,0.584910746 L1.75473224,20.5062531" id="Line"></path>
                                    <path d="M1.75473224,139.793668 L1.75473224,159.715011" id="Line-Copy-2"></path>
                                </g>
                            </g>
                            <g id="Group-8-Copy" transform="translate(114.782807, 114.302146) rotate(45.000000) translate(-114.782807, -114.302146) translate(33.782807, 33.802146)">
                                <g id="Group-6" transform="translate(79.646962, -0.000000)">
                                    <path d="M1.75473224,0.584910746 L1.75473224,20.5062531" id="Line"></path>
                                    <path d="M1.75473224,139.793668 L1.75473224,159.715011" id="Line-Copy-2"></path>
                                </g>
                                <g id="Group-6-Copy" transform="translate(81.034466, 80.378040) rotate(90.000000) translate(-81.034466, -80.378040) translate(79.034466, -0.121960)">
                                    <path d="M1.75473224,0.584910746 L1.75473224,20.5062531" id="Line"></path>
                                    <path d="M1.75473224,139.793668 L1.75473224,159.715011" id="Line-Copy-2"></path>
                                </g>
                            </g>
                        </g>
                        <g id="Group-9-Copy" transform="translate(149.859585, 150.538303) rotate(22.500000) translate(-149.859585, -150.538303) translate(35.359585, 36.038303)">
                            <g id="Group-8" transform="translate(33.923278, 34.186539)">
                                <g id="Group-6" transform="translate(79.646962, 0.000000)">
                                    <path d="M1.75473224,0.584910746 L1.75473224,20.5062531" id="Line"></path>
                                    <path d="M1.75473224,139.793668 L1.75473224,159.715011" id="Line-Copy-2"></path>
                                </g>
                                <g id="Group-6-Copy" transform="translate(81.034466, 80.378040) rotate(90.000000) translate(-81.034466, -80.378040) translate(79.034466, -0.121960)">
                                    <path d="M1.75473224,0.584910746 L1.75473224,20.5062531" id="Line"></path>
                                    <path d="M1.75473224,139.793668 L1.75473224,159.715011" id="Line-Copy-2"></path>
                                </g>
                            </g>
                            <g id="Group-8-Copy" transform="translate(114.781262, 114.294940) rotate(45.000000) translate(-114.781262, -114.294940) translate(33.781262, 33.794940)">
                                <g id="Group-6" transform="translate(79.646962, 0.000000)">
                                    <path d="M1.75473224,0.584910746 L1.75473224,20.5062531" id="Line"></path>
                                    <path d="M1.75473224,139.793668 L1.75473224,159.715011" id="Line-Copy-2"></path>
                                </g>
                                <g id="Group-6-Copy" transform="translate(81.034466, 80.378040) rotate(90.000000) translate(-81.034466, -80.378040) translate(79.034466, -0.121960)">
                                    <path d="M1.75473224,0.584910746 L1.75473224,20.5062531" id="Line"></path>
                                    <path d="M1.75473224,139.793668 L1.75473224,159.715011" id="Line-Copy-2"></path>
                                </g>
                            </g>
                        </g>
                    </g>
                </g>
                <g id="Group-2" transform="translate(138.742768, 134.556641)">
                    <path d="M75.428872,77.6075274 L75.428872,37.7239001 C75.428872,16.8875174 58.5435439,0 37.714436,0 C16.8807484,0 0,16.8895654 0,37.7239001 L0,77.6075274 L65.2244846,77.6075274 C65.6018538,76.2829639 66.2462258,74.964065 67.2615192,73.7253488 C67.1933924,74.982137 67.3815542,76.2983943 67.7322021,77.6075274 L75.428872,77.6075274 Z" id="Combined-Shape" fill="#59B363"></path>
                    <path d="M8.8661005,20.7682116 C8.8661005,20.7682116 5.22064336,79.9217017 37.8513729,79.9217021 C70.4821025,79.9217025 66.8366454,20.7682116 66.8366454,20.7682116 L8.8661005,20.7682116 Z" id="Line" fill="#82D7EB"></path>
                    <path d="M32.791913,67.7699535 C32.791913,67.7699535 35.1146735,69.5536543 38.2572318,69.5536543 C41.3997902,69.5536543 43.7225507,67.7699535 43.7225507,67.7699535" id="Line" stroke="#59B363" stroke-width="2" stroke-linecap="round"></path>
                    <g id="Group-5" transform="translate(22.954339, 42.629487)">
                        <g id="Group-3">
                            <ellipse id="Oval-11" fill="#59B363" cx="2.76921941" cy="2.69609942" rx="2.69609942" ry="2.69609942"></ellipse>
                            <circle id="Oval-11-Copy" fill="#FFFFFF" cx="3.60075913" cy="1.8645597" r="0.831539721"></circle>
                        </g>
                        <g id="Group-4" transform="translate(22.954339, 0.000000)">
                            <ellipse id="Oval-11-Copy-2" fill="#59B363" cx="3.13481935" cy="2.69609942" rx="2.69609942" ry="2.69609942"></ellipse>
                            <ellipse id="Oval-11-Copy-3" fill="#FFFFFF" cx="3.96635907" cy="1.8645597" rx="0.831539721" ry="0.831539721"></ellipse>
                        </g>
                    </g>
                    <path d="M42.1455462,8.46518208 C35.690966,6.6860708 29.9778875,6.6860708 29.9778875,6.6860708 C29.9778875,6.6860708 6.66459339,21.4262918 1.67535506,41.0592744 C16.7188652,30.9509387 21.4262266,32.7330805 29.5971576,31.0544839 C28.1278545,32.3638765 26.5023267,33.5513996 24.7059987,34.5550859 C42.7452711,33.6063616 51.7384685,23.2465382 55.0505051,18.2532866 C55.5563492,17.9008128 56.0711417,17.5386597 56.5951388,17.1665422 C56.4339428,16.9549048 56.2684031,16.7475411 56.0987609,16.5443648 C56.4368468,15.9412363 56.5951388,15.5924575 56.5951388,15.5924575 C51.5577724,4.5425115 42.4870434,6.89611112 42.4870434,6.89611112 C42.4870434,6.89611112 42.3855038,7.47139747 42.1455462,8.46518208 Z" id="Combined-Shape" fill="#59B363"></path>
                    <path d="M54.8450722,8.41553444 C54.8450722,8.41553444 64.7413972,-0.111421598 72.7239662,10.0638721 C72.7239662,10.0638721 72.2370834,27.9104863 38.1462176,27.9104863 C40.6739275,17.8594236 54.8450722,8.41553444 54.8450722,8.41553444 Z" id="Path-90-Copy" fill="#59B363" transform="translate(55.435092, 16.490603) scale(-1, 1) translate(-55.435092, -16.490603) "></path>
                    <rect id="Rectangle-43" fill="#59B363" x="7.65144637" y="19.6751478" width="13.1167652" height="9.8375739"></rect>
                </g>
            </g>
        </g>
    </g>
</svg>