<?xml version="1.0" encoding="UTF-8" standalone="no"?>
<svg width="373px" height="164px" viewBox="0 0 373 164" version="1.1" xmlns="http://www.w3.org/2000/svg" xmlns:xlink="http://www.w3.org/1999/xlink">
    <!-- Generator: Sketch 3.8.3 (29802) - http://www.bohemiancoding.com/sketch -->
    <title>AMAT_cmyk</title>
    <desc>Created with Sketch.</desc>
    <defs></defs>
    <g id="Page-1" stroke="none" stroke-width="1" fill="none" fill-rule="evenodd">
        <g id="AMAT_cmyk">
            <path d="M7.845,120.001 L5.662,125.58 L10.017,125.58 L7.845,120.001 L7.845,120.001 Z M6.266,115.691 L9.403,115.691 L15.629,131.913 L12.419,131.913 L11.148,128.563 L4.534,128.563 L3.211,131.913 L0,131.913 L6.266,115.691 L6.266,115.691 Z" id="Fill-1" fill="#1B1A18"></path>
            <path d="M25.043,121.574 L23.18,123.435 C22.423,122.685 21.736,122.311 21.118,122.311 C20.779,122.311 20.515,122.383 20.324,122.526 C20.133,122.67 20.038,122.849 20.038,123.062 C20.038,123.224 20.098,123.373 20.219,123.51 C20.341,123.646 20.64,123.832 21.119,124.066 L22.222,124.619 C23.384,125.194 24.182,125.78 24.616,126.375 C25.051,126.973 25.268,127.673 25.268,128.475 C25.268,129.543 24.876,130.434 24.092,131.149 C23.309,131.863 22.259,132.22 20.941,132.22 C19.191,132.22 17.793,131.534 16.748,130.16 L18.601,128.134 C18.954,128.549 19.367,128.885 19.841,129.14 C20.316,129.396 20.737,129.523 21.105,129.523 C21.502,129.523 21.821,129.427 22.064,129.235 C22.307,129.045 22.428,128.824 22.428,128.574 C22.428,128.11 21.991,127.658 21.118,127.217 L20.105,126.71 C18.167,125.732 17.198,124.507 17.198,123.036 C17.198,122.088 17.563,121.275 18.294,120.604 C19.025,119.93 19.96,119.594 21.099,119.594 C21.877,119.594 22.609,119.765 23.296,120.106 C23.983,120.446 24.565,120.936 25.043,121.574" id="Fill-2" fill="#1B1A18"></path>
            <path d="M34.985,121.574 L33.122,123.435 C32.365,122.685 31.678,122.311 31.061,122.311 C30.723,122.311 30.458,122.383 30.267,122.526 C30.075,122.67 29.98,122.849 29.98,123.062 C29.98,123.224 30.041,123.373 30.162,123.51 C30.283,123.646 30.584,123.832 31.061,124.066 L32.165,124.619 C33.327,125.194 34.125,125.78 34.559,126.375 C34.993,126.973 35.21,127.673 35.21,128.475 C35.21,129.543 34.818,130.434 34.035,131.149 C33.252,131.863 32.201,132.22 30.885,132.22 C29.133,132.22 27.735,131.534 26.691,130.16 L28.544,128.134 C28.897,128.549 29.31,128.885 29.784,129.14 C30.258,129.396 30.679,129.523 31.047,129.523 C31.444,129.523 31.764,129.427 32.006,129.235 C32.249,129.045 32.37,128.824 32.37,128.574 C32.37,128.11 31.933,127.658 31.06,127.217 L30.047,126.71 C28.109,125.732 27.14,124.507 27.14,123.036 C27.14,122.088 27.505,121.275 28.236,120.604 C28.967,119.93 29.902,119.594 31.041,119.594 C31.819,119.594 32.552,119.765 33.239,120.106 C33.926,120.446 34.508,120.936 34.985,121.574" id="Fill-3" fill="#1B1A18"></path>
            <path d="M43.268,122.434 C42.335,122.434 41.557,122.759 40.936,123.41 C40.314,124.062 40.004,124.896 40.004,125.91 C40.004,126.955 40.311,127.802 40.925,128.449 C41.539,129.098 42.315,129.421 43.256,129.421 C44.197,129.421 44.98,129.094 45.605,128.439 C46.229,127.783 46.542,126.941 46.542,125.91 C46.542,124.88 46.235,124.044 45.621,123.4 C45.007,122.755 44.223,122.434 43.268,122.434 L43.268,122.434 Z M43.222,119.594 C44.354,119.594 45.418,119.877 46.415,120.442 C47.412,121.01 48.189,121.778 48.748,122.75 C49.306,123.722 49.586,124.771 49.586,125.896 C49.586,127.029 49.305,128.089 48.742,129.074 C48.18,130.061 47.413,130.832 46.442,131.386 C45.472,131.941 44.402,132.22 43.233,132.22 C41.512,132.22 40.043,131.608 38.826,130.382 C37.609,129.156 37.001,127.669 37.001,125.918 C37.001,124.041 37.688,122.479 39.063,121.227 C40.27,120.139 41.655,119.594 43.222,119.594 L43.222,119.594 Z" id="Fill-4" fill="#1B1A18"></path>
            <path d="M63.807,122.323 L61.301,123.7 C60.83,123.21 60.364,122.869 59.904,122.679 C59.445,122.488 58.905,122.393 58.287,122.393 C57.161,122.393 56.25,122.729 55.555,123.401 C54.859,124.074 54.512,124.937 54.512,125.987 C54.512,127.01 54.847,127.844 55.517,128.491 C56.188,129.139 57.068,129.462 58.159,129.462 C59.507,129.462 60.557,128.998 61.309,128.072 L63.685,129.703 C62.395,131.381 60.577,132.22 58.228,132.22 C56.114,132.22 54.458,131.594 53.262,130.344 C52.065,129.093 51.467,127.629 51.467,125.951 C51.467,124.788 51.758,123.718 52.339,122.738 C52.92,121.761 53.732,120.992 54.773,120.433 C55.815,119.873 56.979,119.594 58.266,119.594 C59.459,119.594 60.529,119.83 61.478,120.304 C62.428,120.777 63.204,121.45 63.807,122.323" id="Fill-5" fill="#1B1A18"></path>
            <path d="M66.179,131.913 L69.182,131.913 L69.182,119.9 L66.179,119.9 L66.179,131.913 Z M67.686,114.977 C68.213,114.977 68.666,115.167 69.044,115.547 C69.422,115.927 69.611,116.388 69.611,116.929 C69.611,117.463 69.424,117.917 69.049,118.294 C68.675,118.671 68.229,118.858 67.708,118.858 C67.172,118.858 66.715,118.667 66.337,118.282 C65.96,117.899 65.771,117.434 65.771,116.884 C65.771,116.358 65.958,115.908 66.331,115.536 C66.706,115.163 67.157,114.977 67.686,114.977 L67.686,114.977 Z" id="Fill-6" fill="#1B1A18"></path>
            <path d="M77.627,122.352 C76.701,122.352 75.93,122.683 75.316,123.343 C74.703,124.004 74.397,124.851 74.397,125.885 C74.397,126.926 74.709,127.782 75.333,128.454 C75.958,129.126 76.726,129.462 77.639,129.462 C78.58,129.462 79.362,129.131 79.982,128.471 C80.603,127.81 80.914,126.944 80.914,125.873 C80.914,124.825 80.603,123.976 79.982,123.326 C79.362,122.678 78.577,122.352 77.627,122.352 L77.627,122.352 Z M80.791,119.9 L83.794,119.9 L83.794,131.913 L80.791,131.913 L80.791,130.643 C80.205,131.202 79.616,131.605 79.024,131.851 C78.435,132.096 77.794,132.22 77.105,132.22 C75.557,132.22 74.218,131.618 73.088,130.415 C71.958,129.213 71.393,127.716 71.393,125.929 C71.393,124.074 71.94,122.555 73.033,121.371 C74.126,120.187 75.454,119.594 77.017,119.594 C77.735,119.594 78.41,119.73 79.041,119.998 C79.672,120.27 80.255,120.674 80.791,121.214 L80.791,119.9 L80.791,119.9 Z" id="Fill-7" fill="#1B1A18"></path>
            <polyline id="Fill-8" fill="#1B1A18" points="87.232 115.487 90.235 115.487 90.235 119.9 92.012 119.9 92.012 122.495 90.235 122.495 90.235 131.913 87.232 131.913 87.232 122.495 85.679 122.495 85.679 119.9 87.232 119.9 87.232 115.487"></polyline>
            <path d="M93.292,131.913 L96.295,131.913 L96.295,119.9 L93.292,119.9 L93.292,131.913 Z M94.798,114.977 C95.327,114.977 95.779,115.167 96.157,115.547 C96.535,115.927 96.724,116.388 96.724,116.929 C96.724,117.463 96.537,117.917 96.163,118.294 C95.789,118.671 95.34,118.858 94.82,118.858 C94.285,118.858 93.828,118.667 93.45,118.282 C93.071,117.899 92.883,117.434 92.883,116.884 C92.883,116.358 93.07,115.908 93.444,115.536 C93.818,115.163 94.27,114.977 94.798,114.977 L94.798,114.977 Z" id="Fill-9" fill="#1B1A18"></path>
            <path d="M104.732,122.434 C103.799,122.434 103.021,122.759 102.4,123.41 C101.779,124.062 101.468,124.896 101.468,125.91 C101.468,126.955 101.775,127.802 102.389,128.449 C103.002,129.098 103.779,129.421 104.721,129.421 C105.662,129.421 106.444,129.094 107.069,128.439 C107.693,127.783 108.006,126.941 108.006,125.91 C108.006,124.88 107.699,124.044 107.085,123.4 C106.471,122.755 105.687,122.434 104.732,122.434 L104.732,122.434 Z M104.686,119.594 C105.818,119.594 106.882,119.877 107.879,120.442 C108.875,121.01 109.653,121.778 110.212,122.75 C110.771,123.722 111.05,124.771 111.05,125.896 C111.05,127.029 110.769,128.089 110.206,129.074 C109.644,130.061 108.877,130.832 107.906,131.386 C106.936,131.941 105.866,132.22 104.697,132.22 C102.976,132.22 101.507,131.608 100.291,130.382 C99.074,129.156 98.465,127.669 98.465,125.918 C98.465,124.041 99.152,122.479 100.527,121.227 C101.734,120.139 103.119,119.594 104.686,119.594 L104.686,119.594 Z" id="Fill-10" fill="#1B1A18"></path>
            <path d="M113.524,119.9 L116.527,119.9 L116.527,121.131 C117.211,120.557 117.831,120.157 118.385,119.931 C118.94,119.706 119.508,119.594 120.088,119.594 C121.279,119.594 122.291,120.01 123.121,120.841 C123.819,121.547 124.168,122.593 124.168,123.976 L124.168,131.913 L121.186,131.913 L121.186,126.652 C121.186,125.22 121.121,124.268 120.993,123.796 C120.864,123.326 120.64,122.969 120.321,122.721 C120.001,122.476 119.606,122.352 119.137,122.352 C118.527,122.352 118.004,122.556 117.567,122.963 C117.13,123.372 116.828,123.937 116.66,124.656 C116.571,125.032 116.527,125.844 116.527,127.094 L116.527,131.913 L113.524,131.913 L113.524,119.9" id="Fill-11" fill="#1B1A18"></path>
            <path d="M131.958,119.9 L133.021,119.9 C133.028,118.332 133.054,117.405 133.098,117.12 C133.179,116.46 133.457,115.938 133.932,115.554 C134.407,115.169 135.079,114.977 135.947,114.977 C136.572,114.977 137.279,115.119 138.067,115.405 L138.067,117.696 C137.632,117.572 137.275,117.51 136.995,117.51 C136.642,117.51 136.383,117.583 136.221,117.73 C136.103,117.839 136.044,118.066 136.044,118.409 L136.034,119.9 L137.944,119.9 L137.944,122.454 L136.024,122.454 L136.024,131.913 L133.021,131.913 L133.021,122.454 L131.958,122.454 L131.958,119.9" id="Fill-12" fill="#1B1A18"></path>
            <path d="M145.406,122.434 C144.473,122.434 143.695,122.759 143.074,123.41 C142.453,124.062 142.142,124.896 142.142,125.91 C142.142,126.955 142.449,127.802 143.063,128.449 C143.676,129.098 144.454,129.421 145.395,129.421 C146.335,129.421 147.118,129.094 147.743,128.439 C148.367,127.783 148.68,126.941 148.68,125.91 C148.68,124.88 148.373,124.044 147.759,123.4 C147.145,122.755 146.361,122.434 145.406,122.434 L145.406,122.434 Z M145.36,119.594 C146.492,119.594 147.556,119.877 148.553,120.442 C149.549,121.01 150.327,121.778 150.886,122.75 C151.444,123.722 151.724,124.771 151.724,125.896 C151.724,127.029 151.443,128.089 150.88,129.074 C150.318,130.061 149.551,130.832 148.58,131.386 C147.61,131.941 146.54,132.22 145.371,132.22 C143.65,132.22 142.181,131.608 140.964,130.382 C139.748,129.156 139.139,127.669 139.139,125.918 C139.139,124.041 139.826,122.479 141.201,121.227 C142.408,120.139 143.793,119.594 145.36,119.594 L145.36,119.594 Z" id="Fill-13" fill="#1B1A18"></path>
            <path d="M153.483,119.9 L156.078,119.9 L156.078,121.416 C156.358,120.819 156.729,120.366 157.192,120.058 C157.656,119.748 158.163,119.594 158.715,119.594 C159.104,119.594 159.513,119.697 159.939,119.902 L159.002,122.493 C158.648,122.317 158.359,122.23 158.13,122.23 C157.667,122.23 157.276,122.517 156.956,123.091 C156.636,123.664 156.476,124.791 156.476,126.47 L156.487,127.055 L156.487,131.913 L153.483,131.913 L153.483,119.9" id="Fill-14" fill="#1B1A18"></path>
            <polyline id="Fill-15" fill="#1B1A18" points="169.688 115.691 172.629 115.691 176.401 127.006 180.22 115.691 183.188 115.691 185.932 131.913 182.948 131.913 181.202 121.669 177.744 131.913 175.036 131.913 171.621 121.669 169.815 131.913 166.83 131.913 169.688 115.691"></polyline>
            <path d="M188.065,119.9 L191.11,119.9 L191.11,125.689 C191.11,126.815 191.187,127.596 191.343,128.035 C191.499,128.472 191.75,128.813 192.094,129.057 C192.439,129.299 192.863,129.421 193.367,129.421 C193.872,129.421 194.299,129.302 194.652,129.062 C195.004,128.821 195.266,128.471 195.436,128.007 C195.562,127.661 195.625,126.921 195.625,125.786 L195.625,119.9 L198.627,119.9 L198.627,124.988 C198.627,127.087 198.461,128.522 198.131,129.294 C197.725,130.236 197.128,130.959 196.341,131.464 C195.552,131.968 194.55,132.22 193.335,132.22 C192.017,132.22 190.952,131.925 190.136,131.337 C189.323,130.747 188.751,129.928 188.419,128.875 C188.183,128.147 188.065,126.822 188.065,124.9 L188.065,119.9" id="Fill-16" fill="#1B1A18"></path>
            <polygon id="Fill-17" fill="#1B1A18" points="201.3 131.913 204.303 131.913 204.303 115.283 201.3 115.283"></polygon>
            <polyline id="Fill-18" fill="#1B1A18" points="207.434 115.487 210.438 115.487 210.438 119.9 212.215 119.9 212.215 122.495 210.438 122.495 210.438 131.913 207.434 131.913 207.434 122.495 205.881 122.495 205.881 119.9 207.434 119.9 207.434 115.487"></polyline>
            <path d="M213.495,131.913 L216.498,131.913 L216.498,119.9 L213.495,119.9 L213.495,131.913 Z M215.001,114.977 C215.529,114.977 215.982,115.167 216.36,115.547 C216.738,115.927 216.927,116.388 216.927,116.929 C216.927,117.463 216.739,117.917 216.365,118.294 C215.991,118.671 215.544,118.858 215.023,118.858 C214.488,118.858 214.031,118.667 213.653,118.282 C213.275,117.899 213.086,117.434 213.086,116.884 C213.086,116.358 213.272,115.908 213.648,115.536 C214.021,115.163 214.473,114.977 215.001,114.977 L215.001,114.977 Z" id="Fill-19" fill="#1B1A18"></path>
            <path d="M231.007,122.323 L228.5,123.7 C228.03,123.21 227.565,122.869 227.104,122.679 C226.644,122.488 226.105,122.393 225.487,122.393 C224.361,122.393 223.449,122.729 222.754,123.401 C222.059,124.074 221.711,124.937 221.711,125.987 C221.711,127.01 222.047,127.844 222.716,128.491 C223.388,129.139 224.268,129.462 225.358,129.462 C226.707,129.462 227.757,128.998 228.508,128.072 L230.884,129.703 C229.596,131.381 227.777,132.22 225.428,132.22 C223.314,132.22 221.659,131.594 220.462,130.344 C219.266,129.093 218.667,127.629 218.667,125.951 C218.667,124.788 218.958,123.718 219.54,122.738 C220.121,121.761 220.931,120.992 221.973,120.433 C223.014,119.873 224.178,119.594 225.466,119.594 C226.658,119.594 227.729,119.83 228.678,120.304 C229.626,120.777 230.403,121.45 231.007,122.323" id="Fill-20" fill="#1B1A18"></path>
            <path d="M233.707,119.9 L236.75,119.9 L236.75,125.689 C236.75,126.815 236.829,127.596 236.984,128.035 C237.14,128.472 237.39,128.813 237.735,129.057 C238.08,129.299 238.503,129.421 239.008,129.421 C239.512,129.421 239.94,129.302 240.292,129.062 C240.645,128.821 240.907,128.471 241.077,128.007 C241.203,127.661 241.265,126.921 241.265,125.786 L241.265,119.9 L244.269,119.9 L244.269,124.988 C244.269,127.087 244.103,128.522 243.772,129.294 C243.366,130.236 242.77,130.959 241.982,131.464 C241.193,131.968 240.192,132.22 238.976,132.22 C237.659,132.22 236.592,131.925 235.778,131.337 C234.964,130.747 234.392,129.928 234.06,128.875 C233.824,128.147 233.707,126.822 233.707,124.9 L233.707,119.9" id="Fill-21" fill="#1B1A18"></path>
            <polygon id="Fill-22" fill="#1B1A18" points="246.941 131.913 249.945 131.913 249.945 115.283 246.941 115.283"></polygon>
            <polyline id="Fill-23" fill="#1B1A18" points="253.074 115.487 256.078 115.487 256.078 119.9 257.855 119.9 257.855 122.495 256.078 122.495 256.078 131.913 253.074 131.913 253.074 122.495 251.522 122.495 251.522 119.9 253.074 119.9 253.074 115.487"></polyline>
            <path d="M259.461,119.9 L262.505,119.9 L262.505,125.689 C262.505,126.815 262.583,127.596 262.739,128.035 C262.895,128.472 263.145,128.813 263.49,129.057 C263.834,129.299 264.258,129.421 264.763,129.421 C265.267,129.421 265.695,129.302 266.047,129.062 C266.4,128.821 266.662,128.471 266.832,128.007 C266.958,127.661 267.02,126.921 267.02,125.786 L267.02,119.9 L270.024,119.9 L270.024,124.988 C270.024,127.087 269.858,128.522 269.527,129.294 C269.121,130.236 268.525,130.959 267.737,131.464 C266.948,131.968 265.947,132.22 264.731,132.22 C263.414,132.22 262.347,131.925 261.533,131.337 C260.719,130.747 260.147,129.928 259.815,128.875 C259.579,128.147 259.461,126.822 259.461,124.9 L259.461,119.9" id="Fill-24" fill="#1B1A18"></path>
            <path d="M272.329,119.9 L274.923,119.9 L274.923,121.416 C275.203,120.819 275.574,120.366 276.037,120.058 C276.501,119.748 277.008,119.594 277.56,119.594 C277.949,119.594 278.358,119.697 278.785,119.902 L277.847,122.493 C277.494,122.317 277.204,122.23 276.975,122.23 C276.511,122.23 276.121,122.517 275.8,123.091 C275.481,123.664 275.322,124.791 275.322,126.47 L275.332,127.055 L275.332,131.913 L272.329,131.913 L272.329,119.9" id="Fill-25" fill="#1B1A18"></path>
            <path d="M285.953,122.352 C285.026,122.352 284.255,122.683 283.641,123.343 C283.029,124.004 282.722,124.851 282.722,125.885 C282.722,126.926 283.034,127.782 283.658,128.454 C284.283,129.126 285.051,129.462 285.964,129.462 C286.907,129.462 287.688,129.131 288.308,128.471 C288.929,127.81 289.24,126.944 289.24,125.873 C289.24,124.825 288.929,123.976 288.308,123.326 C287.688,122.678 286.903,122.352 285.953,122.352 L285.953,122.352 Z M289.117,119.9 L292.12,119.9 L292.12,131.913 L289.117,131.913 L289.117,130.643 C288.53,131.202 287.941,131.605 287.351,131.851 C286.759,132.096 286.12,132.22 285.43,132.22 C283.881,132.22 282.543,131.618 281.414,130.415 C280.284,129.213 279.719,127.716 279.719,125.929 C279.719,124.074 280.265,122.555 281.359,121.371 C282.452,120.187 283.78,119.594 285.342,119.594 C286.061,119.594 286.737,119.73 287.368,119.998 C287.999,120.27 288.581,120.674 289.117,121.214 L289.117,119.9 L289.117,119.9 Z" id="Fill-26" fill="#1B1A18"></path>
            <polygon id="Fill-27" fill="#1B1A18" points="294.842 131.913 297.845 131.913 297.845 115.283 294.842 115.283"></polygon>
            <path d="M313.785,120.001 L311.601,125.58 L315.957,125.58 L313.785,120.001 L313.785,120.001 Z M312.207,115.691 L315.342,115.691 L321.569,131.913 L318.358,131.913 L317.087,128.563 L310.473,128.563 L309.151,131.913 L305.94,131.913 L312.207,115.691 L312.207,115.691 Z" id="Fill-28" fill="#1B1A18"></path>
            <path d="M322.199,119.9 L323.26,119.9 C323.268,118.332 323.293,117.405 323.337,117.12 C323.419,116.46 323.698,115.938 324.172,115.554 C324.646,115.169 325.318,114.977 326.187,114.977 C326.813,114.977 327.519,115.119 328.307,115.405 L328.307,117.696 C327.873,117.572 327.515,117.51 327.235,117.51 C326.882,117.51 326.625,117.583 326.46,117.73 C326.343,117.839 326.285,118.066 326.285,118.409 L326.274,119.9 L328.184,119.9 L328.184,122.454 L326.264,122.454 L326.264,131.913 L323.26,131.913 L323.26,122.454 L322.199,122.454 L322.199,119.9" id="Fill-29" fill="#1B1A18"></path>
            <path d="M328.522,119.9 L329.583,119.9 C329.591,118.332 329.617,117.405 329.661,117.12 C329.743,116.46 330.021,115.938 330.496,115.554 C330.969,115.169 331.641,114.977 332.51,114.977 C333.136,114.977 333.842,115.119 334.63,115.405 L334.63,117.696 C334.196,117.572 333.838,117.51 333.557,117.51 C333.206,117.51 332.947,117.583 332.784,117.73 C332.667,117.839 332.608,118.066 332.608,118.409 L332.597,119.9 L334.507,119.9 L334.507,122.454 L332.587,122.454 L332.587,131.913 L329.583,131.913 L329.583,122.454 L328.522,122.454 L328.522,119.9" id="Fill-30" fill="#1B1A18"></path>
            <path d="M341.977,122.352 C341.05,122.352 340.281,122.683 339.667,123.343 C339.053,124.004 338.747,124.851 338.747,125.885 C338.747,126.926 339.058,127.782 339.683,128.454 C340.307,129.126 341.076,129.462 341.989,129.462 C342.931,129.462 343.712,129.131 344.333,128.471 C344.954,127.81 345.264,126.944 345.264,125.873 C345.264,124.825 344.954,123.976 344.333,123.326 C343.712,122.678 342.927,122.352 341.977,122.352 L341.977,122.352 Z M345.141,119.9 L348.145,119.9 L348.145,131.913 L345.141,131.913 L345.141,130.643 C344.554,131.202 343.965,131.605 343.375,131.851 C342.785,132.096 342.145,132.22 341.456,132.22 C339.906,132.22 338.568,131.618 337.438,130.415 C336.308,129.213 335.744,127.716 335.744,125.929 C335.744,124.074 336.291,122.555 337.383,121.371 C338.476,120.187 339.804,119.594 341.367,119.594 C342.085,119.594 342.761,119.73 343.392,119.998 C344.023,120.27 344.605,120.674 345.141,121.214 L345.141,119.9 L345.141,119.9 Z" id="Fill-31" fill="#1B1A18"></path>
            <path d="M350.867,131.913 L353.871,131.913 L353.871,119.9 L350.867,119.9 L350.867,131.913 Z M352.374,114.977 C352.901,114.977 353.354,115.167 353.732,115.547 C354.11,115.927 354.299,116.388 354.299,116.929 C354.299,117.463 354.112,117.917 353.738,118.294 C353.364,118.671 352.917,118.858 352.395,118.858 C351.861,118.858 351.403,118.667 351.025,118.282 C350.647,117.899 350.458,117.434 350.458,116.884 C350.458,116.358 350.645,115.908 351.02,115.536 C351.393,115.163 351.845,114.977 352.374,114.977 L352.374,114.977 Z" id="Fill-32" fill="#1B1A18"></path>
            <path d="M355.917,119.9 L358.512,119.9 L358.512,121.416 C358.792,120.819 359.162,120.366 359.626,120.058 C360.088,119.748 360.597,119.594 361.149,119.594 C361.538,119.594 361.947,119.697 362.373,119.902 L361.436,122.493 C361.083,122.317 360.792,122.23 360.564,122.23 C360.1,122.23 359.709,122.517 359.389,123.091 C359.07,123.664 358.909,124.791 358.909,126.47 L358.92,127.055 L358.92,131.913 L355.917,131.913 L355.917,119.9" id="Fill-33" fill="#1B1A18"></path>
            <path d="M371.194,121.574 L369.331,123.435 C368.574,122.685 367.886,122.311 367.269,122.311 C366.93,122.311 366.666,122.383 366.476,122.526 C366.284,122.67 366.188,122.849 366.188,123.062 C366.188,123.224 366.249,123.373 366.371,123.51 C366.491,123.646 366.792,123.832 367.27,124.066 L368.374,124.619 C369.535,125.194 370.333,125.78 370.767,126.375 C371.202,126.973 371.418,127.673 371.418,128.475 C371.418,129.543 371.027,130.434 370.243,131.149 C369.459,131.863 368.409,132.22 367.092,132.22 C365.341,132.22 363.944,131.534 362.899,130.16 L364.751,128.134 C365.104,128.549 365.518,128.885 365.993,129.14 C366.466,129.396 366.887,129.523 367.254,129.523 C367.653,129.523 367.972,129.427 368.214,129.235 C368.458,129.045 368.579,128.824 368.579,128.574 C368.579,128.11 368.142,127.658 367.269,127.217 L366.256,126.71 C364.318,125.732 363.348,124.507 363.348,123.036 C363.348,122.088 363.713,121.275 364.446,120.604 C365.176,119.93 366.111,119.594 367.25,119.594 C368.028,119.594 368.76,119.765 369.447,120.106 C370.134,120.446 370.716,120.936 371.194,121.574" id="Fill-34" fill="#1B1A18"></path>
            <path d="M91.46,159.608 L94.463,159.608 L94.463,147.595 L91.46,147.595 L91.46,159.608 Z M92.967,142.671 C93.494,142.671 93.947,142.861 94.325,143.24 C94.704,143.621 94.893,144.082 94.893,144.622 C94.893,145.155 94.705,145.611 94.331,145.988 C93.956,146.365 93.509,146.553 92.989,146.553 C92.453,146.553 91.997,146.361 91.619,145.977 C91.24,145.594 91.051,145.128 91.051,144.578 C91.051,144.053 91.239,143.603 91.613,143.231 C91.987,142.858 92.438,142.671 92.967,142.671 L92.967,142.671 Z" id="Fill-35" fill="#1B1A18"></path>
            <path d="M97.225,147.595 L100.229,147.595 L100.229,148.825 C100.912,148.251 101.531,147.85 102.086,147.625 C102.641,147.4 103.208,147.288 103.79,147.288 C104.98,147.288 105.991,147.704 106.822,148.535 C107.52,149.242 107.869,150.287 107.869,151.67 L107.869,159.608 L104.887,159.608 L104.887,154.347 C104.887,152.914 104.822,151.962 104.694,151.491 C104.565,151.021 104.341,150.661 104.022,150.416 C103.703,150.169 103.308,150.046 102.838,150.046 C102.229,150.046 101.706,150.25 101.269,150.659 C100.833,151.066 100.529,151.631 100.361,152.351 C100.272,152.727 100.229,153.538 100.229,154.788 L100.229,159.608 L97.225,159.608 L97.225,147.595" id="Fill-36" fill="#1B1A18"></path>
            <polyline id="Fill-37" fill="#1B1A18" points="115.823 143.386 124.792 143.386 124.792 146.43 121.83 146.43 121.83 159.608 118.704 159.608 118.704 146.43 115.823 146.43 115.823 143.386"></polyline>
            <path d="M125.885,147.595 L128.479,147.595 L128.479,149.11 C128.759,148.514 129.13,148.061 129.594,147.752 C130.057,147.442 130.565,147.288 131.116,147.288 C131.506,147.288 131.915,147.392 132.341,147.597 L131.404,150.19 C131.05,150.012 130.76,149.924 130.532,149.924 C130.068,149.924 129.677,150.211 129.357,150.784 C129.038,151.358 128.877,152.485 128.877,154.164 L128.888,154.749 L128.888,159.608 L125.885,159.608 L125.885,147.595" id="Fill-38" fill="#1B1A18"></path>
            <path d="M139.511,150.046 C138.583,150.046 137.813,150.377 137.199,151.037 C136.586,151.698 136.279,152.545 136.279,153.579 C136.279,154.62 136.592,155.477 137.216,156.149 C137.84,156.82 138.609,157.156 139.522,157.156 C140.463,157.156 141.245,156.825 141.865,156.165 C142.486,155.504 142.796,154.638 142.796,153.567 C142.796,152.52 142.486,151.67 141.865,151.021 C141.245,150.37 140.46,150.046 139.511,150.046 L139.511,150.046 Z M142.674,147.595 L145.677,147.595 L145.677,159.608 L142.674,159.608 L142.674,158.338 C142.087,158.897 141.499,159.299 140.908,159.545 C140.317,159.791 139.677,159.914 138.988,159.914 C137.439,159.914 136.101,159.313 134.971,158.109 C133.841,156.907 133.276,155.411 133.276,153.623 C133.276,151.769 133.823,150.25 134.916,149.066 C136.009,147.881 137.336,147.288 138.899,147.288 C139.619,147.288 140.293,147.424 140.924,147.692 C141.555,147.964 142.138,148.368 142.674,148.907 L142.674,147.595 L142.674,147.595 Z" id="Fill-39" fill="#1B1A18"></path>
            <path d="M148.747,147.595 L151.75,147.595 L151.75,148.825 C152.434,148.251 153.053,147.85 153.608,147.625 C154.163,147.4 154.731,147.288 155.312,147.288 C156.502,147.288 157.513,147.704 158.343,148.535 C159.042,149.242 159.391,150.287 159.391,151.67 L159.391,159.608 L156.408,159.608 L156.408,154.347 C156.408,152.914 156.344,151.962 156.215,151.491 C156.087,151.021 155.863,150.661 155.544,150.416 C155.224,150.169 154.83,150.046 154.36,150.046 C153.75,150.046 153.227,150.25 152.79,150.659 C152.354,151.066 152.051,151.631 151.882,152.351 C151.794,152.727 151.75,153.538 151.75,154.788 L151.75,159.608 L148.747,159.608 L148.747,147.595" id="Fill-40" fill="#1B1A18"></path>
            <path d="M169.643,149.27 L167.779,151.129 C167.022,150.381 166.335,150.005 165.719,150.005 C165.38,150.005 165.115,150.077 164.924,150.221 C164.733,150.364 164.638,150.543 164.638,150.756 C164.638,150.918 164.698,151.067 164.82,151.204 C164.941,151.341 165.241,151.526 165.719,151.763 L166.823,152.314 C167.984,152.889 168.783,153.474 169.217,154.071 C169.651,154.667 169.868,155.367 169.868,156.169 C169.868,157.237 169.476,158.129 168.692,158.843 C167.909,159.557 166.859,159.914 165.542,159.914 C163.791,159.914 162.393,159.227 161.349,157.855 L163.201,155.828 C163.554,156.243 163.967,156.579 164.442,156.834 C164.916,157.09 165.337,157.217 165.705,157.217 C166.102,157.217 166.421,157.121 166.664,156.931 C166.907,156.739 167.028,156.519 167.028,156.269 C167.028,155.805 166.591,155.353 165.717,154.911 L164.705,154.404 C162.767,153.426 161.798,152.201 161.798,150.731 C161.798,149.782 162.163,148.971 162.894,148.297 C163.625,147.625 164.56,147.288 165.698,147.288 C166.477,147.288 167.21,147.459 167.897,147.8 C168.583,148.141 169.166,148.631 169.643,149.27" id="Fill-41" fill="#1B1A18"></path>
            <path d="M178.407,150.046 C177.465,150.046 176.683,150.37 176.063,151.021 C175.442,151.67 175.132,152.52 175.132,153.567 C175.132,154.638 175.442,155.504 176.063,156.165 C176.683,156.825 177.465,157.156 178.407,157.156 C179.32,157.156 180.088,156.82 180.712,156.149 C181.337,155.477 181.649,154.62 181.649,153.579 C181.649,152.545 181.343,151.698 180.729,151.037 C180.116,150.377 179.342,150.046 178.407,150.046 L178.407,150.046 Z M175.254,147.595 L175.254,148.907 C175.796,148.368 176.383,147.964 177.013,147.692 C177.644,147.424 178.318,147.288 179.035,147.288 C180.596,147.288 181.922,147.881 183.014,149.066 C184.106,150.25 184.652,151.769 184.652,153.623 C184.652,155.411 184.088,156.907 182.959,158.109 C181.831,159.313 180.494,159.914 178.947,159.914 C178.259,159.914 177.618,159.791 177.024,159.545 C176.43,159.299 175.84,158.895 175.254,158.336 L175.254,164 L172.251,164 L172.251,147.595 L175.254,147.595 L175.254,147.595 Z" id="Fill-42" fill="#1B1A18"></path>
            <polygon id="Fill-43" fill="#1B1A18" points="186.823 159.608 189.827 159.608 189.827 142.978 186.823 142.978"></polygon>
            <path d="M198.272,150.046 C197.343,150.046 196.574,150.377 195.96,151.037 C195.346,151.698 195.04,152.545 195.04,153.579 C195.04,154.62 195.351,155.477 195.976,156.149 C196.6,156.82 197.369,157.156 198.282,157.156 C199.224,157.156 200.005,156.825 200.626,156.165 C201.247,155.504 201.557,154.638 201.557,153.567 C201.557,152.52 201.247,151.67 200.626,151.021 C200.005,150.37 199.22,150.046 198.272,150.046 L198.272,150.046 Z M201.434,147.595 L204.438,147.595 L204.438,159.608 L201.434,159.608 L201.434,158.338 C200.847,158.897 200.258,159.299 199.668,159.545 C199.078,159.791 198.438,159.914 197.748,159.914 C196.201,159.914 194.861,159.313 193.731,158.109 C192.601,156.907 192.037,155.411 192.037,153.623 C192.037,151.769 192.583,150.25 193.676,149.066 C194.769,147.881 196.097,147.288 197.66,147.288 C198.378,147.288 199.053,147.424 199.684,147.692 C200.315,147.964 200.899,148.368 201.434,148.907 L201.434,147.595 L201.434,147.595 Z" id="Fill-44" fill="#1B1A18"></path>
            <path d="M207.507,147.595 L210.51,147.595 L210.51,148.825 C211.194,148.251 211.813,147.85 212.369,147.625 C212.922,147.4 213.491,147.288 214.072,147.288 C215.262,147.288 216.273,147.704 217.104,148.535 C217.803,149.242 218.151,150.287 218.151,151.67 L218.151,159.608 L215.168,159.608 L215.168,154.347 C215.168,152.914 215.103,151.962 214.976,151.491 C214.848,151.021 214.624,150.661 214.304,150.416 C213.985,150.169 213.59,150.046 213.121,150.046 C212.511,150.046 211.988,150.25 211.551,150.659 C211.115,151.066 210.811,151.631 210.642,152.351 C210.555,152.727 210.51,153.538 210.51,154.788 L210.51,159.608 L207.507,159.608 L207.507,147.595" id="Fill-45" fill="#1B1A18"></path>
            <polyline id="Fill-46" fill="#1B1A18" points="221.437 143.182 224.44 143.182 224.44 147.595 226.217 147.595 226.217 150.19 224.44 150.19 224.44 159.608 221.437 159.608 221.437 150.19 219.884 150.19 219.884 147.595 221.437 147.595 221.437 143.182"></polyline>
            <path d="M233.526,150.046 C232.599,150.046 231.83,150.377 231.215,151.037 C230.602,151.698 230.295,152.545 230.295,153.579 C230.295,154.62 230.607,155.477 231.232,156.149 C231.856,156.82 232.625,157.156 233.538,157.156 C234.48,157.156 235.261,156.825 235.882,156.165 C236.502,155.504 236.813,154.638 236.813,153.567 C236.813,152.52 236.502,151.67 235.882,151.021 C235.261,150.37 234.476,150.046 233.526,150.046 L233.526,150.046 Z M236.691,147.595 L239.694,147.595 L239.694,159.608 L236.691,159.608 L236.691,158.338 C236.103,158.897 235.514,159.299 234.924,159.545 C234.333,159.791 233.694,159.914 233.004,159.914 C231.456,159.914 230.117,159.313 228.987,158.109 C227.857,156.907 227.292,155.411 227.292,153.623 C227.292,151.769 227.839,150.25 228.932,149.066 C230.025,147.881 231.353,147.288 232.916,147.288 C233.635,147.288 234.31,147.424 234.941,147.692 C235.572,147.964 236.154,148.368 236.691,148.907 L236.691,147.595 L236.691,147.595 Z" id="Fill-47" fill="#1B1A18"></path>
            <polyline id="Fill-48" fill="#1B1A18" points="243.131 143.182 246.134 143.182 246.134 147.595 247.912 147.595 247.912 150.19 246.134 150.19 246.134 159.608 243.131 159.608 243.131 150.19 241.579 150.19 241.579 147.595 243.131 147.595 243.131 143.182"></polyline>
            <path d="M249.193,159.608 L252.196,159.608 L252.196,147.595 L249.193,147.595 L249.193,159.608 Z M250.699,142.671 C251.226,142.671 251.68,142.861 252.058,143.24 C252.436,143.621 252.625,144.082 252.625,144.622 C252.625,145.155 252.437,145.611 252.063,145.988 C251.689,146.365 251.242,146.553 250.721,146.553 C250.185,146.553 249.729,146.361 249.351,145.977 C248.973,145.594 248.784,145.128 248.784,144.578 C248.784,144.053 248.971,143.603 249.344,143.231 C249.72,142.858 250.17,142.671 250.699,142.671 L250.699,142.671 Z" id="Fill-49" fill="#1B1A18"></path>
            <path d="M260.632,150.128 C259.699,150.128 258.921,150.453 258.3,151.105 C257.678,151.756 257.369,152.59 257.369,153.605 C257.369,154.65 257.674,155.496 258.289,156.144 C258.903,156.791 259.679,157.115 260.621,157.115 C261.562,157.115 262.344,156.788 262.969,156.133 C263.593,155.478 263.906,154.635 263.906,153.605 C263.906,152.574 263.599,151.738 262.986,151.093 C262.372,150.449 261.587,150.128 260.632,150.128 L260.632,150.128 Z M260.586,147.288 C261.717,147.288 262.783,147.571 263.778,148.139 C264.776,148.704 265.553,149.474 266.113,150.444 C266.67,151.416 266.95,152.465 266.95,153.59 C266.95,154.724 266.669,155.783 266.106,156.769 C265.544,157.755 264.777,158.524 263.806,159.081 C262.836,159.636 261.766,159.914 260.596,159.914 C258.876,159.914 257.407,159.301 256.191,158.076 C254.973,156.852 254.365,155.363 254.365,153.612 C254.365,151.735 255.052,150.173 256.427,148.921 C257.634,147.832 259.019,147.288 260.586,147.288 L260.586,147.288 Z" id="Fill-50" fill="#1B1A18"></path>
            <path d="M269.423,147.595 L272.426,147.595 L272.426,148.825 C273.11,148.251 273.729,147.85 274.285,147.625 C274.838,147.4 275.407,147.288 275.988,147.288 C277.178,147.288 278.189,147.704 279.02,148.535 C279.719,149.242 280.068,150.287 280.068,151.67 L280.068,159.608 L277.084,159.608 L277.084,154.347 C277.084,152.914 277.02,151.962 276.892,151.491 C276.764,151.021 276.54,150.661 276.22,150.416 C275.901,150.169 275.506,150.046 275.037,150.046 C274.427,150.046 273.904,150.25 273.467,150.659 C273.031,151.066 272.727,151.631 272.558,152.351 C272.471,152.727 272.426,153.538 272.426,154.788 L272.426,159.608 L269.423,159.608 L269.423,147.595" id="Fill-51" fill="#1B1A18"></path>
            <polyline id="Fill-52" fill="#1B1A18" points="316.045 10.54 316.045 1.632 371.125 1.632 371.125 10.54 348.243 10.54 348.243 91.279 338.927 91.279 338.927 10.54 316.045 10.54"></polyline>
            <polygon id="Stroke-53" stroke="#1B1A18" stroke-width="1.84" points="316.045 10.54 316.045 1.632 371.125 1.632 371.125 10.54 348.243 10.54 348.243 91.279 338.927 91.279 338.927 10.54"></polygon>
            <polyline id="Fill-55" points="27.298 63.572 79.641 63.695 78.598 61.154 27.556 62.937 27.298 63.572"></polyline>
            <polyline id="Fill-57" points="27.042 64.195 80.701 66.269 79.641 63.695 27.298 63.572 27.042 64.195"></polyline>
            <polyline id="Fill-59" points="26.806 64.779 81.738 68.795 80.701 66.269 27.042 64.195 26.806 64.779"></polyline>
            <polyline id="Fill-61" points="78.598 61.154 77.496 58.47 27.797 62.345 27.794 62.353 27.556 62.937 78.598 61.154"></polyline>
            <polyline id="Fill-63" fill="#1B1A18" points="53.459 22.199 12.707 92.358 0.502 92.358 53.644 0.841 105.921 92.358 94.069 92.358 53.459 22.199"></polyline>
            <polyline id="Fill-64" fill="#1B1A18" points="275.135 22.199 234.384 92.358 222.18 92.358 275.322 0.841 327.597 92.358 315.745 92.358 275.135 22.199"></polyline>
            <polygon id="Fill-65" fill="#1B1A18" points="246.224 68.578 302.611 68.578 302.611 59.67 246.224 59.67"></polygon>
            <polygon id="Stroke-66" stroke="#1B1A18" stroke-width="1.84" points="246.224 68.578 302.611 68.578 302.611 59.67 246.224 59.67"></polygon>
            <polyline id="Fill-67" fill="#1B1A18" points="109.91 91.65 125.291 2.955 163.918 74.404 202.379 2.955 217.687 91.65 209.031 91.65 197.659 30.767 163.903 90.342 129.699 30.289 118.475 91.65 109.91 91.65"></polyline>
            <polygon id="Stroke-68" stroke="#1B1A18" stroke-width="1.841" points="109.91 91.65 125.291 2.955 163.918 74.404 202.379 2.955 217.687 91.65 209.031 91.65 197.659 30.767 163.903 90.342 129.699 30.289 118.475 91.65"></polygon>
        </g>
    </g>
</svg>