<?xml version="1.0" encoding="UTF-8" standalone="no"?>
<svg width="49px" height="49px" viewBox="0 0 49 49" version="1.1" xmlns="http://www.w3.org/2000/svg" xmlns:xlink="http://www.w3.org/1999/xlink">
    <!-- Generator: Sketch 3.8.3 (29802) - http://www.bohemiancoding.com/sketch -->
    <title>organ-cornea@2x</title>
    <desc>Created with Sketch.</desc>
    <defs>
        <polygon id="path-1" points="0 0.690978261 0 48.9127174 48.2222826 48.9127174 48.2222826 0.690978261 1.17848062e-19 0.690978261"></polygon>
    </defs>
    <g id="Page-1" stroke="none" stroke-width="1" fill="none" fill-rule="evenodd">
        <g id="Types-of-donation" transform="translate(-609.000000, -1781.000000)">
            <g id="organ-cornea" transform="translate(609.000000, 1780.000000)">
                <g id="Group-3" transform="translate(0.000000, 0.396196)">
                    <mask id="mask-2" fill="white">
                        <use xlink:href="#path-1"></use>
                    </mask>
                    <g id="Clip-2"></g>
                    <path d="M48.2222826,24.8018478 C48.2222826,38.1181522 37.4277174,48.9127174 24.111413,48.9127174 C10.7951087,48.9127174 -0.000543478261,38.1181522 -0.000543478261,24.8018478 C-0.000543478261,11.4855435 10.7951087,0.690978261 24.111413,0.690978261 C37.4277174,0.690978261 48.2222826,11.4855435 48.2222826,24.8018478" id="Fill-1" fill="#85D3E7" mask="url(#mask-2)"></path>
                </g>
                <path d="M33.9920652,25.1980435 C33.9920652,30.6556522 29.5681522,35.0784783 24.1116304,35.0784783 C18.6540217,35.0784783 14.2301087,30.6556522 14.2301087,25.1980435 C14.2301087,19.7404348 18.6540217,15.3176087 24.1116304,15.3176087 C29.5681522,15.3176087 33.9920652,19.7404348 33.9920652,25.1980435" id="Fill-4" fill="#58B362"></path>
                <path d="M36.1697826,18.7871739 C36.1697826,21.5034783 33.9676087,23.7056522 31.2513043,23.7056522 C28.535,23.7056522 26.3328261,21.5034783 26.3328261,18.7871739 C26.3328261,16.0708696 28.535,13.8686957 31.2513043,13.8686957 C33.9676087,13.8686957 36.1697826,16.0708696 36.1697826,18.7871739" id="Fill-6" fill="#FEFEFE"></path>
            </g>
        </g>
    </g>
</svg>