<?xml version="1.0" encoding="UTF-8" standalone="no"?>
<svg width="75px" height="48px" viewBox="0 0 75 48" version="1.1" xmlns="http://www.w3.org/2000/svg" xmlns:xlink="http://www.w3.org/1999/xlink">
    <!-- Generator: Sketch 3.8.3 (29802) - http://www.bohemiancoding.com/sketch -->
    <title>organ-intestines@2x</title>
    <desc>Created with Sketch.</desc>
    <defs>
        <polygon id="path-1" points="74.3123734 47.1563924 0 47.1563924 0 0.000379746836 74.3123734 0.000379746836"></polygon>
    </defs>
    <g id="Page-1" stroke="none" stroke-width="1" fill="none" fill-rule="evenodd">
        <g id="Types-of-donation" transform="translate(-841.000000, -1530.000000)">
            <g id="organ-intestines" transform="translate(841.000000, 1530.000000)">
                <mask id="mask-2" fill="white">
                    <use xlink:href="#path-1"></use>
                </mask>
                <g id="Clip-2"></g>
                <path d="M74.1813608,38.0618354 C74.1813608,36.5058228 73.0895886,35.2061392 71.6313608,34.8824051 C71.179462,33.6244937 69.979462,32.7235443 68.5668038,32.7235443 C68.0408544,32.7235443 67.5462342,32.8507595 67.1066772,33.0710127 C66.5854747,32.7168987 65.9560443,32.5099367 65.2781962,32.5099367 C64.6791456,32.5099367 64.1199684,32.6741772 63.6376899,32.9561392 C63.1554114,32.6741772 62.5962342,32.5099367 61.9971835,32.5099367 C61.3981329,32.5099367 60.8380063,32.6741772 60.3557278,32.9561392 C59.8734494,32.6741772 59.3142722,32.5099367 58.7152215,32.5099367 C58.1161709,32.5099367 57.5569937,32.6741772 57.0747152,32.9561392 C56.5924367,32.6741772 56.0323101,32.5099367 55.4332595,32.5099367 C54.8342089,32.5099367 54.2750316,32.6741772 53.7927532,32.9561392 C53.3104747,32.6741772 52.7512975,32.5099367 52.1522468,32.5099367 C51.5531962,32.5099367 50.994019,32.6741772 50.5117405,32.9561392 C50.0285127,32.6741772 49.4693354,32.5099367 48.8702848,32.5099367 C48.2712342,32.5099367 47.712057,32.6741772 47.2297785,32.9561392 C46.7475,32.6741772 46.1883228,32.5099367 45.5892722,32.5099367 C44.9902215,32.5099367 44.4300949,32.6741772 43.9478165,32.9561392 C43.465538,32.6741772 42.9063608,32.5099367 42.3073101,32.5099367 C41.7082595,32.5099367 41.1490823,32.6741772 40.6668038,32.9561392 C40.1845253,32.6741772 39.6243987,32.5099367 39.0253481,32.5099367 C38.4262975,32.5099367 37.8671203,32.6741772 37.3848418,32.9561392 C36.9025633,32.6741772 36.3433861,32.5099367 35.7443354,32.5099367 C35.1452848,32.5099367 34.5861076,32.6741772 34.1038291,32.9561392 C33.6215506,32.6741772 33.0614241,32.5099367 32.4623734,32.5099367 C31.8633228,32.5099367 31.3041456,32.6741772 30.8218671,32.9561392 C30.3395886,32.6741772 29.7804114,32.5099367 29.1813608,32.5099367 C28.5823101,32.5099367 28.0221835,32.6741772 27.5399051,32.9561392 C27.0576266,32.6741772 26.4984494,32.5099367 25.8993987,32.5099367 C25.3003481,32.5099367 24.7411709,32.6741772 24.2588924,32.9561392 C23.7766139,32.6741772 23.2164873,32.5099367 22.6174367,32.5099367 C22.0183861,32.5099367 21.4592089,32.6741772 20.9769304,32.9561392 C20.4946519,32.6741772 19.9354747,32.5099367 19.3364241,32.5099367 C18.7373734,32.5099367 18.1781962,32.6741772 17.6959177,32.9561392 C17.2136392,32.6741772 16.6535127,32.5099367 16.054462,32.5099367 C15.9092089,32.5099367 15.7677532,32.5222785 15.6281962,32.5412658 C15.4791456,32.3561392 15.3101582,32.1881013 15.1250316,32.04 C15.1430696,31.9013924 15.1554114,31.7618354 15.1554114,31.618481 C15.1554114,31.5225949 15.1487658,31.4286076 15.1411709,31.3346203 C15.332943,31.1922152 15.5095253,31.0308228 15.6652215,30.850443 C15.8465506,30.8817722 16.0307278,30.9017089 16.2206013,30.9017089 C16.8196519,30.9017089 17.3788291,30.7374684 17.8611076,30.454557 C18.3433861,30.7374684 18.9025633,30.9017089 19.5016139,30.9017089 C20.1006646,30.9017089 20.6598418,30.7374684 21.1430696,30.454557 C21.6253481,30.7374684 22.1845253,30.9017089 22.7835759,30.9017089 C23.3826266,30.9017089 23.9418038,30.7374684 24.4240823,30.454557 C24.9063608,30.7374684 25.465538,30.9017089 26.0645886,30.9017089 C26.6636392,30.9017089 27.2237658,30.7374684 27.7060443,30.454557 C28.1883228,30.7374684 28.7475,30.9017089 29.3465506,30.9017089 C29.9456013,30.9017089 30.5047785,30.7374684 30.987057,30.454557 C31.4693354,30.7374684 32.029462,30.9017089 32.6285127,30.9017089 C33.2275633,30.9017089 33.7867405,30.7374684 34.269019,30.454557 C34.7512975,30.7374684 35.3104747,30.9017089 35.9095253,30.9017089 C36.5085759,30.9017089 37.0677532,30.7374684 37.5500316,30.454557 C38.0332595,30.7374684 38.5924367,30.9017089 39.1914873,30.9017089 C39.790538,30.9017089 40.3497152,30.7374684 40.8319937,30.454557 C41.3142722,30.7374684 41.8734494,30.9017089 42.4725,30.9017089 C43.0715506,30.9017089 43.6316772,30.7374684 44.1139557,30.454557 C44.5962342,30.7374684 45.1554114,30.9017089 45.754462,30.9017089 C46.3535127,30.9017089 46.9126899,30.7374684 47.3949684,30.454557 C47.8772468,30.7374684 48.4373734,30.9017089 49.0364241,30.9017089 C49.6354747,30.9017089 50.1946519,30.7374684 50.6769304,30.454557 C51.1592089,30.7374684 51.7183861,30.9017089 52.3174367,30.9017089 C52.9164873,30.9017089 53.4756646,30.7374684 53.957943,30.454557 C54.4402215,30.7374684 55.0003481,30.9017089 55.5993987,30.9017089 C56.1984494,30.9017089 56.7576266,30.7374684 57.2399051,30.454557 C57.7221835,30.7374684 58.2813608,30.9017089 58.8804114,30.9017089 C59.479462,30.9017089 60.0395886,30.7374684 60.5218671,30.454557 C61.0041456,30.7374684 61.5633228,30.9017089 62.1623734,30.9017089 C62.7614241,30.9017089 63.3206013,30.7374684 63.8028797,30.454557 C64.2851582,30.7374684 64.8443354,30.9017089 65.4433861,30.9017089 C66.1402215,30.9017089 66.7848418,30.6814557 67.3145886,30.3093038 C67.7408544,30.5134177 68.2164873,30.6320886 68.7215506,30.6320886 C70.1826266,30.6320886 71.4187025,29.6703797 71.8326266,28.3460127 C73.2243987,27.9738608 74.2497152,26.7093038 74.2497152,25.2007595 C74.2497152,24.6093038 74.0902215,24.0567722 73.8149051,23.5782911 C74.0902215,23.0998101 74.2497152,22.5472785 74.2497152,21.9558228 C74.2497152,20.4472785 73.2243987,19.1817722 71.8326266,18.8105696 C71.4187025,17.4852532 70.1826266,16.5244937 68.7215506,16.5244937 C68.2164873,16.5244937 67.7408544,16.6422152 67.3145886,16.8472785 C66.7848418,16.4751266 66.1402215,16.2548734 65.4433861,16.2548734 C64.8443354,16.2548734 64.2851582,16.4191139 63.8028797,16.7010759 C63.3206013,16.4191139 62.7614241,16.2548734 62.1623734,16.2548734 C61.5633228,16.2548734 61.0041456,16.4191139 60.5218671,16.7010759 C60.0395886,16.4191139 59.479462,16.2548734 58.8804114,16.2548734 C58.2813608,16.2548734 57.7221835,16.4191139 57.2399051,16.7010759 C56.7576266,16.4191139 56.1984494,16.2548734 55.5993987,16.2548734 C55.0003481,16.2548734 54.4402215,16.4191139 53.957943,16.7010759 C53.4756646,16.4191139 52.9164873,16.2548734 52.3174367,16.2548734 C51.7183861,16.2548734 51.1592089,16.4191139 50.6769304,16.7010759 C50.1946519,16.4191139 49.6354747,16.2548734 49.0364241,16.2548734 C48.4373734,16.2548734 47.8772468,16.4191139 47.3949684,16.7010759 C46.9126899,16.4191139 46.3535127,16.2548734 45.754462,16.2548734 C45.1554114,16.2548734 44.5962342,16.4191139 44.1139557,16.7010759 C43.6316772,16.4191139 43.0715506,16.2548734 42.4725,16.2548734 C41.8734494,16.2548734 41.3142722,16.4191139 40.8319937,16.7010759 C40.3497152,16.4191139 39.790538,16.2548734 39.1914873,16.2548734 C38.5924367,16.2548734 38.0332595,16.4191139 37.5500316,16.7010759 C37.0677532,16.4191139 36.5085759,16.2548734 35.9095253,16.2548734 C35.3104747,16.2548734 34.7512975,16.4191139 34.269019,16.7010759 C33.7867405,16.4191139 33.2275633,16.2548734 32.6285127,16.2548734 C32.029462,16.2548734 31.4693354,16.4191139 30.987057,16.7010759 C30.5047785,16.4191139 29.9456013,16.2548734 29.3465506,16.2548734 C28.7475,16.2548734 28.1883228,16.4191139 27.7060443,16.7010759 C27.2237658,16.4191139 26.6636392,16.2548734 26.0645886,16.2548734 C25.465538,16.2548734 24.9063608,16.4191139 24.4240823,16.7010759 C23.9418038,16.4191139 23.3826266,16.2548734 22.7835759,16.2548734 C22.1845253,16.2548734 21.6253481,16.4191139 21.1430696,16.7010759 C20.6598418,16.4191139 20.1006646,16.2548734 19.5016139,16.2548734 C18.9025633,16.2548734 18.3433861,16.4191139 17.8611076,16.7010759 C17.3788291,16.4191139 16.8196519,16.2548734 16.2206013,16.2548734 C16.0307278,16.2548734 15.8465506,16.2748101 15.6652215,16.3051899 C15.5095253,16.1257595 15.332943,15.9634177 15.1411709,15.821962 C15.1487658,15.7279747 15.1554114,15.6339873 15.1554114,15.5381013 C15.1554114,15.3947468 15.1430696,15.2542405 15.1250316,15.1165823 C15.3101582,14.9675316 15.4791456,14.800443 15.6281962,14.6153165 C15.7677532,14.6333544 15.9092089,14.6466456 16.054462,14.6466456 C16.6535127,14.6466456 17.2136392,14.4824051 17.6959177,14.200443 C18.1781962,14.4824051 18.7373734,14.6466456 19.3364241,14.6466456 C19.9354747,14.6466456 20.4946519,14.4824051 20.9769304,14.200443 C21.4592089,14.4824051 22.0183861,14.6466456 22.6174367,14.6466456 C23.2164873,14.6466456 23.7766139,14.4824051 24.2588924,14.200443 C24.7411709,14.4824051 25.3003481,14.6466456 25.8993987,14.6466456 C26.4984494,14.6466456 27.0576266,14.4824051 27.5399051,14.200443 C28.0221835,14.4824051 28.5823101,14.6466456 29.1813608,14.6466456 C29.7804114,14.6466456 30.3395886,14.4824051 30.8218671,14.200443 C31.3041456,14.4824051 31.8633228,14.6466456 32.4623734,14.6466456 C33.0614241,14.6466456 33.6215506,14.4824051 34.1038291,14.200443 C34.5861076,14.4824051 35.1452848,14.6466456 35.7443354,14.6466456 C36.3433861,14.6466456 36.9025633,14.4824051 37.3848418,14.200443 C37.8671203,14.4824051 38.4262975,14.6466456 39.0253481,14.6466456 C39.6243987,14.6466456 40.1845253,14.4824051 40.6668038,14.200443 C41.1490823,14.4824051 41.7082595,14.6466456 42.3073101,14.6466456 C42.9063608,14.6466456 43.465538,14.4824051 43.9478165,14.200443 C44.4300949,14.4824051 44.9902215,14.6466456 45.5892722,14.6466456 C46.1883228,14.6466456 46.7475,14.4824051 47.2297785,14.200443 C47.712057,14.4824051 48.2712342,14.6466456 48.8702848,14.6466456 C49.4693354,14.6466456 50.0285127,14.4824051 50.5117405,14.200443 C50.994019,14.4824051 51.5531962,14.6466456 52.1522468,14.6466456 C52.7512975,14.6466456 53.3104747,14.4824051 53.7927532,14.200443 C54.2750316,14.4824051 54.8342089,14.6466456 55.4332595,14.6466456 C56.0323101,14.6466456 56.5924367,14.4824051 57.0747152,14.200443 C57.5569937,14.4824051 58.1161709,14.6466456 58.7152215,14.6466456 C59.3142722,14.6466456 59.8734494,14.4824051 60.3557278,14.200443 C60.8380063,14.4824051 61.3981329,14.6466456 61.9971835,14.6466456 C62.5962342,14.6466456 63.1554114,14.4824051 63.6376899,14.200443 C64.1199684,14.4824051 64.6791456,14.6466456 65.2781962,14.6466456 C65.9560443,14.6466456 66.5854747,14.4387342 67.1066772,14.0846203 C67.5462342,14.3058228 68.0408544,14.433038 68.5668038,14.433038 C69.979462,14.433038 71.179462,13.5320886 71.6313608,12.2741772 C73.0895886,11.950443 74.1813608,10.6507595 74.1813608,9.09474684 C74.1813608,8.54981013 74.0456013,8.0371519 73.8101582,7.58620253 C74.1262975,7.08398734 74.3123734,6.49063291 74.3123734,5.85265823 C74.3123734,4.38778481 73.3459177,3.14886076 72.0168038,2.73778481 C71.6418038,1.35265823 70.3781962,0.331139241 68.8734494,0.331139241 C68.3921203,0.331139241 67.9364241,0.438417722 67.5253481,0.626392405 C66.987057,0.234303797 66.3262975,-0.000189873418 65.6095253,-0.000189873418 C65.0104747,-0.000189873418 64.4512975,0.164050633 63.969019,0.446012658 C63.4857911,0.164050633 62.9266139,-0.000189873418 62.3275633,-0.000189873418 C61.7285127,-0.000189873418 61.1693354,0.164050633 60.687057,0.446012658 C60.2047785,0.164050633 59.6456013,-0.000189873418 59.0465506,-0.000189873418 C58.4475,-0.000189873418 57.8873734,0.164050633 57.4050949,0.446012658 C56.9228165,0.164050633 56.3636392,-0.000189873418 55.7645886,-0.000189873418 C55.165538,-0.000189873418 54.6063608,0.164050633 54.1240823,0.446012658 C53.6418038,0.164050633 53.0816772,-0.000189873418 52.4826266,-0.000189873418 C51.8835759,-0.000189873418 51.3243987,0.164050633 50.8421203,0.446012658 C50.3598418,0.164050633 49.8006646,-0.000189873418 49.2016139,-0.000189873418 C48.6025633,-0.000189873418 48.0433861,0.164050633 47.5611076,0.446012658 C47.0788291,0.164050633 46.5187025,-0.000189873418 45.9196519,-0.000189873418 C45.3206013,-0.000189873418 44.7614241,0.164050633 44.2791456,0.446012658 C43.7968671,0.164050633 43.2376899,-0.000189873418 42.6386392,-0.000189873418 C42.0395886,-0.000189873418 41.479462,0.164050633 40.9971835,0.446012658 C40.5149051,0.164050633 39.9557278,-0.000189873418 39.3566772,-0.000189873418 C38.7576266,-0.000189873418 38.1984494,0.164050633 37.7161709,0.446012658 C37.2338924,0.164050633 36.6737658,-0.000189873418 36.0747152,-0.000189873418 C35.4756646,-0.000189873418 34.9164873,0.164050633 34.4342089,0.446012658 C33.9519304,0.164050633 33.3927532,-0.000189873418 32.7937025,-0.000189873418 C32.1946519,-0.000189873418 31.6354747,0.164050633 31.1531962,0.446012658 C30.6709177,0.164050633 30.1107911,-0.000189873418 29.5117405,-0.000189873418 C28.9126899,-0.000189873418 28.3535127,0.164050633 27.8712342,0.446012658 C27.3889557,0.164050633 26.8297785,-0.000189873418 26.2307278,-0.000189873418 C25.6316772,-0.000189873418 25.0715506,0.164050633 24.5892722,0.446012658 C24.1069937,0.164050633 23.5478165,-0.000189873418 22.9487658,-0.000189873418 C22.3497152,-0.000189873418 21.790538,0.164050633 21.3082595,0.446012658 C20.825981,0.164050633 20.2668038,-0.000189873418 19.6677532,-0.000189873418 C19.0687025,-0.000189873418 18.5085759,0.164050633 18.0262975,0.446012658 C17.544019,0.164050633 16.9848418,-0.000189873418 16.3857911,-0.000189873418 C15.7867405,-0.000189873418 15.2275633,0.164050633 14.7452848,0.446012658 C14.2630063,0.164050633 13.7028797,-0.000189873418 13.1038291,-0.000189873418 C12.5047785,-0.000189873418 11.9456013,0.164050633 11.4633228,0.446012658 C10.9810443,0.164050633 10.4218671,-0.000189873418 9.82281646,-0.000189873418 C9.22376582,-0.000189873418 8.66458861,0.164050633 8.18136076,0.446012658 C7.69908228,0.164050633 7.13990506,-0.000189873418 6.54085443,-0.000189873418 C5.9418038,-0.000189873418 5.38262658,0.164050633 4.9003481,0.446012658 C4.41806962,0.164050633 3.85889241,-0.000189873418 3.25984177,-0.000189873418 C1.45889241,-0.000189873418 -0.000284810127,1.45898734 -0.000284810127,3.25898734 C-0.000284810127,5.05993671 1.45889241,6.51911392 3.25984177,6.51911392 C3.85889241,6.51911392 4.41806962,6.35487342 4.9003481,6.07291139 C5.38262658,6.35487342 5.9418038,6.51911392 6.54085443,6.51911392 C7.13990506,6.51911392 7.69908228,6.35487342 8.18136076,6.07291139 C8.66458861,6.35487342 9.22376582,6.51911392 9.82281646,6.51911392 C10.4218671,6.51911392 10.9810443,6.35487342 11.4633228,6.07291139 C11.9456013,6.35487342 12.5047785,6.51911392 13.1038291,6.51911392 C13.7028797,6.51911392 14.2630063,6.35487342 14.7452848,6.07291139 C15.2275633,6.35487342 15.7867405,6.51911392 16.3857911,6.51911392 C16.9848418,6.51911392 17.544019,6.35487342 18.0262975,6.07291139 C18.5085759,6.35487342 19.0687025,6.51911392 19.6677532,6.51911392 C20.2668038,6.51911392 20.825981,6.35487342 21.3082595,6.07291139 C21.790538,6.35487342 22.3497152,6.51911392 22.9487658,6.51911392 C23.5478165,6.51911392 24.1069937,6.35487342 24.5892722,6.07291139 C25.0715506,6.35487342 25.6316772,6.51911392 26.2307278,6.51911392 C26.8297785,6.51911392 27.3889557,6.35487342 27.8712342,6.07291139 C28.3535127,6.35487342 28.9126899,6.51911392 29.5117405,6.51911392 C30.1107911,6.51911392 30.6709177,6.35487342 31.1531962,6.07291139 C31.6354747,6.35487342 32.1946519,6.51911392 32.7937025,6.51911392 C33.3927532,6.51911392 33.9519304,6.35487342 34.4342089,6.07291139 C34.9164873,6.35487342 35.4756646,6.51911392 36.0747152,6.51911392 C36.6737658,6.51911392 37.2338924,6.35487342 37.7161709,6.07291139 C38.1984494,6.35487342 38.7576266,6.51911392 39.3566772,6.51911392 C39.9557278,6.51911392 40.5149051,6.35487342 40.9971835,6.07291139 C41.479462,6.35487342 42.0395886,6.51911392 42.6386392,6.51911392 C43.2376899,6.51911392 43.7968671,6.35487342 44.2791456,6.07291139 C44.7614241,6.35487342 45.3206013,6.51911392 45.9196519,6.51911392 C46.5187025,6.51911392 47.0788291,6.35487342 47.5611076,6.07291139 C48.0433861,6.35487342 48.6025633,6.51911392 49.2016139,6.51911392 C49.8006646,6.51911392 50.3598418,6.35487342 50.8421203,6.07291139 C51.3243987,6.35487342 51.8835759,6.51911392 52.4826266,6.51911392 C53.0816772,6.51911392 53.6418038,6.35487342 54.1240823,6.07291139 C54.6063608,6.35487342 55.165538,6.51911392 55.7645886,6.51911392 C56.3636392,6.51911392 56.9228165,6.35487342 57.4050949,6.07291139 C57.8873734,6.35487342 58.4475,6.51911392 59.0465506,6.51911392 C59.6456013,6.51911392 60.2047785,6.35487342 60.687057,6.07291139 C61.1693354,6.35487342 61.7285127,6.51911392 62.3275633,6.51911392 C62.9266139,6.51911392 63.4857911,6.35487342 63.969019,6.07291139 C64.4512975,6.35487342 65.0104747,6.51911392 65.6095253,6.51911392 C66.0908544,6.51911392 66.5465506,6.41183544 66.9585759,6.22386076 C67.2443354,6.43272152 67.5642722,6.59791139 67.9098418,6.70518987 C67.9725,6.93493671 68.0569937,7.15424051 68.1652215,7.36120253 C68.0408544,7.55867089 67.9373734,7.77037975 67.8566772,7.99348101 C67.4503481,8.08462025 67.0715506,8.24886076 66.7373734,8.47575949 C66.2987658,8.25455696 65.8041456,8.12734177 65.2781962,8.12734177 C64.6791456,8.12734177 64.1199684,8.29158228 63.6376899,8.5735443 C63.1554114,8.29158228 62.5962342,8.12734177 61.9971835,8.12734177 C61.3981329,8.12734177 60.8380063,8.29158228 60.3557278,8.5735443 C59.8734494,8.29158228 59.3142722,8.12734177 58.7152215,8.12734177 C58.1161709,8.12734177 57.5569937,8.29158228 57.0747152,8.5735443 C56.5924367,8.29158228 56.0323101,8.12734177 55.4332595,8.12734177 C54.8342089,8.12734177 54.2750316,8.29158228 53.7927532,8.5735443 C53.3104747,8.29158228 52.7512975,8.12734177 52.1522468,8.12734177 C51.5531962,8.12734177 50.994019,8.29158228 50.5117405,8.5735443 C50.0285127,8.29158228 49.4693354,8.12734177 48.8702848,8.12734177 C48.2712342,8.12734177 47.712057,8.29158228 47.2297785,8.5735443 C46.7475,8.29158228 46.1883228,8.12734177 45.5892722,8.12734177 C44.9902215,8.12734177 44.4300949,8.29158228 43.9478165,8.5735443 C43.465538,8.29158228 42.9063608,8.12734177 42.3073101,8.12734177 C41.7082595,8.12734177 41.1490823,8.29158228 40.6668038,8.5735443 C40.1845253,8.29158228 39.6243987,8.12734177 39.0253481,8.12734177 C38.4262975,8.12734177 37.8671203,8.29158228 37.3848418,8.5735443 C36.9025633,8.29158228 36.3433861,8.12734177 35.7443354,8.12734177 C35.1452848,8.12734177 34.5861076,8.29158228 34.1038291,8.5735443 C33.6215506,8.29158228 33.0614241,8.12734177 32.4623734,8.12734177 C31.8633228,8.12734177 31.3041456,8.29158228 30.8218671,8.5735443 C30.3395886,8.29158228 29.7804114,8.12734177 29.1813608,8.12734177 C28.5823101,8.12734177 28.0221835,8.29158228 27.5399051,8.5735443 C27.0576266,8.29158228 26.4984494,8.12734177 25.8993987,8.12734177 C25.3003481,8.12734177 24.7411709,8.29158228 24.2588924,8.5735443 C23.7766139,8.29158228 23.2164873,8.12734177 22.6174367,8.12734177 C22.0183861,8.12734177 21.4592089,8.29158228 20.9769304,8.5735443 C20.4946519,8.29158228 19.9354747,8.12734177 19.3364241,8.12734177 C18.7373734,8.12734177 18.1781962,8.29158228 17.6959177,8.5735443 C17.2136392,8.29158228 16.6535127,8.12734177 16.054462,8.12734177 C15.0281962,8.12734177 14.1139557,8.60297468 13.5168038,9.34443038 C13.3762975,9.32544304 13.2348418,9.31310127 13.0895886,9.31310127 C11.2895886,9.31310127 9.83041139,10.7722785 9.83041139,12.5722785 C9.83041139,12.7156329 9.84275316,12.8561392 9.86079114,12.9937975 C9.11458861,13.5909494 8.63610759,14.508038 8.63610759,15.5381013 C8.63610759,16.6127848 9.15920886,17.5631013 9.96142405,18.1564557 C9.95287975,18.250443 9.94718354,18.3444304 9.94718354,18.4403165 C9.94718354,20.2412658 11.4063608,21.700443 13.2063608,21.700443 C13.3962342,21.700443 13.5804114,21.6805063 13.7607911,21.6491772 C14.3588924,22.3374684 15.2380063,22.7741772 16.2206013,22.7741772 C16.8196519,22.7741772 17.3788291,22.6099367 17.8611076,22.3279747 C18.3433861,22.6099367 18.9025633,22.7741772 19.5016139,22.7741772 C20.1006646,22.7741772 20.6598418,22.6099367 21.1430696,22.3279747 C21.6253481,22.6099367 22.1845253,22.7741772 22.7835759,22.7741772 C23.3826266,22.7741772 23.9418038,22.6099367 24.4240823,22.3279747 C24.9063608,22.6099367 25.465538,22.7741772 26.0645886,22.7741772 C26.6636392,22.7741772 27.2237658,22.6099367 27.7060443,22.3279747 C28.1883228,22.6099367 28.7475,22.7741772 29.3465506,22.7741772 C29.9456013,22.7741772 30.5047785,22.6099367 30.987057,22.3279747 C31.4693354,22.6099367 32.029462,22.7741772 32.6285127,22.7741772 C33.2275633,22.7741772 33.7867405,22.6099367 34.269019,22.3279747 C34.7512975,22.6099367 35.3104747,22.7741772 35.9095253,22.7741772 C36.5085759,22.7741772 37.0677532,22.6099367 37.5500316,22.3279747 C38.0332595,22.6099367 38.5924367,22.7741772 39.1914873,22.7741772 C39.790538,22.7741772 40.3497152,22.6099367 40.8319937,22.3279747 C41.3142722,22.6099367 41.8734494,22.7741772 42.4725,22.7741772 C43.0715506,22.7741772 43.6316772,22.6099367 44.1139557,22.3279747 C44.5962342,22.6099367 45.1554114,22.7741772 45.754462,22.7741772 C46.3535127,22.7741772 46.9126899,22.6099367 47.3949684,22.3279747 C47.8772468,22.6099367 48.4373734,22.7741772 49.0364241,22.7741772 C49.6354747,22.7741772 50.1946519,22.6099367 50.6769304,22.3279747 C51.1592089,22.6099367 51.7183861,22.7741772 52.3174367,22.7741772 C52.9164873,22.7741772 53.4756646,22.6099367 53.957943,22.3279747 C54.4402215,22.6099367 55.0003481,22.7741772 55.5993987,22.7741772 C56.1984494,22.7741772 56.7576266,22.6099367 57.2399051,22.3279747 C57.7221835,22.6099367 58.2813608,22.7741772 58.8804114,22.7741772 C59.479462,22.7741772 60.0395886,22.6099367 60.5218671,22.3279747 C61.0041456,22.6099367 61.5633228,22.7741772 62.1623734,22.7741772 C62.7614241,22.7741772 63.3206013,22.6099367 63.8028797,22.3279747 C64.2851582,22.6099367 64.8443354,22.7741772 65.4433861,22.7741772 C65.9484494,22.7741772 66.4250316,22.6555063 66.8512975,22.450443 C67.1588924,22.6668987 67.5063608,22.8292405 67.879462,22.9289241 C67.9506646,23.1577215 68.0484494,23.3741772 68.1661709,23.5782911 C68.0484494,23.7824051 67.9506646,23.9979114 67.879462,24.2267089 C67.5063608,24.3263924 67.1588924,24.4896835 66.8512975,24.7051899 C66.4250316,24.5001266 65.9484494,24.3824051 65.4433861,24.3824051 C64.8443354,24.3824051 64.2851582,24.5466456 63.8028797,24.8286076 C63.3206013,24.5466456 62.7614241,24.3824051 62.1623734,24.3824051 C61.5633228,24.3824051 61.0041456,24.5466456 60.5218671,24.8286076 C60.0395886,24.5466456 59.479462,24.3824051 58.8804114,24.3824051 C58.2813608,24.3824051 57.7221835,24.5466456 57.2399051,24.8286076 C56.7576266,24.5466456 56.1984494,24.3824051 55.5993987,24.3824051 C55.0003481,24.3824051 54.4402215,24.5466456 53.957943,24.8286076 C53.4756646,24.5466456 52.9164873,24.3824051 52.3174367,24.3824051 C51.7183861,24.3824051 51.1592089,24.5466456 50.6769304,24.8286076 C50.1946519,24.5466456 49.6354747,24.3824051 49.0364241,24.3824051 C48.4373734,24.3824051 47.8772468,24.5466456 47.3949684,24.8286076 C46.9126899,24.5466456 46.3535127,24.3824051 45.754462,24.3824051 C45.1554114,24.3824051 44.5962342,24.5466456 44.1139557,24.8286076 C43.6316772,24.5466456 43.0715506,24.3824051 42.4725,24.3824051 C41.8734494,24.3824051 41.3142722,24.5466456 40.8319937,24.8286076 C40.3497152,24.5466456 39.790538,24.3824051 39.1914873,24.3824051 C38.5924367,24.3824051 38.0332595,24.5466456 37.5500316,24.8286076 C37.0677532,24.5466456 36.5085759,24.3824051 35.9095253,24.3824051 C35.3104747,24.3824051 34.7512975,24.5466456 34.269019,24.8286076 C33.7867405,24.5466456 33.2275633,24.3824051 32.6285127,24.3824051 C32.029462,24.3824051 31.4693354,24.5466456 30.987057,24.8286076 C30.5047785,24.5466456 29.9456013,24.3824051 29.3465506,24.3824051 C28.7475,24.3824051 28.1883228,24.5466456 27.7060443,24.8286076 C27.2237658,24.5466456 26.6636392,24.3824051 26.0645886,24.3824051 C25.465538,24.3824051 24.9063608,24.5466456 24.4240823,24.8286076 C23.9418038,24.5466456 23.3826266,24.3824051 22.7835759,24.3824051 C22.1845253,24.3824051 21.6253481,24.5466456 21.1430696,24.8286076 C20.6598418,24.5466456 20.1006646,24.3824051 19.5016139,24.3824051 C18.9025633,24.3824051 18.3433861,24.5466456 17.8611076,24.8286076 C17.3788291,24.5466456 16.8196519,24.3824051 16.2206013,24.3824051 C15.2380063,24.3824051 14.3588924,24.8191139 13.7607911,25.5064557 C13.5804114,25.4760759 13.3962342,25.4561392 13.2063608,25.4561392 C11.4063608,25.4561392 9.94718354,26.9153165 9.94718354,28.7153165 C9.94718354,28.8112025 9.95287975,28.9061392 9.96142405,28.9991772 C9.15920886,29.593481 8.63610759,30.5437975 8.63610759,31.618481 C8.63610759,32.6485443 9.11458861,33.5646835 9.86079114,34.1618354 C9.84275316,34.300443 9.83041139,34.4409494 9.83041139,34.5833544 C9.83041139,36.3843038 11.2895886,37.843481 13.0895886,37.843481 C13.2348418,37.843481 13.3762975,37.8301899 13.5168038,37.8121519 C14.1139557,38.5536076 15.0281962,39.0292405 16.054462,39.0292405 C16.6535127,39.0292405 17.2136392,38.8640506 17.6959177,38.5820886 C18.1781962,38.8640506 18.7373734,39.0292405 19.3364241,39.0292405 C19.9354747,39.0292405 20.4946519,38.8640506 20.9769304,38.5820886 C21.4592089,38.8640506 22.0183861,39.0292405 22.6174367,39.0292405 C23.2164873,39.0292405 23.7766139,38.8640506 24.2588924,38.5820886 C24.7411709,38.8640506 25.3003481,39.0292405 25.8993987,39.0292405 C26.4984494,39.0292405 27.0576266,38.8640506 27.5399051,38.5820886 C28.0221835,38.8640506 28.5823101,39.0292405 29.1813608,39.0292405 C29.7804114,39.0292405 30.3395886,38.8640506 30.8218671,38.5820886 C31.3041456,38.8640506 31.8633228,39.0292405 32.4623734,39.0292405 C33.0614241,39.0292405 33.6215506,38.8640506 34.1038291,38.5820886 C34.5861076,38.8640506 35.1452848,39.0292405 35.7443354,39.0292405 C36.3433861,39.0292405 36.9025633,38.8640506 37.3848418,38.5820886 C37.8671203,38.8640506 38.4262975,39.0292405 39.0253481,39.0292405 C39.6243987,39.0292405 40.1845253,38.8640506 40.6668038,38.5820886 C41.1490823,38.8640506 41.7082595,39.0292405 42.3073101,39.0292405 C42.9063608,39.0292405 43.465538,38.8640506 43.9478165,38.5820886 C44.4300949,38.8640506 44.9902215,39.0292405 45.5892722,39.0292405 C46.1883228,39.0292405 46.7475,38.8640506 47.2297785,38.5820886 C47.712057,38.8640506 48.2712342,39.0292405 48.8702848,39.0292405 C49.4693354,39.0292405 50.0285127,38.8640506 50.5117405,38.5820886 C50.994019,38.8640506 51.5531962,39.0292405 52.1522468,39.0292405 C52.7512975,39.0292405 53.3104747,38.8640506 53.7927532,38.5820886 C54.2750316,38.8640506 54.8342089,39.0292405 55.4332595,39.0292405 C56.0323101,39.0292405 56.5924367,38.8640506 57.0747152,38.5820886 C57.5569937,38.8640506 58.1161709,39.0292405 58.7152215,39.0292405 C59.3142722,39.0292405 59.8734494,38.8640506 60.3557278,38.5820886 C60.8380063,38.8640506 61.3981329,39.0292405 61.9971835,39.0292405 C62.5962342,39.0292405 63.1554114,38.8640506 63.6376899,38.5820886 C64.1199684,38.8640506 64.6791456,39.0292405 65.2781962,39.0292405 C65.8041456,39.0292405 66.2978165,38.9020253 66.7373734,38.6808228 C67.0715506,38.9077215 67.4503481,39.071962 67.8566772,39.1621519 C67.9373734,39.3862025 68.0408544,39.5979114 68.1652215,39.7953797 C68.0569937,40.0013924 67.9725,40.2216456 67.9098418,40.4513924 C67.5642722,40.5577215 67.2443354,40.7238608 66.9585759,40.9317722 C66.5465506,40.7447468 66.0908544,40.6374684 65.6095253,40.6374684 C65.0104747,40.6374684 64.4512975,40.8017089 63.969019,41.0836709 C63.4857911,40.8017089 62.9266139,40.6374684 62.3275633,40.6374684 C61.7285127,40.6374684 61.1693354,40.8017089 60.687057,41.0836709 C60.2047785,40.8017089 59.6456013,40.6374684 59.0465506,40.6374684 C58.4475,40.6374684 57.8873734,40.8017089 57.4050949,41.0836709 C56.9228165,40.8017089 56.3636392,40.6374684 55.7645886,40.6374684 C55.165538,40.6374684 54.6063608,40.8017089 54.1240823,41.0836709 C53.6418038,40.8017089 53.0816772,40.6374684 52.4826266,40.6374684 C51.8835759,40.6374684 51.3243987,40.8017089 50.8421203,41.0836709 C50.3598418,40.8017089 49.8006646,40.6374684 49.2016139,40.6374684 C48.6025633,40.6374684 48.0433861,40.8017089 47.5611076,41.0836709 C47.0788291,40.8017089 46.5187025,40.6374684 45.9196519,40.6374684 C45.3206013,40.6374684 44.7614241,40.8017089 44.2791456,41.0836709 C43.7968671,40.8017089 43.2376899,40.6374684 42.6386392,40.6374684 C42.0395886,40.6374684 41.479462,40.8017089 40.9971835,41.0836709 C40.5149051,40.8017089 39.9557278,40.6374684 39.3566772,40.6374684 C38.7576266,40.6374684 38.1984494,40.8017089 37.7161709,41.0836709 C37.2338924,40.8017089 36.6737658,40.6374684 36.0747152,40.6374684 C35.4756646,40.6374684 34.9164873,40.8017089 34.4342089,41.0836709 C33.9519304,40.8017089 33.3927532,40.6374684 32.7937025,40.6374684 C32.1946519,40.6374684 31.6354747,40.8017089 31.1531962,41.0836709 C30.6709177,40.8017089 30.1107911,40.6374684 29.5117405,40.6374684 C28.9126899,40.6374684 28.3535127,40.8017089 27.8712342,41.0836709 C27.3889557,40.8017089 26.8297785,40.6374684 26.2307278,40.6374684 C25.6316772,40.6374684 25.0715506,40.8017089 24.5892722,41.0836709 C24.1069937,40.8017089 23.5478165,40.6374684 22.9487658,40.6374684 C22.3497152,40.6374684 21.790538,40.8017089 21.3082595,41.0836709 C20.825981,40.8017089 20.2668038,40.6374684 19.6677532,40.6374684 C19.0687025,40.6374684 18.5085759,40.8017089 18.0262975,41.0836709 C17.544019,40.8017089 16.9848418,40.6374684 16.3857911,40.6374684 C15.7867405,40.6374684 15.2275633,40.8017089 14.7452848,41.0836709 C14.2630063,40.8017089 13.7028797,40.6374684 13.1038291,40.6374684 C12.5047785,40.6374684 11.9456013,40.8017089 11.4633228,41.0836709 C10.9810443,40.8017089 10.4218671,40.6374684 9.82281646,40.6374684 C9.22376582,40.6374684 8.66458861,40.8017089 8.18136076,41.0836709 C7.69908228,40.8017089 7.13990506,40.6374684 6.54085443,40.6374684 C5.9418038,40.6374684 5.38262658,40.8017089 4.9003481,41.0836709 C4.41806962,40.8017089 3.85889241,40.6374684 3.25984177,40.6374684 C1.45889241,40.6374684 -0.000284810127,42.0966456 -0.000284810127,43.8966456 C-0.000284810127,45.6966456 1.45889241,47.1567722 3.25984177,47.1567722 C3.85889241,47.1567722 4.41806962,46.9915823 4.9003481,46.7096203 C5.38262658,46.9915823 5.9418038,47.1567722 6.54085443,47.1567722 C7.13990506,47.1567722 7.69908228,46.9915823 8.18136076,46.7096203 C8.66458861,46.9915823 9.22376582,47.1567722 9.82281646,47.1567722 C10.4218671,47.1567722 10.9810443,46.9915823 11.4633228,46.7096203 C11.9456013,46.9915823 12.5047785,47.1567722 13.1038291,47.1567722 C13.7028797,47.1567722 14.2630063,46.9915823 14.7452848,46.7096203 C15.2275633,46.9915823 15.7867405,47.1567722 16.3857911,47.1567722 C16.9848418,47.1567722 17.544019,46.9915823 18.0262975,46.7096203 C18.5085759,46.9915823 19.0687025,47.1567722 19.6677532,47.1567722 C20.2668038,47.1567722 20.825981,46.9915823 21.3082595,46.7096203 C21.790538,46.9915823 22.3497152,47.1567722 22.9487658,47.1567722 C23.5478165,47.1567722 24.1069937,46.9915823 24.5892722,46.7096203 C25.0715506,46.9915823 25.6316772,47.1567722 26.2307278,47.1567722 C26.8297785,47.1567722 27.3889557,46.9915823 27.8712342,46.7096203 C28.3535127,46.9915823 28.9126899,47.1567722 29.5117405,47.1567722 C30.1107911,47.1567722 30.6709177,46.9915823 31.1531962,46.7096203 C31.6354747,46.9915823 32.1946519,47.1567722 32.7937025,47.1567722 C33.3927532,47.1567722 33.9519304,46.9915823 34.4342089,46.7096203 C34.9164873,46.9915823 35.4756646,47.1567722 36.0747152,47.1567722 C36.6737658,47.1567722 37.2338924,46.9915823 37.7161709,46.7096203 C38.1984494,46.9915823 38.7576266,47.1567722 39.3566772,47.1567722 C39.9557278,47.1567722 40.5149051,46.9915823 40.9971835,46.7096203 C41.479462,46.9915823 42.0395886,47.1567722 42.6386392,47.1567722 C43.2376899,47.1567722 43.7968671,46.9915823 44.2791456,46.7096203 C44.7614241,46.9915823 45.3206013,47.1567722 45.9196519,47.1567722 C46.5187025,47.1567722 47.0788291,46.9915823 47.5611076,46.7096203 C48.0433861,46.9915823 48.6025633,47.1567722 49.2016139,47.1567722 C49.8006646,47.1567722 50.3598418,46.9915823 50.8421203,46.7096203 C51.3243987,46.9915823 51.8835759,47.1567722 52.4826266,47.1567722 C53.0816772,47.1567722 53.6418038,46.9915823 54.1240823,46.7096203 C54.6063608,46.9915823 55.165538,47.1567722 55.7645886,47.1567722 C56.3636392,47.1567722 56.9228165,46.9915823 57.4050949,46.7096203 C57.8873734,46.9915823 58.4475,47.1567722 59.0465506,47.1567722 C59.6456013,47.1567722 60.2047785,46.9915823 60.687057,46.7096203 C61.1693354,46.9915823 61.7285127,47.1567722 62.3275633,47.1567722 C62.9266139,47.1567722 63.4857911,46.9915823 63.969019,46.7096203 C64.4512975,46.9915823 65.0104747,47.1567722 65.6095253,47.1567722 C66.3262975,47.1567722 66.987057,46.9222785 67.5253481,46.5301899 C67.9364241,46.7172152 68.3921203,46.8244937 68.8734494,46.8244937 C70.3781962,46.8244937 71.6418038,45.8039241 72.0168038,44.4178481 C73.3459177,44.0067722 74.3123734,42.7687975 74.3123734,41.3039241 C74.3123734,40.6659494 74.1262975,40.0725949 73.8101582,39.5703797 C74.0456013,39.118481 74.1813608,38.6067722 74.1813608,38.0618354" id="Fill-1" fill="#85D3E7" mask="url(#mask-2)"></path>
            </g>
        </g>
    </g>
</svg>