<?xml version="1.0" encoding="UTF-8" standalone="no"?>
<svg width="71px" height="53px" viewBox="0 0 71 53" version="1.1" xmlns="http://www.w3.org/2000/svg" xmlns:xlink="http://www.w3.org/1999/xlink">
    <!-- Generator: Sketch 3.8.3 (29802) - http://www.bohemiancoding.com/sketch -->
    <title>organ-kidney@2x</title>
    <desc>Created with Sketch.</desc>
    <defs>
        <polygon id="path-1" points="0 0.379090909 0 44.2684848 26.8217424 44.2684848 26.8217424 0.379090909"></polygon>
        <polygon id="path-3" points="26.9689394 44.2684848 26.9689394 0.379090909 0.147272727 0.379090909 0.147272727 44.2684848 26.9689394 44.2684848"></polygon>
    </defs>
    <g id="Page-1" stroke="none" stroke-width="1" fill="none" fill-rule="evenodd">
        <g id="Types-of-donation" transform="translate(-108.000000, -1780.000000)">
            <g id="organ-kidney" transform="translate(108.000000, 1780.000000)">
                <path d="M19.305303,20.5615909 C25.3537879,20.5615909 31.4015152,22.0070455 31.4015152,29.8744697 L31.4015152,50.0002273" id="Stroke-1" stroke="#58B362" stroke-width="5" stroke-linecap="round" stroke-linejoin="round"></path>
                <g id="Group-5" transform="translate(0.000000, 0.378788)">
                    <mask id="mask-2" fill="white">
                        <use xlink:href="#path-1"></use>
                    </mask>
                    <g id="Clip-4"></g>
                    <path d="M21.1649242,20.9412121 C20.7126515,20.6381818 20.6134091,20.0040909 20.9891667,19.6093939 C22.9300758,17.5677273 24.1225,14.8078788 24.1225,11.7677273 C24.1225,5.47757576 19.0232576,0.379090909 12.7331061,0.379090909 C6.44295455,0.379090909 -0.000227272727,6.50712121 -0.000227272727,21.6813636 C-0.000227272727,36.8556061 7.0475,44.2684848 14.0831061,44.2684848 C21.1179545,44.2684848 26.8217424,38.5654545 26.8217424,31.5298485 C26.8217424,27.1154545 24.5755303,23.2268182 21.1649242,20.9412121" id="Fill-3" fill="#85D3E7" mask="url(#mask-2)"></path>
                </g>
                <path d="M51.6030303,20.5615909 C45.5545455,20.5615909 39.5068182,22.0070455 39.5068182,29.8744697 L39.5068182,50.0002273" id="Stroke-6" stroke="#58B362" stroke-width="5" stroke-linecap="round" stroke-linejoin="round"></path>
                <g id="Group-10" transform="translate(43.939394, 0.378788)">
                    <mask id="mask-4" fill="white">
                        <use xlink:href="#path-3"></use>
                    </mask>
                    <g id="Clip-9"></g>
                    <path d="M5.80409091,20.9412121 C6.25636364,20.6381818 6.35560606,20.0040909 5.97984848,19.6093939 C4.03893939,17.5677273 2.84651515,14.8078788 2.84651515,11.7677273 C2.84651515,5.47757576 7.94575758,0.379090909 14.2359091,0.379090909 C20.5260606,0.379090909 26.9692424,6.50712121 26.9692424,21.6813636 C26.9692424,36.8556061 19.9215152,44.2684848 12.8859091,44.2684848 C5.85106061,44.2684848 0.147272727,38.5654545 0.147272727,31.5298485 C0.147272727,27.1154545 2.39348485,23.2268182 5.80409091,20.9412121" id="Fill-8" fill="#85D3E7" mask="url(#mask-4)"></path>
                </g>
            </g>
        </g>
    </g>
</svg>