<?xml version="1.0" encoding="UTF-8" standalone="no"?>
<svg width="75px" height="37px" viewBox="0 0 75 37" version="1.1" xmlns="http://www.w3.org/2000/svg" xmlns:xlink="http://www.w3.org/1999/xlink">
    <!-- Generator: Sketch 3.8.3 (29802) - http://www.bohemiancoding.com/sketch -->
    <title>organ-pancreas@2x</title>
    <desc>Created with Sketch.</desc>
    <defs>
        <polygon id="path-1" points="74.0959459 37.0033784 74.0959459 0.000304054054 0.000202702703 0.000304054054 0.000202702703 37.0033784 74.0959459 37.0033784"></polygon>
    </defs>
    <g id="Page-1" stroke="none" stroke-width="1" fill="none" fill-rule="evenodd">
        <g id="Types-of-donation" transform="translate(-351.000000, -1787.000000)">
            <g id="organ-pancreas" transform="translate(351.000000, 1787.000000)">
                <mask id="mask-2" fill="white">
                    <use xlink:href="#path-1"></use>
                </mask>
                <g id="Clip-2"></g>
                <path d="M74.0961486,7.78074324 C74.0961486,3.48344595 70.6127027,0 66.3154054,0 C64.2549324,0 62.387027,0.806756757 60.995473,2.11317568 C59.7741892,2.29459459 58.6339865,2.7152027 57.6194595,3.33040541 C56.5431081,2.95641892 55.3907432,2.74358108 54.1856757,2.74358108 C53.1397297,2.74358108 52.1312838,2.90168919 51.1765541,3.18648649 C49.8549324,2.67668919 48.4238514,2.38682432 46.9218243,2.38682432 C45.1268919,2.38682432 43.4322973,2.7972973 41.9069595,3.51182432 C40.4819595,2.9847973 38.9475,2.68277027 37.3390541,2.68277027 C35.4559459,2.68277027 33.6681081,3.08310811 32.0475,3.79358108 C30.6731757,3.36385135 29.2116892,3.13074324 27.695473,3.13074324 C26.3697973,3.13074324 25.0917568,3.32331081 23.8714865,3.65574324 C23.612027,3.59493243 23.3515541,3.5402027 23.0880405,3.49256757 C21.2667568,2.83986486 19.3137162,2.46587838 17.2684459,2.46587838 C7.73128378,2.46587838 0.000202702703,10.197973 0.000202702703,19.7351351 C0.000202702703,29.2722973 7.73128378,37.0033784 17.2684459,37.0033784 C21.732973,37.0033784 25.7890541,35.2945946 28.8539189,32.514527 C29.0444595,32.3918919 29.2309459,32.2662162 29.4154054,32.1364865 C32.1802703,31.8101351 34.7049324,30.7114865 36.7725,29.0594595 C36.9610135,29.0675676 37.1475,29.0878378 37.3390541,29.0878378 C40.5549324,29.0878378 43.5012162,27.935473 45.7917568,26.022973 C46.1637162,26.0584459 46.5407432,26.0807432 46.9218243,26.0807432 C49.5792568,26.0807432 52.0238514,25.1949324 54.0002027,23.7172297 C54.0630405,23.7182432 54.1238514,23.7263514 54.1856757,23.7263514 C57.2768919,23.7263514 60.0458108,22.3824324 61.9664189,20.2560811 C62.0920946,20.2611486 62.2167568,20.2753378 62.3434459,20.2753378 C66.4045946,20.2753378 69.8424324,17.6239865 71.0312838,13.9591216 C72.8910811,12.5371622 74.0961486,10.3023649 74.0961486,7.78074324" id="Fill-1" fill="#85D3E7" mask="url(#mask-2)"></path>
            </g>
        </g>
    </g>
</svg>