<?xml version="1.0" encoding="UTF-8" standalone="no"?>
<svg width="63px" height="53px" viewBox="0 0 63 53" version="1.1" xmlns="http://www.w3.org/2000/svg" xmlns:xlink="http://www.w3.org/1999/xlink">
    <!-- Generator: Sketch 3.8.3 (29802) - http://www.bohemiancoding.com/sketch -->
    <title>organ-lung@2x</title>
    <desc>Created with Sketch.</desc>
    <defs>
        <polygon id="path-1" points="12.9927273 43.9393939 0 43.9393939 0 0.612878788 25.9854545 0.612878788 25.9854545 43.9393939 12.9927273 43.9393939"></polygon>
    </defs>
    <g id="Page-1" stroke="none" stroke-width="1" fill="none" fill-rule="evenodd">
        <g id="Types-of-donation" transform="translate(-357.000000, -1526.000000)">
            <g id="organ-lung" transform="translate(357.000000, 1529.000000)">
                <path d="M30.8281061,0.560378788 L30.8281061,24.6209848 C30.8281061,30.8096212 23.4334091,32.0156818 23.4334091,32.0156818" id="Stroke-1" stroke="#58B362" stroke-width="5" stroke-linecap="round" stroke-linejoin="round"></path>
                <path d="M30.8281061,0.378787879 L30.8281061,24.4393939 C30.8281061,30.6280303 38.222803,31.8340909 38.222803,31.8340909" id="Stroke-3" stroke="#58B362" stroke-width="5" stroke-linecap="round" stroke-linejoin="round"></path>
                <g id="Group-7" transform="translate(0.000000, 5.681818)">
                    <mask id="mask-2" fill="white">
                        <use xlink:href="#path-1"></use>
                    </mask>
                    <g id="Clip-6"></g>
                    <path d="M6.35818182,43.9393939 L19.6278788,43.9393939 C23.1392424,43.9393939 25.9854545,41.0924242 25.9854545,37.5810606 L25.9854545,2.61212121 C25.9854545,1.50833333 25.0907576,0.612878788 23.9869697,0.612878788 L23.9869697,0.612878788 C10.7392424,0.612878788 -0.000151515152,11.3522727 -0.000151515152,24.6 L-0.000151515152,37.5810606 C-0.000151515152,41.0924242 2.84681818,43.9393939 6.35818182,43.9393939" id="Fill-5" fill="#85D3E7" mask="url(#mask-2)"></path>
                </g>
                <path d="M55.9216667,49.6212121 L42.6512121,49.6212121 C39.1398485,49.6212121 36.2936364,46.775 36.2936364,43.2636364 L36.2936364,8.29545455 C36.2936364,7.19090909 37.1890909,6.29469697 38.2943939,6.29469697 L38.2943939,6.29469697 C51.5406061,6.29469697 62.2792424,17.0333333 62.2792424,30.280303 L62.2792424,43.2636364 C62.2792424,46.775 59.4330303,49.6212121 55.9216667,49.6212121" id="Fill-8" fill="#85D3E7"></path>
            </g>
        </g>
    </g>
</svg>