<?xml version="1.0" encoding="UTF-8" standalone="no"?>
<svg width="75px" height="25px" viewBox="0 0 75 25" version="1.1" xmlns="http://www.w3.org/2000/svg" xmlns:xlink="http://www.w3.org/1999/xlink">
    <!-- Generator: Sketch 3.8.3 (29802) - http://www.bohemiancoding.com/sketch -->
    <title>organ-tissue@2x</title>
    <desc>Created with Sketch.</desc>
    <defs>
        <polygon id="path-1" points="16 15.2838 16 0.1618 0.8772 0.1618 0.8772 15.2838 16 15.2838"></polygon>
    </defs>
    <g id="Page-1" stroke="none" stroke-width="1" fill="none" fill-rule="evenodd">
        <g id="Types-of-donation" transform="translate(-841.000000, -1793.000000)">
            <g id="organ-tissue" transform="translate(841.000000, 1792.000000)">
                <polygon id="Fill-1" fill="#85D3E7" points="10.554 20.6567 66.66 20.6567 66.66 6.1807 10.554 6.1807"></polygon>
                <g id="Group-11" transform="translate(0.000000, 0.838700)">
                    <path d="M0,7.7228 C0,11.8988 3.385,15.2838 7.561,15.2838 C11.737,15.2838 15.123,11.8988 15.123,7.7228 C15.123,3.5468 11.737,0.1618 7.561,0.1618 C3.385,0.1618 0,3.5468 0,7.7228" id="Fill-2" fill="#85D3E7"></path>
                    <path d="M1.5587,17.4386 C1.5587,21.6146 4.9437,24.9996 9.1197,24.9996 C13.2957,24.9996 16.6817,21.6146 16.6817,17.4386 C16.6817,13.2626 13.2957,9.8776 9.1197,9.8776 C4.9437,9.8776 1.5587,13.2626 1.5587,17.4386" id="Fill-4" fill="#85D3E7"></path>
                    <g id="Group-8" transform="translate(59.000000, 0.000000)">
                        <mask id="mask-2" fill="white">
                            <use xlink:href="#path-1"></use>
                        </mask>
                        <g id="Clip-7"></g>
                        <path d="M16.0002,7.7228 C16.0002,11.8988 12.6152,15.2838 8.4392,15.2838 C4.2632,15.2838 0.8772,11.8988 0.8772,7.7228 C0.8772,3.5468 4.2632,0.1618 8.4392,0.1618 C12.6152,0.1618 16.0002,3.5468 16.0002,7.7228" id="Fill-6" fill="#85D3E7" mask="url(#mask-2)"></path>
                    </g>
                    <path d="M73.4415,17.4386 C73.4415,21.6146 70.0565,24.9996 65.8805,24.9996 C61.7045,24.9996 58.3185,21.6146 58.3185,17.4386 C58.3185,13.2626 61.7045,9.8776 65.8805,9.8776 C70.0565,9.8776 73.4415,13.2626 73.4415,17.4386" id="Fill-9" fill="#85D3E7"></path>
                </g>
            </g>
        </g>
    </g>
</svg>