<?xml version="1.0" encoding="UTF-8" standalone="no"?>
<svg width="90px" height="90px" viewBox="0 0 90 90" version="1.1" xmlns="http://www.w3.org/2000/svg" xmlns:xlink="http://www.w3.org/1999/xlink">
    <!-- Generator: Sketch 3.8.3 (29802) - http://www.bohemiancoding.com/sketch -->
    <title>pie</title>
    <desc>Created with Sketch.</desc>
    <defs></defs>
    <g id="Page-1" stroke="none" stroke-width="1" fill="none" fill-rule="evenodd">
        <g id="Statistics-expanded" transform="translate(-37.000000, -1838.000000)">
            <g id="pie" transform="translate(37.000000, 1838.000000)">
                <path d="M44.8987826,44.8912174 L6.02182609,67.3368696 C-6.37469565,45.8655652 0.981826087,18.4107826 22.4531304,6.01426087 C29.6031304,1.886 36.6426957,-8.6956522e-05 44.8987826,-8.6956522e-05 L44.8987826,44.8912174 Z M44.8987826,44.8912174 L83.7757391,67.3368696 C71.3792174,88.8081739 43.9244348,96.1646957 22.4531304,83.7681739 C15.3031304,79.6403478 10.1496522,74.4868696 6.02182609,67.3368696 L44.8987826,44.8912174 Z" id="Combined-Shape" fill="#82D7EB"></path>
                <path d="M44.8987826,44.8912174 L44.8987826,-8.6956522e-05 C69.6913913,-8.6956522e-05 89.790087,20.0986087 89.790087,44.8912174 C89.790087,53.1473043 87.904,60.1868696 83.7757391,67.3368696 L44.8987826,44.8912174 Z" id="Fill-7" fill="#59B363"></path>
            </g>
        </g>
    </g>
</svg>