<?xml version="1.0" encoding="UTF-8" standalone="no"?>
<svg width="228px" height="143px" viewBox="0 0 228 143" version="1.1" xmlns="http://www.w3.org/2000/svg" xmlns:xlink="http://www.w3.org/1999/xlink">
    <!-- Generator: Sketch 3.8.3 (29802) - http://www.bohemiancoding.com/sketch -->
    <title>stadium</title>
    <desc>Created with Sketch.</desc>
    <defs></defs>
    <g id="Page-1" stroke="none" stroke-width="1" fill="none" fill-rule="evenodd">
        <g id="Stats" transform="translate(-398.000000, -859.000000)">
            <g id="stadium" transform="translate(398.000000, 859.000000)">
                <g id="Group-6" transform="translate(0.000000, 33.000000)">
                    <g id="Group-5" transform="translate(0.000000, 22.000000)" fill="#82D7EB">
                        <ellipse id="Oval-4-Copy" cx="114" cy="64" rx="114" ry="22"></ellipse>
                        <rect id="Rectangle-48" x="0" y="0" width="228" height="64"></rect>
                    </g>
                    <ellipse id="Oval-4" fill="#005F82" cx="114" cy="22" rx="114" ry="22"></ellipse>
                    <ellipse id="Oval-4-Copy-3" fill="#FFFFFF" cx="114.5" cy="22" rx="90.5" ry="12.125"></ellipse>
                </g>
                <g id="Group-3" transform="translate(59.000000, 38.000000)">
                    <g id="flag">
                        <polyline id="Line" fill="#59B363" points="2 0 14 9.58710831 2 19.1742166"></polyline>
                        <rect id="Rectangle-50" fill="#005F82" x="0" y="0" width="2" height="34"></rect>
                    </g>
                    <g id="flag" transform="translate(96.000000, 0.000000)">
                        <polyline id="Line" fill="#59B363" points="2 0 14 9.58710831 2 19.1742166"></polyline>
                        <rect id="Rectangle-50" fill="#005F82" x="0" y="0" width="2" height="34"></rect>
                    </g>
                </g>
                <g id="Group-4" transform="translate(18.000000, 10.000000)">
                    <g id="flag">
                        <polyline id="Line" fill="#59B363" points="2 0 14 9.58710831 2 19.1742166"></polyline>
                        <rect id="Rectangle-50" fill="#005F82" x="0" y="0" width="2" height="34"></rect>
                    </g>
                    <g id="flag" transform="translate(178.000000, 0.000000)">
                        <polyline id="Line" fill="#59B363" points="2 0 14 9.58710831 2 19.1742166"></polyline>
                        <rect id="Rectangle-50" fill="#005F82" x="0" y="0" width="2" height="34"></rect>
                    </g>
                </g>
                <g id="Group-2" transform="translate(103.000000, 22.000000)" fill="#005F82">
                    <rect id="Rectangle-50" x="0" y="0" width="2" height="16"></rect>
                    <rect id="Rectangle-50-Copy" x="21" y="0" width="2" height="16"></rect>
                </g>
                <rect id="Rectangle-49" fill="#82D7EB" x="87" y="0" width="55" height="27"></rect>
                <rect id="Rectangle-52" fill="#59B363" x="88" y="104" width="53" height="39"></rect>
            </g>
        </g>
    </g>
</svg>