<?xml version="1.0" encoding="UTF-8" standalone="no"?>
<svg width="340px" height="98px" viewBox="0 0 340 98" version="1.1" xmlns="http://www.w3.org/2000/svg" xmlns:xlink="http://www.w3.org/1999/xlink">
    <!-- Generator: Sketch 3.8.3 (29802) - http://www.bohemiancoding.com/sketch -->
    <title>transplants</title>
    <desc>Created with Sketch.</desc>
    <defs></defs>
    <g id="Page-1" stroke="none" stroke-width="1" fill="none" fill-rule="evenodd">
        <g id="Stats" transform="translate(-582.000000, -2101.000000)" fill="#194E64">
            <g id="transplants" transform="translate(582.000000, 2101.000000)">
                <polygon id="Fill-1" points="0 97.7554757 8.81907692 97.7554757 8.81907692 58.0226602 0 58.0226602"></polygon>
                <polygon id="Fill-2" points="12.249035 97.7554757 21.0681119 97.7554757 21.0681119 56.4456214 12.249035 56.4456214"></polygon>
                <polygon id="Fill-3" points="24.4975944 97.7554757 33.3166713 97.7554757 33.3166713 50.4547767 24.4975944 50.4547767"></polygon>
                <polygon id="Fill-4" points="36.7466294 97.7554757 45.5657063 97.7554757 45.5657063 47.9319903 36.7466294 47.9319903"></polygon>
                <polygon id="Fill-5" points="48.9956643 97.7554757 57.8147413 97.7554757 57.8147413 46.985767 48.9956643 46.985767"></polygon>
                <polygon id="Fill-6" points="61.2442238 97.7554757 70.0633007 97.7554757 70.0633007 42.2556019 61.2442238 42.2556019"></polygon>
                <polygon id="Fill-7" points="73.4932587 97.7554757 82.3123357 97.7554757 82.3123357 40.0482233 73.4932587 40.0482233"></polygon>
                <polygon id="Fill-8" points="85.7422937 97.7554757 94.5613706 97.7554757 94.5613706 36.5792136 85.7422937 36.5792136"></polygon>
                <polygon id="Fill-9" points="97.9908531 97.7554757 106.809455 97.7554757 106.809455 35.3180583 97.9908531 35.3180583"></polygon>
                <polygon id="Fill-10" points="110.239413 97.7554757 119.05849 97.7554757 119.05849 33.7414951 110.239413 33.7414951"></polygon>
                <polygon id="Fill-11" points="122.488448 97.7554757 131.307524 97.7554757 131.307524 29.9575534 122.488448 29.9575534"></polygon>
                <polygon id="Fill-12" points="134.737483 97.7554757 143.556084 97.7554757 143.556084 28.3805146 134.737483 28.3805146"></polygon>
                <polygon id="Fill-13" points="146.986042 97.7554757 155.805119 97.7554757 155.805119 24.2816408 146.986042 24.2816408"></polygon>
                <polygon id="Fill-14" points="159.235077 97.7554757 168.054154 97.7554757 168.054154 21.4434466 159.235077 21.4434466"></polygon>
                <polygon id="Fill-15" points="171.484112 97.7554757 180.303189 97.7554757 180.303189 19.236068 171.484112 19.236068"></polygon>
                <polygon id="Fill-16" points="183.732671 97.7554757 192.551748 97.7554757 192.551748 17.3436214 183.732671 17.3436214"></polygon>
                <polygon id="Fill-17" points="195.981706 97.7554757 204.800783 97.7554757 204.800783 12.613932 195.981706 12.613932"></polygon>
                <polygon id="Fill-18" points="208.230741 97.7554757 217.049818 97.7554757 217.049818 9.14492233 208.230741 9.14492233"></polygon>
                <polygon id="Fill-19" points="220.479301 97.7554757 229.298378 97.7554757 229.298378 6.62213592 220.479301 6.62213592"></polygon>
                <polygon id="Fill-20" points="232.728336 97.7554757 241.547413 97.7554757 241.547413 8.19917476 232.728336 8.19917476"></polygon>
                <polygon id="Fill-21" points="244.977371 97.7554757 253.796448 97.7554757 253.796448 9.4603301 244.977371 9.4603301"></polygon>
                <polygon id="Fill-22" points="257.22593 97.7554757 266.045007 97.7554757 266.045007 7.88376699 257.22593 7.88376699"></polygon>
                <polygon id="Fill-23" points="269.47449 97.7554757 278.293566 97.7554757 278.293566 7.25295146 269.47449 7.25295146"></polygon>
                <polygon id="Fill-24" points="281.723524 97.7554757 290.542601 97.7554757 290.542601 7.88376699 281.723524 7.88376699"></polygon>
                <polygon id="Fill-25" points="293.972559 97.7554757 302.791161 97.7554757 302.791161 9.14492233 293.972559 9.14492233"></polygon>
                <polygon id="Fill-26" points="306.221119 97.7554757 315.040196 97.7554757 315.040196 6.30720388 306.221119 6.30720388"></polygon>
                <polygon id="Fill-27" points="318.470154 97.7554757 327.289231 97.7554757 327.289231 4.73016505 318.470154 4.73016505"></polygon>
                <polygon id="Fill-28" points="330.719189 97.7554757 339.53779 97.7554757 339.53779 0.000475728155 330.719189 0.000475728155"></polygon>
            </g>
        </g>
    </g>
</svg>