<?xml version="1.0" encoding="UTF-8" standalone="no"?>
<svg width="32px" height="34px" viewBox="0 0 32 34" version="1.1" xmlns="http://www.w3.org/2000/svg" xmlns:xlink="http://www.w3.org/1999/xlink">
    <!-- Generator: Sketch 3.8.3 (29802) - http://www.bohemiancoding.com/sketch -->
    <title>button swirl</title>
    <desc>Created with Sketch.</desc>
    <defs></defs>
    <g id="Symbols" stroke="none" stroke-width="1" fill="none" fill-rule="evenodd">
        <g id="Dark-green-CTA" transform="translate(-21.000000, -18.000000)" fill="#59B363">
            <path d="M34.8205845,37.2574424 C34.8205845,37.2574424 34.6615062,37.2574424 34.6615062,37.4174666 C34.3461904,37.5746332 34.1842715,37.8946815 34.0280339,38.2147299 C34.0280339,38.5347782 34.0280339,38.851969 34.1842715,39.0119931 L34.1842715,39.1720173 C34.502428,39.6492322 34.9796627,39.966423 35.4540568,39.966423 C36.0903698,40.1264472 36.5619232,40.1264472 37.1982361,39.8092564 C37.3544737,39.6492322 37.5107113,39.6492322 37.6754709,39.4892081 C38.7833373,38.6890872 39.5787285,37.7346574 39.8940443,36.6230609 C40.0531226,35.5028917 40.0531226,34.3884377 39.4168096,33.2711261 C39.4168096,33.1082444 39.2548907,32.9510778 39.1014938,32.7939112 C38.3117839,31.519433 36.8829203,30.559288 35.2978192,30.2420972 C33.7127181,29.9249065 32.1247763,30.0820731 30.5368345,30.8793363 C30.2243593,31.0422181 29.9090435,31.1993847 29.5880463,31.3565513 C27.6876294,32.6310295 26.579763,34.3884377 25.9491314,36.3030126 C25.4690559,38.2147299 25.6281342,40.2893289 26.579763,42.2010462 C26.7360006,42.3582128 26.8950788,42.6782611 27.2103946,42.9983095 C28.6392582,45.2300751 30.8578316,46.6645774 33.5507991,47.1446499 C36.0903698,47.781889 38.9395748,47.4618407 41.4763048,46.1845049 C41.9535395,46.0273383 42.2688554,45.7101476 42.7432494,45.3900992 C45.4390576,43.6355486 47.183237,41.080877 47.8167093,38.3718965 C48.6092599,35.8229401 48.2939441,32.7939112 47.0241587,30.2420972 C46.7060022,29.7620247 46.5497647,29.4476916 46.2344489,28.967619 C44.172113,25.9385902 41.0019107,23.8639911 37.3544737,23.0667279 C33.7127181,22.2694646 29.7471246,22.5866554 26.2587658,24.5040878 C25.307137,24.9813027 24.3555082,25.4613752 23.4067201,23.5439428 C22.4579319,21.6322255 23.4067201,21.152153 24.3555082,20.6749381 C28.6392582,18.2831483 33.7127181,17.8059334 38.3117839,18.9203874 C42.9023277,19.8776748 47.183237,22.5866554 49.8762045,26.5758293 C50.1915203,27.0530442 50.5096768,27.6931409 50.8278333,28.1703558 C52.7339316,31.8366238 53.0520881,35.8229401 52.0947779,39.6492322 C50.9840709,43.3155002 48.6092599,46.6645774 45.1237418,49.0535097 C44.6493477,49.373558 44.0130347,49.6936063 43.3852438,50.0136547 C40.0531226,51.9225144 36.0903698,52.2454203 32.602011,51.4452994 C28.9574147,50.6508938 25.6281342,48.5762947 23.5657983,45.3900992 C23.2504825,45.0700509 23.0914042,44.5899784 22.7732477,44.1127635 C21.3472249,41.2437588 21.031909,38.2147299 21.8216189,35.1828434 C22.6170102,32.3138387 24.5202678,29.7620247 27.2103946,27.8503075 C27.6876294,27.5331167 28.1620234,27.2130684 28.6392582,27.0530442 C31.0140692,25.778566 33.7127181,25.4613752 36.2437667,26.0928992 C38.9395748,26.5758293 41.1581483,28.1703558 42.7432494,30.3992638 C42.9023277,30.7221697 43.0642466,31.0422181 43.2176435,31.1993847 C44.3340319,33.2711261 44.4874288,35.6629159 44.0130347,37.7346574 C43.3852438,39.8092564 42.1097771,41.7209737 40.0531226,42.9983095 C39.7321254,43.3155002 39.4168096,43.4755244 39.1014938,43.6355486 C37.6754709,44.4328118 36.0903698,44.5899784 34.502428,44.2727876 C32.9201675,43.9527393 31.6503822,42.9983095 30.7015941,41.5609495 C30.5368345,41.4037829 30.3834376,41.2437588 30.3834376,41.080877 C29.5880463,39.8092564 29.5880463,38.3718965 29.9090435,37.0974183 C30.2243593,35.8229401 31.0140692,34.5484619 32.2810138,33.7511986 C32.4429328,33.5911745 32.602011,33.5911745 32.9201675,33.4311503 C33.8717963,32.9510778 34.8205845,32.4738629 35.7722133,34.3884377 C36.7210014,36.3030126 35.7722133,36.7802275 34.8205845,37.2574424" id="button-swirl"></path>
        </g>
    </g>
</svg>