<?xml version="1.0" encoding="UTF-8" standalone="no"?>
<svg width="159px" height="54px" viewBox="0 0 159 54" version="1.1" xmlns="http://www.w3.org/2000/svg" xmlns:xlink="http://www.w3.org/1999/xlink">
    <!-- Generator: Sketch 3.8.3 (29802) - http://www.bohemiancoding.com/sketch -->
    <title>dla logo</title>
    <desc>Created with Sketch.</desc>
    <defs>
        <polygon id="path-1" points="3.25593964 0.214148554 0.133201771 0.214148554 0.133201771 3.29160706 3.25593964 3.29160706 3.25593964 0.214148554"></polygon>
    </defs>
    <g id="Symbols" stroke="none" stroke-width="1" fill="none" fill-rule="evenodd">
        <g id="header" transform="translate(-32.000000, -16.000000)">
            <g id="dla-logo" transform="translate(32.000000, 16.000000)">
                <polygon id="Fill-1" fill="#96C0E6" points="1.54293664 52.2876613 52.1941134 52.2876613 52.1941134 2.17084584 1.54293664 2.17084584"></polygon>
                <polygon id="Fill-2" fill="#B4D78B" points="1.54293664 52.2876613 52.1941134 52.2876613 52.1941134 23.5773775 1.54293664 23.5773775"></polygon>
                <g id="Group-20" transform="translate(0.000000, 0.542409)">
                    <path d="M8.82615054,5.55522538 L8.22710097,5.55522538 L5.57131456,5.55522538 L5.57131456,15.857814 L8.82615054,15.857814 L8.82615054,14.0000942 C8.61341114,14.0417132 8.35612703,14.0417132 8.01359356,14.0000942 L8.01359356,7.41294517 C8.35612703,7.41294517 8.61341114,7.45607757 8.82615054,7.45607757 L8.82615054,5.55522538 Z M16.5838424,5.30248468 L16.5838424,7.16020448 C15.8119901,7.16020448 15.682964,7.92069669 15.682964,8.55330514 L15.682964,12.7749828 C15.682964,13.3659723 15.8119901,14.2535916 16.5838424,14.2535916 L16.5838424,16.1113114 C14.0985547,16.1113114 13.241453,14.8869567 13.241453,12.6062368 L13.241453,8.38455911 C13.241453,6.44208795 14.4418562,5.34486037 16.5838424,5.30248468 L16.5838424,5.30248468 Z M8.87146326,15.857814 C9.64177956,15.857814 10.4128639,15.8154383 11.0556901,15.3931948 C11.7845338,14.9709514 12.0840586,14.2112159 12.0840586,13.1556073 L12.0840586,8.59568083 C12.0840586,7.58244792 11.9558005,6.61083398 11.0126815,6.06146348 C10.3690872,5.68235244 9.59877087,5.59760107 8.82615054,5.55522538 L8.82615054,7.45607757 C9.42673613,7.58244792 9.64177956,7.83518861 9.64177956,8.72205118 L9.64177956,12.0999987 C9.68478825,13.197983 9.68478825,13.8313481 8.82615054,14.0000942 L8.82615054,15.857814 L8.87146326,15.857814 Z M25.0673059,15.857814 L27.5541296,15.857814 L27.5541296,5.55522538 L25.2831173,5.55522538 L25.4966247,11.3402632 L25.452848,11.3402632 L23.5681459,5.55522538 L21.0390816,5.55522538 L21.0390816,15.857814 L23.3546385,15.857814 L23.1403631,10.1151518 L23.1818358,10.1151518 L25.0673059,15.857814 Z M16.5838424,16.1113114 L16.5838424,14.2535916 C17.3971674,14.2535916 17.4409441,13.3659723 17.4409441,12.7749828 L17.4409441,8.55330514 C17.4409441,7.92069669 17.3971674,7.16020448 16.5838424,7.16020448 L16.5838424,5.30248468 C18.7258286,5.30248468 19.8824551,6.40046897 19.8824551,8.38455911 L19.8824551,12.6062368 C19.8824551,14.9285757 19.0691301,16.1113114 16.5838424,16.1113114 L16.5838424,16.1113114 Z M32.0101367,5.55522538 L32.0101367,7.41294517 L31.3250698,12.057623 L32.0101367,12.057623 L32.0101367,13.8729671 L31.024009,13.8729671 L30.7667249,15.857814 L28.2814372,15.857814 L30.5532175,5.55522538 L32.0101367,5.55522538 Z M35.6105782,15.0973217 L33.5092967,5.55522538 L32.0101367,5.55522538 L32.0101367,7.41294517 L32.0523774,7.41294517 L32.7389804,12.057623 L32.0101367,12.057623 L32.0101367,13.8729671 L32.9532558,13.8729671 L33.2950213,15.857814 L35.6105782,15.857814 L35.6105782,15.0973217 Z M35.4385435,7.62406689 L35.6105782,7.62406689 L35.6105782,5.55522538 L35.4385435,5.55522538 L35.4385435,7.62406689 Z M48.5515849,15.857814 L48.5515849,13.8313481 L45.2084275,13.8313481 L45.2084275,11.5930039 L48.2943008,11.5930039 L48.2943008,9.52491908 L45.2084275,9.52491908 L45.2084275,7.62406689 L48.3810862,7.62406689 L48.3810862,5.55522538 L42.7661485,5.55522538 L42.7661485,15.857814 L48.5515849,15.857814 Z M35.6105782,7.62406689 L37.3670223,7.62406689 L37.3670223,15.857814 L39.8093013,15.857814 L39.8093013,7.62406689 L41.8230294,7.62406689 L41.8230294,5.55522538 L35.6105782,5.55522538 L35.6105782,7.62406689 Z M35.6105782,15.857814 L35.6105782,15.0973217 L35.781077,15.857814 L35.6105782,15.857814 Z" id="Fill-3" fill="#221F20"></path>
                    <path d="M48.2505241,47.0585773 L48.2505241,43.300762 L42.1233222,43.300762 L42.1233222,39.2062114 L47.7367239,39.2062114 L47.7367239,35.4476394 L42.1233222,35.4476394 L42.1233222,31.986454 L47.9509993,31.986454 L47.9509993,28.227882 L37.6243064,28.227882 L37.6243064,47.0585773 L48.2505241,47.0585773 Z M29.396591,47.0585773 L29.396591,39.0790844 L35.0107607,39.0790844 L35.0107607,35.3205124 L29.396591,35.3205124 L29.396591,31.986454 L35.4807842,31.986454 L35.4807842,28.227882 L24.9390478,28.227882 L24.9390478,47.0585773 L29.396591,47.0585773 Z M17.9117356,47.0585773 L22.4107515,47.0585773 L22.4107515,28.227882 L17.9117356,28.227882 L17.9117356,47.0585773 Z M16.1975322,47.0585773 L16.1975322,43.300762 L10.66938,43.300762 L10.66938,28.227882 L6.17113214,28.227882 L6.17113214,47.0585773 L16.1975322,47.0585773 Z" id="Fill-5" fill="#221F20"></path>
                    <path d="M0,0.235336397 L26.739115,0.235336397 L26.739115,2.89592409 L2.65578641,2.89592409 L2.65578641,50.3529085 L26.739115,50.3529085 L26.739115,52.9696071 L0,52.9696071 L0,0.235336397 Z M26.739115,0.235336397 L53.4782299,0.235336397 L53.4782299,52.9696071 L26.739115,52.9696071 L26.739115,50.3529085 L50.8224435,50.3529085 L50.8224435,2.89592409 L26.739115,2.89592409 L26.739115,0.235336397 Z" id="Fill-7" fill="#221F20"></path>
                    <path d="M26.7394222,20.080097 C35.994738,20.080097 44.8660476,21.1773246 52.9217283,23.1621714 L52.9217283,26.6664893 C44.9950737,24.4705207 36.123764,23.2037904 26.7394222,23.2037904 C17.4833384,23.2037904 8.65580542,24.4281451 0.814400204,26.6241136 L0.814400204,23.0774201 C8.78406346,21.1349489 17.5693557,20.080097 26.7394222,20.080097" id="Fill-9" fill="#221F20"></path>
                    <path d="M20.6125275,18.93951 C18.8983242,18.7283883 17.3131469,20.07987 17.0550947,21.9368331 C16.7978106,23.7953096 17.9982138,25.526659 19.7116492,25.737024 C21.4258525,25.9481458 23.0110298,24.5974208 23.2675459,22.7389443 C23.5255981,20.8819812 22.3251949,19.1513885 20.6125275,18.93951" id="Fill-11" fill="#96C0E6"></path>
                    <path d="M19.7118028,22.6129523 C19.7118028,22.6129523 19.6687941,22.6129523 19.6687941,22.655328 C19.5835447,22.696947 19.539768,22.7816983 19.4975273,22.8664497 C19.4975273,22.9512011 19.4975273,23.0351957 19.539768,23.0775714 L19.539768,23.1199471 C19.6257854,23.2463174 19.7548114,23.3303121 19.8830695,23.3303121 C20.0551042,23.3726878 20.1825943,23.3726878 20.354629,23.2886931 C20.3968697,23.2463174 20.4391104,23.2463174 20.4836551,23.2039418 C20.7831799,22.9920633 20.9982233,22.7393226 21.0834727,22.444963 C21.1264813,22.1483332 21.1264813,21.8532168 20.9544466,21.5573437 C20.9544466,21.5142113 20.9106699,21.4725923 20.8691972,21.4309733 C20.6556898,21.0934813 20.2693797,20.8392272 19.8408288,20.7552325 C19.412278,20.6712378 18.9829591,20.7128568 18.5536403,20.9239785 C18.4691589,20.9671109 18.3839096,21.0087299 18.2971242,21.0503489 C17.783324,21.3878409 17.4837992,21.8532168 17.3133005,22.3602116 C17.1835064,22.8664497 17.2265151,23.4158202 17.4837992,23.9220583 C17.5260399,23.9636773 17.5690485,24.0484286 17.6542979,24.13318 C18.0406081,24.7241695 18.6404257,25.1040372 19.3685013,25.2311643 C20.0551042,25.3999103 20.8254205,25.315159 21.5112555,24.9769102 C21.6402816,24.9352912 21.7255309,24.8512965 21.853789,24.7665452 C22.5826326,24.301926 23.0541921,23.6254285 23.2254589,22.9080687 C23.4397343,22.2330845 23.3544849,21.4309733 23.0111834,20.7552325 C22.9251661,20.6281054 22.8829254,20.5448675 22.797676,20.4177404 C22.2400991,19.6156292 21.3829974,19.0662587 20.3968697,18.855137 C19.412278,18.6440153 18.3401329,18.72801 17.3970138,19.2357615 C17.1397297,19.3621318 16.8824456,19.4892589 16.6259295,18.9815074 C16.3694134,18.4752693 16.6259295,18.3481422 16.8824456,18.2217719 C18.0406081,17.5884067 19.412278,17.4620364 20.6556898,17.7571527 C21.8967976,18.0106501 23.0541921,18.72801 23.7822678,19.7843753 C23.8675171,19.9107456 23.9535345,20.0802484 24.0395519,20.2066187 C24.5548881,21.1774759 24.6409055,22.2330845 24.3820853,23.2463174 C24.0817925,24.2171747 23.4397343,25.1040372 22.4973832,25.7366457 C22.3691252,25.8213971 22.1970904,25.9061484 22.0273597,25.9908998 C21.1264813,26.4963812 20.0551042,26.5818893 19.1119852,26.3700109 C18.1266254,26.1596458 17.2265151,25.6102753 16.6689382,24.7665452 C16.5836888,24.6817938 16.5406801,24.5546667 16.4546627,24.4282964 C16.0691206,23.6685609 15.9838712,22.8664497 16.1973786,22.0635818 C16.4124221,21.3038463 16.9269903,20.6281054 17.6542979,20.1218673 C17.783324,20.0378727 17.911582,19.9531213 18.0406081,19.9107456 C18.6826663,19.5732536 19.412278,19.4892589 20.0965769,19.6564915 C20.8254205,19.7843753 21.4252381,20.2066187 21.853789,20.7968515 C21.8967976,20.8823596 21.9405743,20.9671109 21.982047,21.0087299 C22.2838758,21.5573437 22.3253485,22.1907089 22.1970904,22.7393226 C22.0273597,23.2886931 21.6825222,23.7949312 21.1264813,24.13318 C21.039696,24.2171747 20.9544466,24.2595504 20.8691972,24.301926 C20.4836551,24.5130478 20.0551042,24.5546667 19.6257854,24.4706721 C19.1980026,24.3859207 18.8547011,24.13318 18.598185,23.7525556 C18.5536403,23.7109366 18.5121676,23.6685609 18.5121676,23.6254285 C18.2971242,23.2886931 18.2971242,22.9080687 18.3839096,22.5705766 C18.4691589,22.2330845 18.6826663,21.8955925 19.0251998,21.6844707 C19.0689765,21.6420951 19.1119852,21.6420951 19.1980026,21.5997194 C19.4552867,21.4725923 19.7118028,21.346222 19.9690869,21.8532168 C20.225603,22.3602116 19.9690869,22.4865819 19.7118028,22.6129523" id="Fill-13" fill="#221F20"></path>
                    <g id="Group-17" transform="translate(54.346823, 0.000000)">
                        <mask id="mask-2" fill="white">
                            <use xlink:href="#path-1"></use>
                        </mask>
                        <g id="Clip-16"></g>
                        <path d="M1.99102344,1.17055265 C1.9134542,1.12969038 1.79057224,1.10850254 1.62007351,1.10850254 L1.35741332,1.10850254 L1.35741332,1.71235606 L1.63543376,1.71235606 C1.76522783,1.71235606 1.86199738,1.70024872 1.92727842,1.67452062 C2.04632032,1.6291181 2.10699329,1.54285331 2.10699329,1.41421284 C2.10699329,1.29313945 2.06782466,1.21217162 1.99102344,1.17055265 L1.99102344,1.17055265 Z M1.66615425,0.90040765 C1.87889365,0.90040765 2.03403212,0.920082076 2.13540974,0.961701053 C2.31358859,1.03358838 2.40191,1.1750929 2.40191,1.38697133 C2.40191,1.53679964 2.3458451,1.64803582 2.2329473,1.71916643 C2.17381036,1.75700187 2.09086503,1.78424338 1.98411133,1.80013426 C2.11851347,1.82132211 2.21681904,1.87656184 2.27749201,1.96509675 C2.339701,2.05514509 2.37118951,2.14216658 2.37118951,2.22691795 L2.37118951,2.35026147 C2.37118951,2.38885361 2.37349354,2.4312293 2.37502957,2.4751184 C2.37733361,2.52052092 2.3834777,2.54927585 2.39115783,2.56365331 L2.40191,2.58408445 L2.12081751,2.58408445 C2.1200495,2.57803078 2.11851347,2.57349053 2.11697745,2.56743686 C2.11620944,2.5621399 2.1139054,2.55457281 2.11236937,2.54851914 L2.10699329,2.49403612 L2.10699329,2.36009868 C2.10699329,2.16562455 2.05169641,2.03698408 1.94263866,1.97493397 C1.87735762,1.93936866 1.76445982,1.92045094 1.6001052,1.92045094 L1.35741332,1.92045094 L1.35741332,2.58408445 L1.06326462,2.58408445 L1.06326462,0.90040765 L1.66615425,0.90040765 Z M0.738395435,0.813386153 C0.475735241,1.07218052 0.343637132,1.38394449 0.343637132,1.75019149 C0.343637132,2.11795191 0.475735241,2.43349942 0.736859411,2.6930505 C0.998751593,2.95335828 1.31824469,3.08275546 1.69380269,3.08275546 C2.06936069,3.08275546 2.38885379,2.95335828 2.64997796,2.6930505 C2.91340617,2.43349942 3.04550428,2.11795191 3.04550428,1.75019149 C3.04550428,1.38394449 2.91340617,1.07218052 2.64997796,0.813386153 C2.38731777,0.553078369 2.06628864,0.422924477 1.69380269,0.422924477 C1.32131674,0.422924477 1.00259165,0.553078369 0.738395435,0.813386153 L0.738395435,0.813386153 Z M2.79820433,2.83909527 C2.49330346,3.14102203 2.12388956,3.29160706 1.69149865,3.29160706 C1.25910775,3.29160706 0.888925839,3.14102203 0.586329007,2.83909527 C0.283732175,2.53868193 0.133201771,2.17546176 0.133201771,1.74867807 C0.133201771,1.32567792 0.2852682,0.96321447 0.590937081,0.662801127 C0.893533912,0.363901201 1.26064377,0.214072884 1.69149865,0.214072884 C2.12388956,0.214072884 2.49330346,0.363901201 2.79820433,0.662801127 C3.1031052,0.961701053 3.25593964,1.3234078 3.25593964,1.74867807 C3.25593964,2.17470506 3.1031052,2.53716851 2.79820433,2.83909527 L2.79820433,2.83909527 Z" id="Fill-15" fill="#221F20" mask="url(#mask-2)"></path>
                    </g>
                    <path d="M130.282298,21.8311209 L130.283066,21.8311209 C131.249993,21.6782657 132.315226,20.4970435 132.135512,19.3861952 C132.090967,19.1077264 131.961941,18.8860107 131.763026,18.7445062 C131.567182,18.6030017 131.31297,18.5523022 131.030342,18.596948 C130.094135,18.7445062 129.008934,19.9953456 129.182504,21.0721421 C129.27313,21.6321065 129.694001,21.9226826 130.282298,21.8311209 L130.282298,21.8311209 Z M148.343642,24.1156244 C148.33673,24.1239482 148.129367,24.3623114 148.129367,24.3623114 C147.993429,24.5083562 147.892051,24.6165655 147.892051,24.7278017 C147.892051,24.7330987 147.893587,24.7383956 147.893587,24.7429359 C147.906643,24.9033581 148.248409,25.0357821 148.473436,25.106156 C148.251481,25.3256015 147.41358,26.1640348 147.41358,26.1640348 L146.217016,27.3649314 C144.537374,29.0486082 142.049014,31.2604677 141.631215,31.4488881 C141.613551,31.4140795 141.589743,31.345219 141.57899,31.2196054 C141.577454,31.1916072 141.575918,31.1628522 141.575918,31.1333406 C141.575918,30.3698216 142.327802,28.7996511 143.566606,26.9903606 C145.661744,23.8553166 148.794466,20.8201581 149.69304,20.7543244 C149.862003,20.7414604 149.92882,20.79443 149.943412,20.9480419 L149.943412,20.9593925 C149.943412,21.3316932 148.587102,23.8469928 148.343642,24.1156244 L148.343642,24.1156244 Z M110.082039,24.4198213 C110.927621,24.3577711 110.954501,24.6839126 110.969094,24.859469 L110.969094,24.8617391 C110.969094,25.1901507 108.503006,27.0910029 106.550719,27.7622035 C107.73269,25.9286984 109.24721,24.4811147 110.082039,24.4198213 L110.082039,24.4198213 Z M158.061302,22.7739799 C157.954548,22.630962 157.804017,22.5885863 157.707248,22.5953966 L157.655023,22.5991802 L157.621999,22.6423126 C157.290985,23.0819603 155.831762,24.8087695 154.341818,26.4092084 C152.311962,28.5189121 151.508621,28.9910984 151.1922,29.0145563 C150.954884,29.0319606 150.798978,28.9403989 150.756737,28.4326474 C150.717568,27.9680282 150.923396,27.2612623 151.123079,26.5779544 C151.318922,25.9052404 151.503245,25.2696051 151.46638,24.8443348 C151.411851,24.1731342 150.959492,23.8182379 150.224504,23.8719642 C150.140023,23.8787746 150.046326,23.9067728 149.9365,23.9514186 C150.421884,22.9798047 150.989445,21.568543 150.989445,20.9707431 C150.989445,20.9480419 150.988677,20.926854 150.987909,20.9064229 C150.898051,19.8303832 150.105462,19.215179 148.918116,19.3029572 C147.616335,19.3975458 146.014261,20.4690453 144.408348,22.3199547 C143.577358,23.2756777 142.82317,24.3464205 142.184952,25.4315408 C141.499885,26.2404623 140.676576,27.1568365 139.80565,28.0550497 C137.336491,30.5294871 135.4395,31.8809688 134.322042,31.9626933 C133.562478,32.0186898 133.047142,31.5003443 132.972645,30.6089415 C132.790626,28.3902717 134.28057,25.8129219 135.612303,24.2783167 C136.600735,23.1394702 137.626031,22.4024359 138.290362,22.3547633 C138.376379,22.3479529 138.439356,22.3577901 138.467773,22.3835182 C138.510781,22.4228671 138.513853,22.5371301 138.515389,22.6582035 L138.52307,22.841327 C138.533822,22.9782912 138.507709,23.1432537 138.481597,23.3029193 C138.456252,23.4678817 138.431676,23.6222503 138.443196,23.7592146 C138.471613,24.1004902 138.65056,24.114111 138.705856,24.1103274 C138.948548,24.0929231 139.31489,23.9340143 139.586767,23.6207369 C139.768017,23.4111286 139.976149,23.0501786 139.930836,22.5182124 C139.875539,21.8265806 138.44166,20.2881919 137.54539,20.3540256 C136.609183,20.422886 135.052422,21.5367612 133.671536,23.1281196 C132.065622,24.9782723 131.037254,27.0372766 130.759234,28.8768353 C130.245433,29.2930251 129.535022,29.8287749 128.858403,30.3017178 C127.548942,31.1605821 126.615807,31.615364 126.090487,31.6539562 C125.848563,31.6721172 125.724145,31.4443479 125.714161,31.3225178 C125.665008,30.714124 126.757122,29.2007067 127.168008,28.6316617 C127.564303,28.1049925 128.14108,27.4330352 128.604191,26.8912318 C128.962085,26.4735286 129.244713,26.1443603 129.351467,25.9915052 C129.578799,25.6093673 129.687088,24.5628392 129.6556,24.181458 C129.623343,23.7856994 129.074983,23.3801035 128.39222,23.4300463 C127.965205,23.4610714 127.489037,23.7471072 127.083527,24.2124831 C126.727169,24.6241326 126.512126,25.0743743 126.534398,25.3596534 C126.553598,25.5881795 126.462205,25.8182189 126.238713,26.1050115 C126.235641,26.1110651 126.214137,26.1413335 126.214137,26.1413335 C125.856243,26.6717863 125.27025,27.5881605 124.777186,28.5786921 C123.545294,29.9059591 122.698945,30.7080703 122.182841,31.1620955 C120.736674,32.4288259 119.48251,33.0500837 118.930309,33.0894325 C118.781314,33.1007832 118.580863,33.0742984 118.552447,32.7231855 C118.524798,32.407638 119.255178,31.4708327 119.960213,30.5627823 C121.009318,29.2113006 122.201273,27.6797222 122.12908,26.810264 C122.029238,25.586666 121.001638,24.9548143 119.313547,25.0789145 C118.745986,25.1197768 117.89042,25.1825836 117.8789,25.0441059 C117.908084,24.9616247 118.340475,24.4107408 118.720641,23.9249338 L119.108488,23.4285329 C119.816595,22.5742088 120.418716,21.5730832 120.39414,21.2878041 C120.334235,20.5575802 119.348875,20.6294675 119.02631,20.6529255 C118.271354,20.7089219 117.218409,21.4338488 116.211545,22.5946399 C115.450445,23.4709086 114.707009,24.6400235 114.759234,25.2741454 C114.801475,25.7871938 115.118664,26.1617646 115.635536,26.3600223 C114.744642,27.4965987 113.413677,29.0100161 111.97135,30.3819289 C109.585903,32.6308671 107.507662,33.9263523 106.115256,34.028508 C105.355692,34.0837477 104.838052,33.5646456 104.76509,32.6755129 C104.758178,32.5907615 104.755106,32.50374 104.755106,32.4152051 C104.755106,31.6743873 104.99703,30.7670936 105.455534,29.7697516 C107.506126,29.0637424 112.61264,26.4886628 112.61264,24.6029448 C112.61264,24.5749465 112.611104,24.5461916 112.6088,24.5189501 C112.552735,23.8469928 111.929877,23.5844149 111.430669,23.3740499 L111.092744,23.2211947 L110.677249,22.9495363 C110.300155,22.6824181 109.873908,22.3804914 109.337068,22.4198402 C108.403165,22.487944 106.845636,23.6025759 105.46475,25.1924208 C103.424909,27.5404878 102.314363,30.2237768 102.490238,32.3690459 C102.652289,34.316814 104.005526,35.4359861 106.024631,35.2884279 C107.878612,35.1522204 110.219514,33.6947995 112.982822,30.9592976 C115.062599,28.9048336 116.292955,27.2915307 116.890468,26.5083372 C116.898148,26.5075805 116.90506,26.5083372 116.91274,26.5075805 C117.471085,26.4674749 117.99103,26.3834803 118.449533,26.3100795 L119.441037,26.1776555 C119.753618,26.1534408 119.945621,26.192033 119.953301,26.2790545 C119.982485,26.6505984 119.309707,27.5647025 118.595455,28.5325329 C117.531758,29.9755763 116.326747,31.6108238 116.416605,32.6982141 C116.511838,33.854465 117.535598,34.4083757 118.451069,34.3417854 C120.11996,34.2199553 121.923252,32.7239422 122.848707,31.8431333 C123.26881,31.4541851 123.646672,31.080371 123.984597,30.7300149 C123.922388,31.038752 123.893972,31.3361385 123.914708,31.6025 C123.993814,32.5642767 124.585183,33.0538672 125.578223,32.9812232 C126.759426,32.8957151 128.02511,32.0572819 128.864547,31.5033711 L128.957477,31.441321 C129.384492,31.1469614 130.087223,30.5589987 130.686272,30.0293027 C130.689344,30.1216211 130.692417,30.2139396 130.698561,30.3047446 C130.859843,32.2525127 132.213081,33.3701714 134.232185,33.2218565 C135.726737,33.1128905 137.822642,31.6864946 140.464605,28.9820179 C140.512989,28.9328318 140.560606,28.8844024 140.608223,28.8352164 C140.272601,29.854503 140.106711,30.7807144 140.166616,31.5056413 C140.226521,32.2434322 140.695776,33.0046812 141.294826,32.9600353 C141.978357,32.9100926 143.872275,31.0924783 145.818418,29.1371431 L145.872179,29.0849302 C146.965828,28.0209978 148.769889,26.2631636 149.021029,26.0989578 C149.038693,26.1095517 149.064038,26.132253 149.064038,26.1761421 C149.064038,26.1814391 149.06327,26.1882494 149.062502,26.1958165 C149.010277,26.355482 148.869731,27.3149886 148.869731,27.9755953 C148.869731,28.072454 148.873571,28.1632591 148.879715,28.2434702 C149.003365,29.7440235 149.593198,30.5658091 150.499453,30.4999754 C151.718288,30.4099271 153.480876,28.667227 154.532285,27.6259959 L154.771905,27.3891461 C155.768785,26.4099651 157.857778,23.8363989 158.06975,23.5216081 C158.2318,23.1220659 158.153463,22.89581 158.061302,22.7739799 L158.061302,22.7739799 Z M101.165417,33.7886313 C101.027175,33.7984686 100.864356,33.9263523 100.694625,34.0610465 C100.606304,34.1291502 100.474974,34.2328193 100.428893,34.2426565 C100.429661,34.2411431 100.429661,34.2396297 100.429661,34.2358462 C100.429661,34.2131449 100.422749,34.160932 100.421213,34.1488247 C100.422749,34.1405009 100.524127,33.6456134 100.524127,33.6456134 C100.771427,32.4772552 101.325164,29.8696371 101.325164,28.4129729 C101.325164,28.2858459 101.321324,28.168556 101.312107,28.0611034 C101.202282,26.7285394 100.642401,26.1723585 99.4965264,26.2563532 C97.4413255,26.4061815 94.8777006,29.0160697 93.586672,30.534784 C94.2279622,29.2302183 95.0942801,27.2635325 95.0942801,26.4167754 C95.0942801,26.3857504 95.0935121,26.3569955 95.09044,26.329754 C95.0028866,25.2832259 93.9146132,24.7330987 92.9115892,24.8064994 C90.4777584,24.9850826 86.9387578,28.2253092 84.3567006,30.5915372 C84.3567006,30.5915372 84.1808258,30.7512027 84.0356715,30.8836267 C84.7768033,29.6539752 85.9679903,27.6479405 85.9679903,27.4383322 L85.9679903,27.4345486 C85.9311258,26.9926307 84.7476189,26.8987989 84.2606991,26.9351209 C84.1485693,26.942688 84.0210793,27.0372766 83.8336843,27.2529385 C82.6463373,28.6210678 79.2647793,34.9289913 79.310092,35.470038 C79.3484926,35.9210364 80.7209306,36.5392674 80.9090936,36.5248899 C81.0050951,36.5180795 81.0849684,36.4393818 82.2415948,35.1257356 C84.6185928,32.4295826 90.1836097,26.1133353 92.5775039,25.9385356 C92.9400057,25.9120508 93.0083588,26.0058826 93.0329352,26.3002423 C93.0751758,26.804967 91.8279239,29.3164831 90.8248999,31.3338684 C90.1751615,32.6407043 89.5615197,33.8741394 89.3434042,34.4681557 C89.1744415,34.9600164 89.8694926,35.5010631 90.4186214,35.7288324 C90.8725167,35.9164961 91.1989219,35.8953083 91.3148917,35.6705658 C91.9116373,34.4424276 93.0774799,32.8003698 94.5935361,31.0410221 C96.3215637,29.0539052 97.8675724,27.7372321 98.5295989,27.6903161 C98.724674,27.675182 98.8014753,27.7039369 98.8306597,28.0626168 C98.909765,29.0198533 98.5526393,30.306258 98.2085698,31.5472603 C97.8637323,32.792046 97.5373271,33.9679713 97.6102882,34.8578607 C97.7108979,36.0610275 98.281531,36.2002619 98.6117762,36.1760472 C99.2569065,36.1291313 100.795235,35.2808608 101.309803,34.6876012 C101.457262,34.5180985 101.524079,34.3728104 101.513327,34.2426565 C101.48875,33.9490536 101.354348,33.7750106 101.165417,33.7886313 L101.165417,33.7886313 Z M70.480255,24.0051449 C72.6222412,21.7796647 82.5718401,12.1808152 85.0248713,10.783931 C83.8405964,12.7710479 79.4544783,20.4872063 78.0098473,23.3838871 C75.6551217,23.5110141 73.0016393,23.7304597 70.480255,24.0051449 L70.480255,24.0051449 Z M78.6926102,31.1008021 L78.6572816,31.1045857 L78.6296332,31.1280436 C77.6726899,31.9225878 76.7602913,33.0341928 75.9999592,34.2873024 C76.363229,33.3179585 76.7149786,32.3425611 77.051368,31.3891081 C77.8838933,29.0289338 78.746371,26.5900617 79.874581,24.2934509 C79.9851748,24.2858838 80.4175657,24.2548588 80.4175657,24.2548588 C81.0104712,24.2086995 81.622577,24.1617836 82.2293066,24.1769178 L82.4643184,24.181458 L81.8514446,23.334701 C81.8514446,23.334701 80.5488958,23.3422681 80.2416909,23.3430248 C81.3944773,21.1092208 82.6517134,18.9056852 83.8429004,16.8557614 L84.9880067,15.0154459 C86.695298,12.2890245 88.2343945,9.817614 88.328092,9.53611837 L88.3303961,9.5300647 C88.4371498,9.12371214 88.4886066,8.7801664 88.4886066,8.44191763 C88.4886066,8.31025032 88.4809265,8.18009643 88.4655662,8.0469157 C88.451742,7.92735573 88.3150358,6.8861246 87.7036981,6.95422838 C86.4003812,7.09875973 80.7823715,11.7676522 76.1036408,16.1989382 C72.6184012,19.5662918 69.5025754,22.7073895 68.1378176,24.2268605 C67.0610644,24.3766889 66.2331472,24.5628392 65.280044,24.7792579 L64.4697911,24.9616247 C64.339229,24.9888662 51.5502888,27.8605756 51.5502888,30.0641113 C51.5502888,30.0860558 51.5518248,30.1072436 51.5541288,30.1284315 C51.5764012,30.3282026 51.6962111,30.5181365 51.8974303,30.6762886 C52.2322836,30.9388665 52.7745003,31.0970186 53.1884589,31.0508594 C53.8858141,30.9736751 55.2651641,30.1935084 56.4832315,29.5049035 C57.0323603,29.1938963 57.5069919,28.9252647 57.829557,28.773923 C60.7157471,27.482978 64.8246127,26.1057682 66.6471058,25.8030847 C65.5081436,27.0962998 64.3714855,28.5045347 63.2693879,29.8764475 C62.3032285,31.0788576 61.3040445,32.3236434 60.3240609,33.4602198 C60.3240609,33.4609765 59.1705064,34.8374296 59.1705064,34.8374296 C58.4163184,35.7507769 57.6352499,36.6959061 56.8219249,37.5373661 L56.510112,37.8317258 C55.4026383,38.8616063 55.1945069,39.114347 55.1945069,39.2543381 C55.1945069,39.259635 55.195275,39.2641753 55.196043,39.2694723 C55.2344436,39.6115046 56.1138176,39.540374 56.3803179,39.5108623 C57.1675305,39.4238408 57.7781002,38.8184739 58.26886,38.3311535 L58.3187808,38.2834809 C59.2864763,37.3572694 60.1512581,36.2358272 60.9868554,35.1522204 L61.9499428,33.9225688 C64.4290864,30.8631956 66.7922601,28.0406723 68.978023,25.5314263 C71.3196924,25.0562133 74.4186219,24.6596979 77.5183194,24.4349554 C76.112857,26.888205 70.8020522,38.3076955 70.8020522,42.1442085 C70.8020522,42.2758758 70.8081963,42.3977059 70.8204845,42.5119689 C70.9134139,43.3254307 71.3588611,44.8358213 72.3787813,44.722315 C72.5846086,44.7003704 72.730531,44.5762702 72.8134763,44.3537978 C73.3088442,42.8101121 74.2834518,40.5127446 75.5591201,37.8786417 C76.7579873,35.3648555 78.0705202,32.9267402 78.9806148,31.5147218 L79.0028871,31.4791565 L78.998279,31.4390509 C78.9890629,31.3520294 78.8362285,31.085668 78.6926102,31.1008021 L78.6926102,31.1008021 Z" id="Fill-18" fill="#221F20"></path>
                </g>
            </g>
        </g>
    </g>
</svg>