<?xml version="1.0" encoding="UTF-8" standalone="no"?>
<svg width="19px" height="27px" viewBox="0 0 19 27" version="1.1" xmlns="http://www.w3.org/2000/svg" xmlns:xlink="http://www.w3.org/1999/xlink">
    <!-- Generator: Sketch 3.8.3 (29802) - http://www.bohemiancoding.com/sketch -->
    <title>$</title>
    <desc>Created with Sketch.</desc>
    <defs></defs>
    <g id="Symbols" stroke="none" stroke-width="1" fill="none" fill-rule="evenodd">
        <g id="Give-to-DLA" transform="translate(-44.000000, -91.000000)" fill="#59B363">
            <g id="Dark-green-CTA-Copy" transform="translate(18.000000, 70.000000)">
                <path d="M33.86,48 L37.7,48 L37.7,45.24 C41.96,44.7 44.48,42.27 44.48,38.4 C44.48,30.96 33.35,32.58 33.35,30.69 C33.35,30.18 33.68,29.79 34.88,29.79 C36.77,29.79 39.02,30.45 40.76,31.77 L44,27.48 C42.23,26.04 40.1,25.17 37.7,24.84 L37.7,21.96 L33.86,21.96 L33.86,24.81 C29.45,25.38 27.2,28.29 27.2,31.32 C27.2,39.21 38.36,37.26 38.36,39.18 C38.36,39.96 37.28,40.26 36.14,40.26 C33.44,40.26 31.19,39.12 29.69,37.68 L26.54,42.18 C28.31,43.8 30.65,44.94 33.86,45.24 L33.86,48 Z" id="$"></path>
            </g>
        </g>
    </g>
</svg>