<?xml version="1.0" encoding="UTF-8" standalone="no"?>
<svg width="11px" height="15px" viewBox="0 0 11 15" version="1.1" xmlns="http://www.w3.org/2000/svg" xmlns:xlink="http://www.w3.org/1999/xlink">
    <!-- Generator: Sketch 3.8.3 (29802) - http://www.bohemiancoding.com/sketch -->
    <title>$</title>
    <desc>Created with Sketch.</desc>
    <defs></defs>
    <g id="Page-1" stroke="none" stroke-width="1" fill="none" fill-rule="evenodd">
        <g id="Home" transform="translate(-488.000000, -11.000000)" fill="#59B363">
            <path d="M492.882488,26 L495.09447,26 L495.09447,24.4101382 C497.548387,24.0990783 499,22.6993088 499,20.4700461 C499,16.1843318 492.58871,17.1175115 492.58871,16.0288018 C492.58871,15.735023 492.778802,15.5103687 493.470046,15.5103687 C494.558756,15.5103687 495.854839,15.890553 496.857143,16.6509217 L498.723502,14.1797235 C497.703917,13.3502304 496.476959,12.8490783 495.09447,12.6589862 L495.09447,11 L492.882488,11 L492.882488,12.6417051 C490.342166,12.9700461 489.046083,14.6463134 489.046083,16.3917051 C489.046083,20.9366359 495.474654,19.8133641 495.474654,20.9193548 C495.474654,21.3686636 494.852535,21.5414747 494.195853,21.5414747 C492.640553,21.5414747 491.34447,20.8847926 490.480415,20.0552995 L488.665899,22.6474654 C489.685484,23.5806452 491.03341,24.2373272 492.882488,24.4101382 L492.882488,26 Z" id="$"></path>
        </g>
    </g>
</svg>