<?xml version="1.0" encoding="UTF-8" standalone="no"?>
<svg width="155px" height="247px" viewBox="0 0 155 247" version="1.1" xmlns="http://www.w3.org/2000/svg" xmlns:xlink="http://www.w3.org/1999/xlink">
    <!-- Generator: Sketch 3.8.3 (29802) - http://www.bohemiancoding.com/sketch -->
    <title>question mark</title>
    <desc>Created with Sketch.</desc>
    <defs></defs>
    <g id="Page-1" stroke="none" stroke-width="1" fill="none" fill-rule="evenodd">
        <g id="Home" transform="translate(-725.000000, -1385.000000)" fill="#0E698B">
            <g id="questions" transform="translate(-1.000000, 1371.000000)">
                <g id="question-mark" transform="translate(725.218750, 14.000000)">
                    <path d="M76.5383048,151.498528 C77.9406277,149.893484 80.1841577,149.098842 82.4255489,148.302134 C100.520116,142.626435 114.750033,130.051665 124.112496,114.9255 C133.493799,99.779826 136.944527,82.0740831 133.472623,65.0352473 C132.884075,62.3743968 132.332186,60.8046208 131.753058,58.1340157 C127.277429,45.3854116 118.012276,34.3456611 106.707514,28.6882974 C95.3855481,21.9586459 80.9056596,19.5502898 65.9936966,23.039876 C63.3311312,23.6168367 61.2058083,23.6569327 59.0882697,24.779071 C46.3282537,29.2910945 35.7906372,38.0229093 29.5383822,48.8382558 C22.2424591,59.663715 19.7685256,71.9975451 22.6271999,84.2403482 C22.6710283,86.3751691 23.2329521,87.9734865 23.2498491,89.0266263 C26.6016304,98.5785956 33.1360154,105.944452 41.2354352,110.580098 C49.8438377,114.708143 59.4997939,116.680777 70.1400212,114.344393 C71.7394643,113.758758 73.3200676,113.192632 74.9107053,112.655048 C82.89031,109.822976 88.6910364,104.886785 92.8676383,98.4010465 C97.0442403,91.9153082 98.5141412,83.8525617 96.7945759,76.9513301 C96.7682589,75.9079449 96.7702018,74.835296 96.2157551,74.299873 C94.5225066,68.4420265 90.7289237,64.7786061 86.3883712,61.6426571 C81.5589046,59.0713919 75.6724644,58.6652919 69.2750986,59.8394419 C68.1840238,59.8791797 67.6659283,60.4156832 66.6031133,60.4261572 C63.4133397,61.5685241 61.8496334,63.1877894 60.2842915,65.8988516 C58.7111652,67.5278715 58.2083311,70.2093119 58.777732,72.8705236 L59.3224516,73.3965532 C59.3490757,74.4590863 60.4287878,75.5017521 61.518227,76.5538113 C63.1257616,77.069367 64.7521361,77.5654134 66.3327394,76.9992879 C66.877459,77.5253175 67.4049744,76.9790593 67.4049744,76.9790593 C72.1850784,75.2799603 76.9557625,73.5906159 80.3266908,83.142224 C83.6881993,92.7035868 78.9175152,94.3929312 74.1276841,96.0826368 C72.5279337,96.6491236 72.0004183,97.1953818 70.9187634,97.2253649 C64.0036094,98.9551665 57.0465698,97.4774981 51.6626565,94.3708099 C46.2599034,91.2836308 41.3671542,86.5587579 39.6761558,79.6474104 C39.1217091,79.1119874 39.085665,78.0592089 39.0970278,76.9768053 C37.350531,68.9938925 38.3123709,61.496191 42.4698258,55.0108139 C46.6558477,48.515321 52.4471541,43.5888848 59.8898235,41.312825 C61.480154,40.7560929 63.0704844,40.1993608 65.2146471,40.1397556 C76.382697,37.2762612 87.1196937,39.1806163 96.2633959,43.8444454 C104.888695,49.0256301 112.521632,57.4146428 115.871778,68.0584092 C115.898095,69.1017943 116.450599,70.7098663 117.02225,72.317577 C119.353101,85.0874903 117.423888,97.94735 110.128272,108.791957 C103.884822,119.559253 93.8561884,127.783467 81.6428349,131.748871 C79.5155692,132.861616 76.8530037,133.438577 74.1907455,134.034685 C58.7626299,136.988126 43.7649531,135.135422 31.3613321,128.435753 C18.4221042,121.181153 9.15695135,110.141402 4.11970585,95.8136289 C3.55030498,93.1524172 2.44366159,91.0280702 2.39983325,88.8932493 C-1.60706277,71.3377773 2.37118017,53.0857763 11.7527907,37.9592502 C20.5968515,23.3504409 34.8368028,10.8042123 52.3840926,5.6368362 C55.5553336,4.53312654 58.7548343,3.40015305 61.4173997,2.82319235 C81.1075238,-1.29284395 100.382778,1.5613499 116.54588,9.79901108 C132.745027,19.0894508 145.259351,33.2857401 151.418501,51.8827973 C151.987902,54.544009 153.111749,57.7406437 153.69057,60.3921009 C158.339569,82.7526376 153.365078,106.357765 141.401082,125.267999 C130.793905,143.28056 114.194534,158.204862 94.0570803,165.754121 C93.3237279,166.293853 92.5030867,166.741159 91.6058283,167.072855 L79.536804,170.842773 L79.5368039,167.047203 C79.5368039,167.047203 79.5368039,167.047203 79.5368038,167.047203 L79.5368038,209.961195 C79.5368038,215.436383 75.0885362,219.8749 69.60132,219.8749 C64.1141037,219.8749 59.6658361,215.436383 59.6658361,209.961195 L59.6658361,164.635197 C59.6658361,160.488352 62.2525184,156.779658 66.149609,155.338992 L76.5383048,151.498528 Z" id="Combined-Shape"></path>
                    <ellipse id="Oval-11" cx="69.2258065" cy="236.378173" rx="10.6451613" ry="10.6218274"></ellipse>
                </g>
            </g>
        </g>
    </g>
</svg>