<?xml version="1.0" encoding="UTF-8" standalone="no"?>
<svg width="16px" height="16px" viewBox="0 0 16 16" version="1.1" xmlns="http://www.w3.org/2000/svg" xmlns:xlink="http://www.w3.org/1999/xlink">
    <!-- Generator: Sketch 3.8.3 (29802) - http://www.bohemiancoding.com/sketch -->
    <title>Shape</title>
    <desc>Created with Sketch.</desc>
    <defs></defs>
    <g id="Page-1" stroke="none" stroke-width="1" fill="none" fill-rule="evenodd">
        <g id="Home" transform="translate(-886.000000, -11.000000)" fill="#59B363">
            <path d="M901.534932,23.9851905 L898.276259,20.7265772 C898.25894,20.7092588 898.238626,20.697154 898.220528,20.6810341 C898.861728,19.7083879 899.235961,18.544101 899.235961,17.2920236 C899.235961,13.8860542 896.474907,11.125 893.068997,11.125 C889.663088,11.125 886.902034,13.8860542 886.902034,17.2919636 C886.902034,20.6978131 889.663028,23.4589273 893.068937,23.4589273 C894.321075,23.4589273 895.485302,23.0846943 896.457948,22.4434945 C896.474068,22.461532 896.486113,22.4818467 896.503431,22.499165 L899.762164,25.7578981 C900.251693,26.2473673 901.045343,26.2473673 901.534932,25.7578981 C902.024401,25.2683691 902.024401,24.4747196 901.534932,23.9851905 L901.534932,23.9851905 Z M893.068997,21.3210353 C890.843735,21.3210353 889.039866,19.5171666 889.039866,17.2919636 C889.039866,15.0667008 890.843794,13.262832 893.068997,13.262832 C895.29414,13.262832 897.098069,15.0667607 897.098069,17.2919636 C897.098069,19.5171666 895.29414,21.3210353 893.068997,21.3210353 L893.068997,21.3210353 Z" id="Shape"></path>
        </g>
    </g>
</svg>