<?xml version="1.0" encoding="UTF-8" standalone="no"?>
<svg width="506px" height="395px" viewBox="0 0 506 395" version="1.1" xmlns="http://www.w3.org/2000/svg" xmlns:xlink="http://www.w3.org/1999/xlink">
    <!-- Generator: Sketch 3.8.3 (29802) - http://www.bohemiancoding.com/sketch -->
    <title>squiggly</title>
    <desc>Created with Sketch.</desc>
    <defs></defs>
    <g id="Page-1" stroke="none" stroke-width="1" fill="none" fill-rule="evenodd">
        <g id="squiggly" transform="translate(0.000000, 0.289062)" fill="#D6EAEF">
            <path d="M63.2735309,185.335709 C63.2735309,185.335709 62.5236087,185.335709 62.5236087,186.085415 C61.0371558,186.821733 60.2738422,188.321145 59.5373115,189.820556 C59.5373115,191.319967 59.5373115,192.805991 60.2738422,193.555697 L60.2738422,194.305403 C61.7736865,196.541132 64.023453,198.027156 66.259828,198.027156 C69.2595167,198.776862 71.4825002,198.776862 74.4821889,197.290838 C75.2187196,196.541132 75.9552502,196.541132 76.7319553,195.791427 C81.9546275,192.042898 85.7042383,187.571439 87.1906912,182.363662 C87.9406133,177.115721 87.9406133,171.894557 84.9409247,166.660004 C84.9409247,165.896911 84.1776111,165.160593 83.4544719,164.424274 C79.731644,158.453404 72.995736,153.955169 65.5232973,152.469146 C58.0508587,150.983122 50.5650285,151.71944 43.0791984,155.454581 C41.606137,156.217674 40.1196842,156.953992 38.6064484,157.69031 C29.6475568,163.661181 24.4248847,171.894557 21.451979,180.86425 C19.188821,189.820556 19.9387432,199.539955 24.4248847,208.496261 C25.1614154,209.232579 25.9113375,210.731991 27.3977904,212.231402 C34.1336983,222.68712 44.5924342,229.407696 57.287545,231.656813 C69.2595167,234.642249 82.6911582,233.142837 94.6497384,227.158579 C96.8995049,226.422261 98.3859577,224.936237 100.622333,223.436825 C113.330835,215.216838 121.553196,203.248321 124.539493,190.556874 C128.275712,178.615133 126.78926,164.424274 120.803274,152.469146 C119.303429,150.220028 118.566899,148.747392 117.080446,146.498275 C107.358241,132.307416 92.4133634,122.588017 75.2187196,118.852876 C58.0508587,115.117735 39.3563705,116.603759 22.9116489,125.58684 C18.4255074,127.82257 13.9393659,130.071687 9.46661585,121.088606 C4.99386583,112.1323 9.46661585,109.883183 13.9393659,107.647453 C34.1336983,96.4420298 58.0508587,94.2063002 79.731644,99.4274651 C101.372255,103.912312 121.553196,116.603759 134.248307,135.292852 C135.73476,137.528581 137.234604,140.527404 138.734448,142.763134 C147.720123,159.939428 149.219967,178.615133 144.707043,196.541132 C139.470979,213.717426 128.275712,229.407696 111.844382,240.599732 C109.608007,242.099143 106.608319,243.598555 103.648804,245.097966 C87.9406133,254.040884 69.2595167,255.553683 52.814795,251.805155 C35.6335427,248.083401 19.9387432,238.364002 10.216538,223.436825 C8.73008516,221.937414 7.980163,219.688297 6.48031868,217.452567 C-0.242197828,204.011415 -1.72865068,189.820556 1.99417719,175.61631 C5.74378799,162.175157 14.716071,150.220028 27.3977904,141.263722 C29.6475568,139.777699 31.8839319,138.278287 34.1336983,137.528581 C45.3289649,131.557711 58.0508587,130.071687 69.9826559,133.030347 C82.6911582,135.292852 93.1498941,142.763134 100.622333,153.205464 C101.372255,154.718263 102.135569,156.217674 102.858708,156.953992 C108.121554,166.660004 108.844694,177.865427 106.608319,187.571439 C103.648804,197.290838 97.6360356,206.247144 87.9406133,212.231402 C86.4273776,213.717426 84.9409247,214.467132 83.4544719,215.216838 C76.7319553,218.951979 69.2595167,219.688297 61.7736865,218.202273 C54.3146393,216.702862 48.3286535,212.231402 43.8559035,205.497438 C43.0791984,204.76112 42.3560592,204.011415 42.3560592,203.248321 C38.6064484,197.290838 38.6064484,190.556874 40.1196842,184.586004 C41.606137,178.615133 45.3289649,172.644262 51.3015592,168.909121 C52.0648729,168.159415 52.814795,168.159415 54.3146393,167.40971 C58.8007808,165.160593 63.2735309,162.924863 67.7596724,171.894557 C72.2324224,180.86425 67.7596724,183.09998 63.2735309,185.335709" id="Fill-13-Copy-4"></path>
            <path d="M190.824777,235.812578 C190.824777,235.812578 190.074855,235.812578 190.074855,236.562283 C188.588402,237.298601 187.825089,238.798013 187.088558,240.297424 C187.088558,241.796836 187.088558,243.28286 187.825089,244.032565 L187.825089,244.782271 C189.324933,247.018001 191.5747,248.504025 193.811075,248.504025 C196.810763,249.25373 199.033747,249.25373 202.033435,247.767706 C202.769966,247.018001 203.506497,247.018001 204.283202,246.268295 C209.505874,242.519766 213.255485,238.048307 214.741938,232.84053 C215.49186,227.59259 215.49186,222.371425 212.492171,217.136872 C212.492171,216.373779 211.728858,215.637461 211.005718,214.901143 C207.282891,208.930272 200.546983,204.432038 193.074544,202.946014 C185.602105,201.45999 178.116275,202.196308 170.630445,205.931449 C169.157384,206.694543 167.670931,207.430861 166.157695,208.167179 C157.198803,214.138049 151.976131,222.371425 149.003225,231.341118 C146.740068,240.297424 147.48999,250.016824 151.976131,258.97313 C152.712662,259.709448 153.462584,261.208859 154.949037,262.708271 C161.684945,273.163988 172.143681,279.884564 184.838792,282.133682 C196.810763,285.119117 210.242405,283.619705 222.200985,277.635447 C224.450751,276.899129 225.937204,275.413105 228.173579,273.913694 C240.882082,265.693706 249.104442,253.725189 252.09074,241.033742 C255.826959,229.092001 254.340506,214.901143 248.35452,202.946014 C246.854676,200.696897 246.118145,199.22426 244.631692,196.975143 C234.909487,182.784285 219.96461,173.064885 202.769966,169.329744 C185.602105,165.594603 166.907617,167.080627 150.462895,176.063708 C145.976754,178.299438 141.490612,180.548555 137.017862,171.565474 C132.545112,162.609168 137.017862,160.360051 141.490612,158.124321 C161.684945,146.918898 185.602105,144.683169 207.282891,149.904333 C228.923501,154.38918 249.104442,167.080627 261.799553,185.76972 C263.286006,188.00545 264.78585,191.004273 266.285695,193.240002 C275.271369,210.416296 276.771214,229.092001 272.258289,247.018001 C267.022225,264.194295 255.826959,279.884564 239.395629,291.0766 C237.159254,292.576011 234.159565,294.075423 231.200051,295.574834 C215.49186,304.517753 196.810763,306.030552 180.366042,302.282023 C163.184789,298.56027 147.48999,288.84087 137.767785,273.913694 C136.281332,272.414282 135.53141,270.165165 134.031565,267.929436 C127.309049,254.488283 125.822596,240.297424 129.545424,226.093178 C133.295035,212.652026 142.267318,200.696897 154.949037,191.740591 C157.198803,190.254567 159.435178,188.755155 161.684945,188.00545 C172.880211,182.034579 185.602105,180.548555 197.533902,183.507215 C210.242405,185.76972 220.701141,193.240002 228.173579,203.682332 C228.923501,205.195131 229.686815,206.694543 230.409954,207.430861 C235.672801,217.136872 236.39594,228.342295 234.159565,238.048307 C231.200051,247.767706 225.187282,256.724012 215.49186,262.708271 C213.978624,264.194295 212.492171,264.944 211.005718,265.693706 C204.283202,269.428847 196.810763,270.165165 189.324933,268.679141 C181.865886,267.17973 175.8799,262.708271 171.40715,255.974307 C170.630445,255.237989 169.907306,254.488283 169.907306,253.725189 C166.157695,247.767706 166.157695,241.033742 167.670931,235.062872 C169.157384,229.092001 172.880211,223.121131 178.852806,219.38599 C179.616119,218.636284 180.366042,218.636284 181.865886,217.886578 C186.352027,215.637461 190.824777,213.401731 195.310919,222.371425 C199.783669,231.341118 195.310919,233.576848 190.824777,235.812578" id="Fill-13-Copy-5"></path>
            <path d="M84.2984616,325.549232 C84.2984616,325.549232 83.5485394,325.549232 83.5485394,326.298938 C82.0620866,327.035256 81.298773,328.534668 80.5622423,330.034079 C80.5622423,331.533491 80.5622423,333.019514 81.298773,333.76922 L81.298773,334.518926 C82.7986173,336.754656 85.0483838,338.240679 87.2847588,338.240679 C90.2844474,338.990385 92.507431,338.990385 95.5071196,337.504361 C96.2436503,336.754656 96.980181,336.754656 97.7568861,336.00495 C102.979558,332.256421 106.729169,327.784962 108.215622,322.577185 C108.965544,317.329245 108.965544,312.10808 105.965855,306.873527 C105.965855,306.110434 105.202542,305.374116 104.479403,304.637798 C100.756575,298.666927 94.0206668,294.168693 86.5482281,292.682669 C79.0757894,291.196645 71.5899593,291.932963 64.1041291,295.668104 C62.6310678,296.431197 61.1446149,297.167515 59.6313791,297.903834 C50.6724876,303.874704 45.4498154,312.10808 42.4769097,321.077773 C40.2137518,330.034079 40.9636739,339.753478 45.4498154,348.709784 C46.1863461,349.446103 46.9362683,350.945514 48.4227211,352.444925 C55.1586291,362.900643 65.6173649,369.621219 78.3124758,371.870336 C90.2844474,374.855772 103.716089,373.35636 115.674669,367.372102 C117.924436,366.635784 119.410888,365.14976 121.647263,363.650349 C134.355766,355.430361 142.578127,343.461844 145.564424,330.770397 C149.300643,318.828656 147.81419,304.637798 141.828204,292.682669 C140.32836,290.433551 139.591829,288.960915 138.105377,286.711798 C128.383171,272.52094 113.438294,262.80154 96.2436503,259.066399 C79.0757894,255.331258 60.3813013,256.817282 43.9365796,265.800363 C39.4504381,268.036093 34.9642966,270.28521 30.4915466,261.302129 C26.0187966,252.345823 30.4915466,250.096706 34.9642966,247.860976 C55.1586291,236.655553 79.0757894,234.419823 100.756575,239.640988 C122.397186,244.125835 142.578127,256.817282 155.273237,275.506375 C156.75969,277.742104 158.259535,280.740927 159.759379,282.976657 C168.745053,300.152951 170.244898,318.828656 165.731973,336.754656 C160.49591,353.930949 149.300643,369.621219 132.869313,380.813255 C130.632938,382.312666 127.633249,383.812078 124.673735,385.311489 C108.965544,394.254408 90.2844474,395.767207 73.8397258,392.018678 C56.6584734,388.296924 40.9636739,378.577525 31.2414688,363.650349 C29.7550159,362.150937 29.0050937,359.90182 27.5052494,357.66609 C20.7827329,344.224938 19.2962801,330.034079 23.0191079,315.829833 C26.7687187,302.38868 35.7410017,290.433551 48.4227211,281.477246 C50.6724876,279.991222 52.9088626,278.49181 55.1586291,277.742104 C66.3538956,271.771234 79.0757894,270.28521 91.0075866,273.24387 C103.716089,275.506375 114.174825,282.976657 121.647263,293.418987 C122.397186,294.931786 123.160499,296.431197 123.883638,297.167515 C129.146485,306.873527 129.869624,318.07895 127.633249,327.784962 C124.673735,337.504361 118.660966,346.460667 108.965544,352.444925 C107.452308,353.930949 105.965855,354.680655 104.479403,355.430361 C97.7568861,359.165502 90.2844474,359.90182 82.7986173,358.415796 C75.3395701,356.916385 69.3535843,352.444925 64.8808342,345.710961 C64.1041291,344.974643 63.3809899,344.224938 63.3809899,343.461844 C59.6313791,337.504361 59.6313791,330.770397 61.1446149,324.799527 C62.6310678,318.828656 66.3538956,312.857785 72.32649,309.122644 C73.0898036,308.372939 73.8397258,308.372939 75.3395701,307.623233 C79.8257116,305.374116 84.2984616,303.138386 88.7846031,312.10808 C93.2573531,321.077773 88.7846031,323.313503 84.2984616,325.549232" id="Fill-13-Copy-6"></path>
            <path d="M295.949431,141.869517 C295.949431,141.869517 295.199509,141.869517 295.199509,142.619223 C293.713056,143.355541 292.949742,144.854952 292.213212,146.354364 C292.213212,147.853775 292.213212,149.339799 292.949742,150.089505 L292.949742,150.839211 C294.449587,153.07494 296.699353,154.560964 298.935728,154.560964 C301.935417,155.31067 304.1584,155.31067 307.158089,153.824646 C307.89462,153.07494 308.631151,153.07494 309.407856,152.325235 C314.630528,148.576706 318.380139,144.105247 319.866591,138.897469 C320.616514,133.649529 320.616514,128.428364 317.616825,123.193812 C317.616825,122.430719 316.853511,121.6944 316.130372,120.958082 C312.407544,114.987212 305.671636,110.488977 298.199198,109.002953 C290.726759,107.51693 283.240929,108.253248 275.755099,111.988389 C274.282037,112.751482 272.795584,113.4878 271.282349,114.224118 C262.323457,120.194989 257.100785,128.428364 254.127879,137.398058 C251.864721,146.354364 252.614643,156.073763 257.100785,165.030069 C257.837316,165.766387 258.587238,167.265799 260.073691,168.76521 C266.809599,179.220928 277.268334,185.941504 289.963445,188.190621 C301.935417,191.176056 315.367059,189.676645 327.325639,183.692387 C329.575405,182.956069 331.061858,181.470045 333.298233,179.970633 C346.006735,171.750645 354.229096,159.782129 357.215393,147.090682 C360.951613,135.148941 359.46516,120.958082 353.479174,109.002953 C351.97933,106.753836 351.242799,105.2812 349.756346,103.032083 C340.034141,88.8412243 325.089264,79.121825 307.89462,75.3866839 C290.726759,71.6515429 272.032271,73.1375667 255.587549,82.1206479 C251.101408,84.3563775 246.615266,86.6054947 242.142516,77.6224135 C237.669766,68.6661076 242.142516,66.4169904 246.615266,64.1812608 C266.809599,52.9758376 290.726759,50.7401081 312.407544,55.961273 C334.048155,60.4461197 354.229096,73.1375667 366.924207,91.8266596 C368.41066,94.0623892 369.910504,97.0612121 371.410349,99.2969417 C380.396023,116.473235 381.895867,135.148941 377.382943,153.07494 C372.146879,170.251234 360.951613,185.941504 344.520282,197.133539 C342.283907,198.632951 339.284219,200.132362 336.324705,201.631774 C320.616514,210.574692 301.935417,212.087491 285.490695,208.338963 C268.309443,204.617209 252.614643,194.89781 242.892438,179.970633 C241.405985,178.471222 240.656063,176.222105 239.156219,173.986375 C232.433702,160.545222 230.94725,146.354364 234.670077,132.150118 C238.419688,118.708965 247.391971,106.753836 260.073691,97.7975302 C262.323457,96.3115064 264.559832,94.8120949 266.809599,94.0623892 C278.004865,88.0915185 290.726759,86.6054947 302.658556,89.5641548 C315.367059,91.8266596 325.825794,99.2969417 333.298233,109.739272 C334.048155,111.252071 334.811469,112.751482 335.534608,113.4878 C340.797455,123.193812 341.520594,134.399235 339.284219,144.105247 C336.324705,153.824646 330.311936,162.780952 320.616514,168.76521 C319.103278,170.251234 317.616825,171.00094 316.130372,171.750645 C309.407856,175.485787 301.935417,176.222105 294.449587,174.736081 C286.99054,173.236669 281.004554,168.76521 276.531804,162.031246 C275.755099,161.294928 275.031959,160.545222 275.031959,159.782129 C271.282349,153.824646 271.282349,147.090682 272.795584,141.119811 C274.282037,135.148941 278.004865,129.17807 283.97746,125.442929 C284.740773,124.693223 285.490695,124.693223 286.99054,123.943518 C291.476681,121.6944 295.949431,119.458671 300.435573,128.428364 C304.908323,137.398058 300.435573,139.633787 295.949431,141.869517" id="Fill-13-Copy-7"></path>
            <path d="M315.5727,282.08304 C315.5727,282.08304 314.822778,282.08304 314.822778,282.832746 C313.336325,283.569064 312.573011,285.068476 311.83648,286.567887 C311.83648,288.067298 311.83648,289.553322 312.573011,290.303028 L312.573011,291.052734 C314.072856,293.288463 316.322622,294.774487 318.558997,294.774487 C321.558686,295.524193 323.781669,295.524193 326.781358,294.038169 C327.517889,293.288463 328.254419,293.288463 329.031124,292.538758 C334.253797,288.790229 338.003407,284.31877 339.48986,279.110993 C340.239782,273.863052 340.239782,268.641887 337.240094,263.407335 C337.240094,262.644242 336.47678,261.907924 335.753641,261.171605 C332.030813,255.200735 325.294905,250.7025 317.822466,249.216477 C310.350028,247.730453 302.864198,248.466771 295.378367,252.201912 C293.905306,252.965005 292.418853,253.701323 290.905617,254.437641 C281.946726,260.408512 276.724054,268.641887 273.751148,277.611581 C271.48799,286.567887 272.237912,296.287286 276.724054,305.243592 C277.460584,305.97991 278.210506,307.479322 279.696959,308.978733 C286.432867,319.434451 296.891603,326.155027 309.586714,328.404144 C321.558686,331.38958 334.990327,329.890168 346.948907,323.90591 C349.198674,323.169592 350.685127,321.683568 352.921502,320.184156 C365.630004,311.964169 373.852365,299.995652 376.838662,287.304205 C380.574881,275.362464 379.088429,261.171605 373.102443,249.216477 C371.602598,246.967359 370.866068,245.494723 369.379615,243.245606 C359.65741,229.054747 344.712532,219.335348 327.517889,215.600207 C310.350028,211.865066 291.65554,213.35109 275.210818,222.334171 C270.724676,224.569901 266.238535,226.819018 261.765785,217.835937 C257.293035,208.879631 261.765785,206.630514 266.238535,204.394784 C286.432867,193.189361 310.350028,190.953631 332.030813,196.174796 C353.671424,200.659643 373.852365,213.35109 386.547476,232.040183 C388.033929,234.275912 389.533773,237.274735 391.033617,239.510465 C400.019292,256.686759 401.519136,275.362464 397.006212,293.288463 C391.770148,310.464757 380.574881,326.155027 364.143551,337.347063 C361.907176,338.846474 358.907488,340.345886 355.947973,341.845297 C340.239782,350.788215 321.558686,352.301014 305.113964,348.552486 C287.932712,344.830732 272.237912,335.111333 262.515707,320.184156 C261.029254,318.684745 260.279332,316.435628 258.779488,314.199898 C252.056971,300.758745 250.570518,286.567887 254.293346,272.363641 C258.042957,258.922488 267.01524,246.967359 279.696959,238.011053 C281.946726,236.52503 284.183101,235.025618 286.432867,234.275912 C297.628134,228.305042 310.350028,226.819018 322.281825,229.777678 C334.990327,232.040183 345.449063,239.510465 352.921502,249.952795 C353.671424,251.465594 354.434737,252.965005 355.157877,253.701323 C360.420723,263.407335 361.143863,274.612758 358.907488,284.31877 C355.947973,294.038169 349.935205,302.994475 340.239782,308.978733 C338.726547,310.464757 337.240094,311.214463 335.753641,311.964169 C329.031124,315.69931 321.558686,316.435628 314.072856,314.949604 C306.613808,313.450192 300.627822,308.978733 296.155072,302.244769 C295.378367,301.508451 294.655228,300.758745 294.655228,299.995652 C290.905617,294.038169 290.905617,287.304205 292.418853,281.333334 C293.905306,275.362464 297.628134,269.391593 303.600728,265.656452 C304.364042,264.906746 305.113964,264.906746 306.613808,264.157041 C311.09995,261.907924 315.5727,259.672194 320.058841,268.641887 C324.531591,277.611581 320.058841,279.847311 315.5727,282.08304" id="Fill-13-Copy-9"></path>
            <path d="M422.099016,203.563467 C422.099016,203.563467 421.349093,203.563467 421.349093,204.313173 C419.862641,205.049491 419.099327,206.548903 418.362796,208.048314 C418.362796,209.547726 418.362796,211.033749 419.099327,211.783455 L419.099327,212.533161 C420.599171,214.76889 422.848938,216.254914 425.085313,216.254914 C428.085001,217.00462 430.307985,217.00462 433.307674,215.518596 C434.044204,214.76889 434.780735,214.76889 435.55744,214.019185 C440.780112,210.270656 444.529723,205.799197 446.016176,200.59142 C446.766098,195.343479 446.766098,190.122315 443.766409,184.887762 C443.766409,184.124669 443.003096,183.388351 442.279957,182.652032 C438.557129,176.681162 431.821221,172.182927 424.348782,170.696904 C416.876343,169.21088 409.390513,169.947198 401.904683,173.682339 C400.431622,174.445432 398.945169,175.18175 397.431933,175.918068 C388.473042,181.888939 383.250369,190.122315 380.277464,199.092008 C378.014306,208.048314 378.764228,217.767713 383.250369,226.724019 C383.9869,227.460337 384.736822,228.959749 386.223275,230.45916 C392.959183,240.914878 403.417919,247.635454 416.11303,249.884571 C428.085001,252.870007 441.516643,251.370595 453.475223,245.386337 C455.72499,244.650019 457.211442,243.163995 459.447817,241.664583 C472.15632,233.444596 480.378681,221.476079 483.364978,208.784632 C487.101197,196.842891 485.614744,182.652032 479.628758,170.696904 C478.128914,168.447786 477.392383,166.97515 475.905931,164.726033 C466.183725,150.535174 451.238848,140.815775 434.044204,137.080634 C416.876343,133.345493 398.181855,134.831517 381.737134,143.814598 C377.250992,146.050328 372.764851,148.299445 368.292101,139.316364 C363.819351,130.360058 368.292101,128.110941 372.764851,125.875211 C392.959183,114.669788 416.876343,112.434058 438.557129,117.655223 C460.19774,122.14007 480.378681,134.831517 493.073792,153.52061 C494.560244,155.756339 496.060089,158.755162 497.559933,160.990892 C506.545607,178.167186 508.045452,196.842891 503.532527,214.76889 C498.296464,231.945184 487.101197,247.635454 470.669867,258.82749 C468.433492,260.326901 465.433803,261.826313 462.474289,263.325724 C446.766098,272.268642 428.085001,273.781441 411.64028,270.032913 C394.459027,266.311159 378.764228,256.59176 369.042023,241.664583 C367.55557,240.165172 366.805648,237.916055 365.305803,235.680325 C358.583287,222.239173 357.096834,208.048314 360.819662,193.844068 C364.569273,180.402915 373.541556,168.447786 386.223275,159.49148 C388.473042,158.005457 390.709417,156.506045 392.959183,155.756339 C404.15445,149.785469 416.876343,148.299445 428.808141,151.258105 C441.516643,153.52061 451.975379,160.990892 459.447817,171.433222 C460.19774,172.946021 460.961053,174.445432 461.684193,175.18175 C466.947039,184.887762 467.670178,196.093185 465.433803,205.799197 C462.474289,215.518596 456.46152,224.474902 446.766098,230.45916 C445.252862,231.945184 443.766409,232.69489 442.279957,233.444596 C435.55744,237.179737 428.085001,237.916055 420.599171,236.430031 C413.140124,234.93062 407.154138,230.45916 402.681388,223.725196 C401.904683,222.988878 401.181544,222.239173 401.181544,221.476079 C397.431933,215.518596 397.431933,208.784632 398.945169,202.813762 C400.431622,196.842891 404.15445,190.87202 410.127044,187.136879 C410.890358,186.387173 411.64028,186.387173 413.140124,185.637468 C417.626266,183.388351 422.099016,181.152621 426.585157,190.122315 C431.057907,199.092008 426.585157,201.327738 422.099016,203.563467" id="Fill-13-Copy-10"></path>
            <path d="M179.611481,88.5883783 C179.611481,88.5883783 178.861559,88.5883783 178.861559,89.338084 C177.375106,90.0744022 176.611792,91.5738136 175.875262,93.0732251 C175.875262,94.5726365 175.875262,96.0586604 176.611792,96.8083661 L176.611792,97.5580719 C178.111637,99.7938014 180.361403,101.279825 182.597778,101.279825 C185.597467,102.029531 187.82045,102.029531 190.820139,100.543507 C191.55667,99.7938014 192.2932,99.7938014 193.069905,99.0440957 C198.292578,95.2955671 202.042188,90.8241079 203.528641,85.6163306 C204.278563,80.3683905 204.278563,75.1472256 201.278875,69.9126731 C201.278875,69.1495797 200.515561,68.4132616 199.792422,67.6769435 C196.069594,61.7060728 189.333686,57.2078384 181.861247,55.7218146 C174.388809,54.2357907 166.902979,54.9721089 159.417149,58.7072499 C157.944087,59.4703432 156.457634,60.2066614 154.944399,60.9429795 C145.985507,66.9138501 140.762835,75.1472256 137.789929,84.1169191 C135.526771,93.0732251 136.276693,102.792624 140.762835,111.74893 C141.499365,112.485248 142.249288,113.98466 143.735741,115.484071 C150.471648,125.939789 160.930384,132.660365 173.625495,134.909482 C185.597467,137.894918 199.029108,136.395506 210.987689,130.411248 C213.237455,129.67493 214.723908,128.188906 216.960283,126.689495 C229.668785,118.469507 237.891146,106.50099 240.877443,93.8095432 C244.613663,81.8678019 243.12721,67.6769435 237.141224,55.7218146 C235.64138,53.4726974 234.904849,52.0000611 233.418396,49.750944 C223.696191,35.5600855 208.751314,25.8406862 191.55667,22.1055451 C174.388809,18.3704041 155.694321,19.856428 139.249599,28.8395091 C134.763458,31.0752387 130.277316,33.3243559 125.804566,24.3412747 C121.331816,15.3849688 125.804566,13.1358516 130.277316,10.900122 C150.471648,-0.305301144 174.388809,-2.54103073 196.069594,2.68013417 C217.710205,7.16498095 237.891146,19.856428 250.586257,38.5455208 C252.07271,40.7812504 253.572554,43.7800733 255.072398,46.0158029 C264.058073,63.1920967 265.557917,81.8678019 261.044993,99.7938014 C255.808929,116.970095 244.613663,132.660365 228.182332,143.852401 C225.945957,145.351812 222.946269,146.851224 219.986754,148.350635 C204.278563,157.293553 185.597467,158.806352 169.152745,155.057824 C151.971493,151.33607 136.276693,141.616671 126.554488,126.689495 C125.068035,125.190083 124.318113,122.940966 122.818269,120.705236 C116.095752,107.264084 114.609299,93.0732251 118.332127,78.868979 C122.081738,65.4278263 131.054021,53.4726974 143.735741,44.5163914 C145.985507,43.0303676 148.221882,41.5309561 150.471648,40.7812504 C161.666915,34.8103798 174.388809,33.3243559 186.320606,36.283016 C199.029108,38.5455208 209.487844,46.0158029 216.960283,56.4581327 C217.710205,57.9709318 218.473519,59.4703432 219.196658,60.2066614 C224.459504,69.9126731 225.182644,81.1180962 222.946269,90.8241079 C219.986754,100.543507 213.973986,109.499813 204.278563,115.484071 C202.765328,116.970095 201.278875,117.719801 199.792422,118.469507 C193.069905,122.204648 185.597467,122.940966 178.111637,121.454942 C170.652589,119.955531 164.666604,115.484071 160.193854,108.750107 C159.417149,108.013789 158.694009,107.264084 158.694009,106.50099 C154.944399,100.543507 154.944399,93.8095432 156.457634,87.8386726 C157.944087,81.8678019 161.666915,75.8969313 167.639509,72.1617902 C168.402823,71.4120845 169.152745,71.4120845 170.652589,70.6623788 C175.138731,68.4132616 179.611481,66.177532 184.097622,75.1472256 C188.570373,84.1169191 184.097622,86.3526487 179.611481,88.5883783" id="Fill-13-Copy-8"></path>
        </g>
    </g>
</svg>