<?xml version="1.0" encoding="UTF-8" standalone="no"?>
<svg width="21px" height="18px" viewBox="0 0 21 18" version="1.1" xmlns="http://www.w3.org/2000/svg" xmlns:xlink="http://www.w3.org/1999/xlink">
    <!-- Generator: Sketch 3.8.3 (29802) - http://www.bohemiancoding.com/sketch -->
    <title>twitter icon</title>
    <desc>Created with Sketch.</desc>
    <defs></defs>
    <g id="Symbols" stroke="none" stroke-width="1" fill="none" fill-rule="evenodd">
        <g id="footer" transform="translate(-399.000000, -81.000000)" fill="#FFFFFF">
            <g id="Group-8" transform="translate(359.000000, 40.000000)">
                <g id="Group-5">
                    <g id="Group" transform="translate(0.000000, 39.000000)">
                        <path d="M58.526149,4.84573162 C59.4160944,4.28412538 60.0989611,3.39361548 60.41944,2.3328037 C59.5861948,2.85410949 58.6654341,3.23111368 57.6830428,3.43521595 C56.899102,2.55120612 55.7786582,2 54.5386512,2 C52.1597112,2 50.231907,4.03452261 50.231907,6.54355048 C50.231907,6.89975444 50.2676528,7.2468583 50.3416094,7.57836198 C46.762106,7.38855987 43.5881317,5.58153979 41.4618771,2.83070923 C41.0908611,3.50411671 40.8788519,4.28412538 40.8788519,5.11613462 C40.8788519,6.69175213 41.6393731,8.08276759 42.7955626,8.89917666 C42.0892763,8.8757764 41.4248987,8.6690741 40.8431062,8.33107035 L40.8431062,8.38697097 C40.8431062,10.5891954 42.3271703,12.4261158 44.3005811,12.8421205 C43.9381933,12.9487217 43.558549,13.0020222 43.1641134,13.0020222 C42.8867758,13.0020222 42.6156013,12.9747219 42.3542877,12.9214213 C42.9015672,14.7258414 44.4928685,16.041456 46.3787639,16.0765564 C44.9033281,17.29597 43.0457827,18.021378 41.0279979,18.021378 C40.6804015,18.021378 40.3365029,18.0018778 40,17.9589773 C41.9068498,19.2472916 44.1711569,20 46.6043317,20 C54.5300229,20 58.8614193,13.0761231 58.8614193,7.07135635 C58.8614193,6.87375415 58.858954,6.67745197 58.8503258,6.48374982 C59.6921993,5.8428427 60.4243705,5.0420338 61,4.13072367 C60.2271527,4.49212769 59.3963726,4.73653041 58.526149,4.84573162 Z" id="twitter-icon"></path>
                    </g>
                </g>
            </g>
        </g>
    </g>
</svg>